TwilioSansMono-ExtraBold.ufo
<glyph name="numbersign" format="2">
	<unicode hex="0023"/>
	<advance width="600"/>
	<outline>
		<contour>
			<point x="18" y="276" type="line"/>
			<point x="18" y="153" type="line"/>
			<point x="107" y="153" type="line"/>
			<point x="92" y="0" type="line"/>
			<point x="217" y="0" type="line"/>
			<point x="231" y="153" type="line"/>
			<point x="335" y="153" type="line"/>
			<point x="320" y="0" type="line"/>
			<point x="444" y="0" type="line"/>
			<point x="459" y="153" type="line"/>
			<point x="559" y="153" type="line"/>
			<point x="559" y="276" type="line"/>
			<point x="470" y="276" type="line"/>
			<point x="483" y="414" type="line"/>
			<point x="582" y="414" type="line"/>
			<point x="582" y="537" type="line"/>
			<point x="495" y="537" type="line"/>
			<point x="509" y="684" type="line"/>
			<point x="385" y="684" type="line"/>
			<point x="371" y="537" type="line"/>
			<point x="267" y="537" type="line"/>
			<point x="281" y="684" type="line"/>
			<point x="157" y="684" type="line"/>
			<point x="143" y="537" type="line"/>
			<point x="42" y="537" type="line"/>
			<point x="42" y="414" type="line"/>
			<point x="131" y="414" type="line"/>
			<point x="118" y="276" type="line"/>
		</contour>
		<contour>
			<point x="243" y="276" type="line"/>
			<point x="256" y="414" type="line"/>
			<point x="359" y="414" type="line"/>
			<point x="346" y="276" type="line"/>
		</contour>
	</outline>
</glyph>
<glyph name="dollar" format="2">
	<unicode hex="0024"/>
	<advance width="600"/>
	<outline>
		<contour>
			<point x="173" y="-93" type="line"/>
			<point x="283" y="-93" type="line"/>
			<point x="296" y="-11" type="line"/>
			<point x="306" y="-11" type="line" smooth="yes"/>
			<point x="462" y="-11"/>
			<point x="562" y="65"/>
			<point x="562" y="223" type="curve" smooth="yes"/>
			<point x="562" y="346"/>
			<point x="473" y="390"/>
			<point x="358" y="414" type="curve"/>
			<point x="382" y="556" type="line"/>
			<point x="438" y="546"/>
			<point x="497" y="525"/>
			<point x="543" y="496" type="curve"/>
			<point x="543" y="638" type="line"/>
			<point x="514" y="656"/>
			<point x="469" y="672"/>
			<point x="417" y="683" type="curve"/>
			<point x="432" y="774" type="line"/>
			<point x="321" y="774" type="line"/>
			<point x="308" y="695" type="line"/>
			<point x="303" y="695" type="line" smooth="yes"/>
			<point x="145" y="695"/>
			<point x="40" y="619"/>
			<point x="40" y="473" type="curve" smooth="yes"/>
			<point x="40" y="339"/>
			<point x="122" y="299"/>
			<point x="246" y="275" type="curve"/>
			<point x="222" y="133" type="line"/>
			<point x="165" y="145"/>
			<point x="106" y="169"/>
			<point x="51" y="206" type="curve"/>
			<point x="51" y="58" type="line"/>
			<point x="90" y="34"/>
			<point x="135" y="14"/>
			<point x="188" y="2" type="curve"/>
		</contour>
		<contour>
			<point x="202" y="494" type="curve" smooth="yes"/>
			<point x="202" y="544"/>
			<point x="243" y="564"/>
			<point x="296" y="564" type="curve"/>
			<point x="274" y="430" type="line"/>
			<point x="227" y="440"/>
			<point x="202" y="455"/>
		</contour>
		<contour>
			<point x="399" y="194" type="curve" smooth="yes"/>
			<point x="399" y="146"/>
			<point x="364" y="123"/>
			<point x="307" y="123" type="curve"/>
			<point x="331" y="258" type="line"/>
			<point x="375" y="246"/>
			<point x="399" y="229"/>
		</contour>
	</outline>
</glyph>
<glyph name="ampersand" format="2">
	<unicode hex="0026"/>
	<advance width="600"/>
	<outline>
		<contour>
			<point x="220" y="-14" type="curve" smooth="yes"/>
			<point x="289" y="-14"/>
			<point x="346" y="6"/>
			<point x="394" y="40" type="curve"/>
			<point x="425" y="0" type="line"/>
			<point x="613" y="0" type="line"/>
			<point x="494" y="153" type="line"/>
			<point x="536" y="225"/>
			<point x="563" y="314"/>
			<point x="577" y="409" type="curve"/>
			<point x="436" y="409" type="line"/>
			<point x="429" y="358"/>
			<point x="418" y="310"/>
			<point x="404" y="269" type="curve"/>
			<point x="304" y="398" type="line" smooth="yes"/>
			<point x="273" y="438"/>
			<point x="256" y="464"/>
			<point x="256" y="496" type="curve" smooth="yes"/>
			<point x="256" y="540"/>
			<point x="284" y="565"/>
			<point x="335" y="565" type="curve" smooth="yes"/>
			<point x="391" y="565"/>
			<point x="434" y="548"/>
			<point x="487" y="520" type="curve"/>
			<point x="487" y="660" type="line"/>
			<point x="439" y="684"/>
			<point x="388" y="698"/>
			<point x="321" y="698" type="curve" smooth="yes"/>
			<point x="173" y="698"/>
			<point x="102" y="608"/>
			<point x="102" y="502" type="curve" smooth="yes"/>
			<point x="102" y="463"/>
			<point x="111" y="431"/>
			<point x="127" y="401" type="curve"/>
			<point x="52" y="356"/>
			<point x="6" y="283"/>
			<point x="6" y="186" type="curve" smooth="yes"/>
			<point x="6" y="66"/>
			<point x="83" y="-14"/>
		</contour>
		<contour>
			<point x="152" y="209" type="curve" smooth="yes"/>
			<point x="152" y="249"/>
			<point x="168" y="279"/>
			<point x="197" y="299" type="curve"/>
			<point x="320" y="138" type="line"/>
			<point x="299" y="122"/>
			<point x="274" y="113"/>
			<point x="247" y="113" type="curve" smooth="yes"/>
			<point x="187" y="113"/>
			<point x="152" y="152"/>
		</contour>
	</outline>
</glyph>
<glyph name="parenright" format="2">
	<unicode hex="0029"/>
	<advance width="600"/>
	<outline>
		<contour>
			<point x="80" y="-35" type="curve"/>
			<point x="128" y="-168" type="line"/>
			<point x="376" y="-91"/>
			<point x="464" y="62"/>
			<point x="464" y="316" type="curve" smooth="yes"/>
			<point x="464" y="566"/>
			<point x="369" y="722"/>
			<point x="128" y="798" type="curve"/>
			<point x="80" y="664" type="line"/>
			<point x="259" y="613"/>
			<point x="311" y="493"/>
			<point x="311" y="314" type="curve" smooth="yes"/>
			<point x="311" y="136"/>
			<point x="260" y="27"/>
		</contour>
	</outline>
</glyph>
<glyph name="plus" format="2">
	<unicode hex="002B"/>
	<advance width="600"/>
	<outline>
		<contour>
			<point x="228" y="531" type="line"/>
			<point x="228" y="363" type="line"/>
			<point x="62" y="363" type="line"/>
			<point x="62" y="224" type="line"/>
			<point x="228" y="224" type="line"/>
			<point x="228" y="56" type="line"/>
			<point x="372" y="56" type="line"/>
			<point x="372" y="224" type="line"/>
			<point x="538" y="224" type="line"/>
			<point x="538" y="363" type="line"/>
			<point x="372" y="363" type="line"/>
			<point x="372" y="531" type="line"/>
		</contour>
	</outline>
</glyph>
<glyph name="comma" format="2">
	<unicode hex="002C"/>
	<advance width="600"/>
	<outline>
		<contour>
			<point x="223" y="185" type="line"/>
			<point x="176" y="-175" type="line"/>
			<point x="293" y="-175" type="line"/>
			<point x="435" y="185" type="line"/>
		</contour>
	</outline>
</glyph>
<glyph name="hyphen" format="2">
	<unicode hex="002D"/>
	<advance width="600"/>
	<outline>
		<contour>
			<point x="482" y="367" type="line"/>
			<point x="118" y="367" type="line"/>
			<point x="118" y="219" type="line"/>
			<point x="482" y="219" type="line"/>
		</contour>
	</outline>
</glyph>
<glyph name="slash" format="2">
	<unicode hex="002F"/>
	<advance width="600"/>
	<outline>
		<contour>
			<point x="386" y="792" type="line"/>
			<point x="50" y="-163" type="line"/>
			<point x="213" y="-163" type="line"/>
			<point x="550" y="792" type="line"/>
		</contour>
	</outline>
</glyph>
<glyph name="two" format="2">
	<unicode hex="0032"/>
	<advance width="600"/>
	<outline>
		<contour>
			<point x="57" y="0" type="line"/>
			<point x="540" y="0" type="line"/>
			<point x="540" y="149" type="line"/>
			<point x="304" y="149" type="line"/>
			<point x="342" y="176" type="line" smooth="yes"/>
			<point x="454" y="254"/>
			<point x="530" y="335"/>
			<point x="530" y="469" type="curve" smooth="yes"/>
			<point x="530" y="596"/>
			<point x="464" y="698"/>
			<point x="294" y="698" type="curve" smooth="yes"/>
			<point x="195" y="698"/>
			<point x="115" y="664"/>
			<point x="59" y="621" type="curve"/>
			<point x="59" y="467" type="line"/>
			<point x="121" y="520"/>
			<point x="186" y="555"/>
			<point x="256" y="555" type="curve" smooth="yes"/>
			<point x="326" y="555"/>
			<point x="357" y="515"/>
			<point x="357" y="453" type="curve" smooth="yes"/>
			<point x="357" y="359"/>
			<point x="281" y="298"/>
			<point x="174" y="217" type="curve" smooth="yes"/>
			<point x="57" y="127" type="line"/>
		</contour>
	</outline>
</glyph>
<glyph name="three" format="2">
	<unicode hex="0033"/>
	<advance width="600"/>
	<outline>
		<contour>
			<point x="277" y="-14" type="curve" smooth="yes"/>
			<point x="446" y="-14"/>
			<point x="543" y="83"/>
			<point x="543" y="226" type="curve" smooth="yes"/>
			<point x="543" y="335"/>
			<point x="492" y="404"/>
			<point x="377" y="418" type="curve"/>
			<point x="530" y="545" type="line"/>
			<point x="530" y="684" type="line"/>
			<point x="57" y="684" type="line"/>
			<point x="57" y="548" type="line"/>
			<point x="327" y="548" type="line"/>
			<point x="145" y="385" type="line"/>
			<point x="145" y="287" type="line"/>
			<point x="173" y="295"/>
			<point x="207" y="301"/>
			<point x="252" y="301" type="curve" smooth="yes"/>
			<point x="330" y="301"/>
			<point x="373" y="279"/>
			<point x="373" y="220" type="curve" smooth="yes"/>
			<point x="373" y="166"/>
			<point x="336" y="124"/>
			<point x="258" y="124" type="curve" smooth="yes"/>
			<point x="198" y="124"/>
			<point x="126" y="144"/>
			<point x="54" y="191" type="curve"/>
			<point x="54" y="44" type="line"/>
			<point x="105" y="15"/>
			<point x="171" y="-14"/>
		</contour>
	</outline>
</glyph>
<glyph name="four" format="2">
	<unicode hex="0034"/>
	<advance width="600"/>
	<outline>
		<contour>
			<point x="331" y="0" type="line"/>
			<point x="498" y="0" type="line"/>
			<point x="498" y="132" type="line"/>
			<point x="560" y="132" type="line"/>
			<point x="560" y="266" type="line"/>
			<point x="498" y="266" type="line"/>
			<point x="498" y="685" type="line"/>
			<point x="242" y="685" type="line"/>
			<point x="26" y="268" type="line"/>
			<point x="26" y="133" type="line"/>
			<point x="331" y="133" type="line"/>
		</contour>
		<contour>
			<point x="177" y="266" type="line"/>
			<point x="331" y="568" type="line"/>
			<point x="331" y="266" type="line"/>
		</contour>
	</outline>
</glyph>
<glyph name="five" format="2">
	<unicode hex="0035"/>
	<advance width="600"/>
	<outline>
		<contour>
			<point x="285" y="-14" type="curve" smooth="yes"/>
			<point x="442" y="-14"/>
			<point x="542" y="81"/>
			<point x="542" y="230" type="curve" smooth="yes"/>
			<point x="542" y="364"/>
			<point x="472" y="431"/>
			<point x="324" y="431" type="curve" smooth="yes"/>
			<point x="291" y="431"/>
			<point x="263" y="429"/>
			<point x="237" y="425" type="curve"/>
			<point x="238" y="548" type="line"/>
			<point x="526" y="548" type="line"/>
			<point x="526" y="684" type="line"/>
			<point x="84" y="684" type="line"/>
			<point x="84" y="282" type="line"/>
			<point x="132" y="296"/>
			<point x="183" y="305"/>
			<point x="247" y="305" type="curve" smooth="yes"/>
			<point x="340" y="305"/>
			<point x="372" y="274"/>
			<point x="372" y="219" type="curve" smooth="yes"/>
			<point x="372" y="165"/>
			<point x="341" y="124"/>
			<point x="265" y="124" type="curve" smooth="yes"/>
			<point x="207" y="124"/>
			<point x="132" y="143"/>
			<point x="58" y="191" type="curve"/>
			<point x="58" y="45" type="line"/>
			<point x="106" y="14"/>
			<point x="175" y="-14"/>
		</contour>
	</outline>
</glyph>
<glyph name="six" format="2">
	<unicode hex="0036"/>
	<advance width="600"/>
	<outline>
		<contour>
			<point x="301" y="-14" type="curve" smooth="yes"/>
			<point x="475" y="-14"/>
			<point x="562" y="97"/>
			<point x="562" y="252" type="curve" smooth="yes"/>
			<point x="562" y="372"/>
			<point x="508" y="454"/>
			<point x="383" y="454" type="curve" smooth="yes"/>
			<point x="315" y="454"/>
			<point x="257" y="423"/>
			<point x="216" y="351" type="curve"/>
			<point x="222" y="491"/>
			<point x="249" y="562"/>
			<point x="375" y="562" type="curve" smooth="yes"/>
			<point x="434" y="562"/>
			<point x="509" y="541"/>
			<point x="544" y="515" type="curve"/>
			<point x="545" y="653" type="line"/>
			<point x="506" y="679"/>
			<point x="422" y="698"/>
			<point x="353" y="698" type="curve" smooth="yes"/>
			<point x="111" y="698"/>
			<point x="35" y="537"/>
			<point x="35" y="320" type="curve" smooth="yes"/>
			<point x="35" y="306" type="line" smooth="yes"/>
			<point x="35" y="105"/>
			<point x="100" y="-14"/>
		</contour>
		<contour>
			<point x="301" y="118" type="curve" smooth="yes"/>
			<point x="246" y="118"/>
			<point x="209" y="150"/>
			<point x="209" y="231" type="curve" smooth="yes"/>
			<point x="209" y="299"/>
			<point x="242" y="338"/>
			<point x="303" y="338" type="curve" smooth="yes"/>
			<point x="361" y="338"/>
			<point x="391" y="306"/>
			<point x="391" y="233" type="curve" smooth="yes"/>
			<point x="391" y="152"/>
			<point x="356" y="118"/>
		</contour>
	</outline>
</glyph>
<glyph name="seven" format="2">
	<unicode hex="0037"/>
	<advance width="600"/>
	<outline>
		<contour>
			<point x="127" y="0" type="line"/>
			<point x="311" y="0" type="line"/>
			<point x="557" y="520" type="line"/>
			<point x="557" y="684" type="line"/>
			<point x="45" y="684" type="line"/>
			<point x="45" y="435" type="line"/>
			<point x="193" y="435" type="line"/>
			<point x="193" y="557" type="line"/>
			<point x="398" y="557" type="line"/>
		</contour>
	</outline>
</glyph>
<glyph name="nine" format="2">
	<unicode hex="0039"/>
	<advance width="600"/>
	<outline>
		<contour>
			<point x="252" y="-14" type="curve" smooth="yes"/>
			<point x="490" y="-14"/>
			<point x="565" y="150"/>
			<point x="565" y="369" type="curve" smooth="yes"/>
			<point x="565" y="380" type="line" smooth="yes"/>
			<point x="565" y="584"/>
			<point x="500" y="698"/>
			<point x="301" y="698" type="curve" smooth="yes"/>
			<point x="128" y="698"/>
			<point x="38" y="587"/>
			<point x="38" y="440" type="curve" smooth="yes"/>
			<point x="38" y="314"/>
			<point x="96" y="228"/>
			<point x="220" y="228" type="curve" smooth="yes"/>
			<point x="291" y="228"/>
			<point x="347" y="258"/>
			<point x="385" y="331" type="curve"/>
			<point x="381" y="186"/>
			<point x="348" y="124"/>
			<point x="228" y="124" type="curve" smooth="yes"/>
			<point x="169" y="124"/>
			<point x="95" y="153"/>
			<point x="56" y="182" type="curve"/>
			<point x="56" y="36" type="line"/>
			<point x="98" y="8"/>
			<point x="180" y="-14"/>
		</contour>
		<contour>
			<point x="296" y="345" type="curve" smooth="yes"/>
			<point x="238" y="345"/>
			<point x="209" y="379"/>
			<point x="209" y="452" type="curve" smooth="yes"/>
			<point x="209" y="532"/>
			<point x="244" y="566"/>
			<point x="302" y="566" type="curve" smooth="yes"/>
			<point x="359" y="566"/>
			<point x="391" y="529"/>
			<point x="391" y="453" type="curve" smooth="yes"/>
			<point x="390" y="386"/>
			<point x="360" y="345"/>
		</contour>
	</outline>
</glyph>
<glyph name="greater" format="2">
	<unicode hex="003E"/>
	<advance width="600"/>
	<outline>
		<contour>
			<point x="62" y="9" type="line"/>
			<point x="538" y="201" type="line"/>
			<point x="538" y="384" type="line"/>
			<point x="62" y="578" type="line"/>
			<point x="62" y="419" type="line"/>
			<point x="402" y="294" type="line"/>
			<point x="62" y="167" type="line"/>
		</contour>
	</outline>
</glyph>
<glyph name="B" format="2">
	<unicode hex="0042"/>
	<advance width="600"/>
	<outline>
		<contour>
			<point x="356" y="686" type="curve" smooth="yes"/>
			<point x="53" y="686" type="line"/>
			<point x="53" y="0" type="line"/>
			<point x="349" y="0" type="line" smooth="yes"/>
			<point x="489" y="0"/>
			<point x="575" y="82"/>
			<point x="575" y="190" type="curve" smooth="yes"/>
			<point x="575" y="289"/>
			<point x="518" y="340"/>
			<point x="408" y="354" type="curve"/>
			<point x="502" y="371"/>
			<point x="564" y="425"/>
			<point x="564" y="516" type="curve" smooth="yes"/>
			<point x="564" y="622"/>
			<point x="495" y="686"/>
		</contour>
		<contour>
			<point x="313" y="560" type="line" smooth="yes"/>
			<point x="370" y="560"/>
			<point x="392" y="530"/>
			<point x="392" y="485" type="curve" smooth="yes"/>
			<point x="392" y="439"/>
			<point x="366" y="407"/>
			<point x="313" y="407" type="curve" smooth="yes"/>
			<point x="221" y="407" type="line"/>
			<point x="221" y="560" type="line"/>
		</contour>
		<contour>
			<point x="309" y="284" type="line" smooth="yes"/>
			<point x="368" y="284"/>
			<point x="397" y="256"/>
			<point x="397" y="211" type="curve" smooth="yes"/>
			<point x="397" y="164"/>
			<point x="374" y="131"/>
			<point x="309" y="131" type="curve" smooth="yes"/>
			<point x="221" y="131" type="line"/>
			<point x="221" y="284" type="line"/>
		</contour>
	</outline>
	<anchor name="top" x="295" y="684"/>
	<anchor name="bottom" x="310" y="0"/>
</glyph>
<glyph name="E" format="2">
	<unicode hex="0045"/>
	<advance width="600"/>
	<outline>
		<contour>
			<point x="68" y="684" type="line"/>
			<point x="68" y="0" type="line"/>
			<point x="551" y="0" type="line"/>
			<point x="551" y="138" type="line"/>
			<point x="238" y="138" type="line"/>
			<point x="238" y="274" type="line"/>
			<point x="506" y="274" type="line"/>
			<point x="506" y="410" type="line"/>
			<point x="238" y="410" type="line"/>
			<point x="238" y="547" type="line"/>
			<point x="547" y="547" type="line"/>
			<point x="547" y="684" type="line"/>
		</contour>
	</outline>
	<anchor name="ogonek" x="551" y="0"/>
	<anchor name="bottom" x="311" y="0"/>
	<anchor name="top" x="308" y="684"/>
</glyph>
<glyph name="J" format="2">
	<unicode hex="004A"/>
	<advance width="600"/>
	<outline>
		<contour>
			<point x="250" y="-12" type="curve" smooth="yes"/>
			<point x="409" y="-12"/>
			<point x="524" y="51"/>
			<point x="524" y="233" type="curve" smooth="yes"/>
			<point x="524" y="684" type="line"/>
			<point x="72" y="684" type="line"/>
			<point x="72" y="539" type="line"/>
			<point x="354" y="539" type="line"/>
			<point x="354" y="258" type="line" smooth="yes"/>
			<point x="354" y="167"/>
			<point x="308" y="128"/>
			<point x="216" y="128" type="curve" smooth="yes"/>
			<point x="169" y="128"/>
			<point x="114" y="139"/>
			<point x="72" y="155" type="curve"/>
			<point x="71" y="17" type="line"/>
			<point x="120" y="-2"/>
			<point x="173" y="-12"/>
		</contour>
	</outline>
	<anchor name="top" x="307" y="684"/>
	<anchor name="bottom" x="80" y="0"/>
</glyph>
<glyph name="K" format="2">
	<unicode hex="004B"/>
	<advance width="600"/>
	<outline>
		<contour>
			<point x="49" y="0" type="line"/>
			<point x="218" y="0" type="line"/>
			<point x="218" y="189" type="line"/>
			<point x="278" y="285" type="line"/>
			<point x="404" y="0" type="line"/>
			<point x="594" y="0" type="line"/>
			<point x="412" y="399" type="line"/>
			<point x="577" y="684" type="line"/>
			<point x="386" y="684" type="line"/>
			<point x="218" y="373" type="line"/>
			<point x="218" y="684" type="line"/>
			<point x="49" y="684" type="line"/>
		</contour>
	</outline>
	<anchor name="top" x="306" y="684"/>
	<anchor name="bottom" x="314" y="0"/>
</glyph>
<glyph name="Q" format="2">
	<unicode hex="0051"/>
	<advance width="600"/>
	<outline>
		<contour>
			<point x="362" y="-87" type="curve" smooth="yes"/>
			<point x="482" y="-125" type="line"/>
			<point x="549" y="5" type="line"/>
			<point x="400" y="46" type="line"/>
			<point x="523" y="83"/>
			<point x="561" y="205"/>
			<point x="561" y="354" type="curve" smooth="yes"/>
			<point x="561" y="368" type="line" smooth="yes"/>
			<point x="561" y="581"/>
			<point x="469" y="698"/>
			<point x="300" y="698" type="curve" smooth="yes"/>
			<point x="131" y="698"/>
			<point x="39" y="581"/>
			<point x="39" y="349" type="curve" smooth="yes"/>
			<point x="39" y="335" type="line" smooth="yes"/>
			<point x="39" y="95"/>
			<point x="124" y="-12"/>
		</contour>
		<contour>
			<point x="300" y="123" type="curve" smooth="yes"/>
			<point x="242" y="123"/>
			<point x="210" y="172"/>
			<point x="210" y="338" type="curve" smooth="yes"/>
			<point x="210" y="346" type="line" smooth="yes"/>
			<point x="210" y="514"/>
			<point x="242" y="561"/>
			<point x="300" y="561" type="curve" smooth="yes"/>
			<point x="358" y="561"/>
			<point x="390" y="513"/>
			<point x="390" y="348" type="curve" smooth="yes"/>
			<point x="390" y="339" type="line" smooth="yes"/>
			<point x="390" y="175"/>
			<point x="357" y="123"/>
		</contour>
	</outline>
	<anchor name="top" x="279" y="684"/>
	<anchor name="bottom" x="287" y="0"/>
</glyph>
<glyph name="T" format="2">
	<unicode hex="0054"/>
	<advance width="600"/>
	<outline>
		<contour>
			<point x="214" y="0" type="line"/>
			<point x="384" y="0" type="line"/>
			<point x="384" y="539" type="line"/>
			<point x="575" y="539" type="line"/>
			<point x="575" y="684" type="line"/>
			<point x="25" y="684" type="line"/>
			<point x="25" y="539" type="line"/>
			<point x="214" y="539" type="line"/>
		</contour>
	</outline>
	<anchor name="center" x="299" y="333"/>
	<anchor name="bottom" x="299" y="0"/>
	<anchor name="top" x="300" y="684"/>
</glyph>
<glyph name="U" format="2">
	<unicode hex="0055"/>
	<advance width="600"/>
	<outline>
		<contour>
			<point x="293" y="-14" type="curve" smooth="yes"/>
			<point x="463" y="-14"/>
			<point x="551" y="68"/>
			<point x="551" y="233" type="curve" smooth="yes"/>
			<point x="551" y="684" type="line"/>
			<point x="382" y="684" type="line"/>
			<point x="382" y="233" type="line" smooth="yes"/>
			<point x="382" y="164"/>
			<point x="352" y="127"/>
			<point x="300" y="127" type="curve" smooth="yes"/>
			<point x="248" y="127"/>
			<point x="218" y="164"/>
			<point x="218" y="233" type="curve" smooth="yes"/>
			<point x="218" y="684" type="line"/>
			<point x="49" y="684" type="line"/>
			<point x="49" y="233" type="line" smooth="yes"/>
			<point x="49" y="66"/>
			<point x="129" y="-14"/>
		</contour>
	</outline>
	<anchor name="ogonek" x="401" y="0"/>
	<anchor name="bottom" x="279" y="0"/>
	<anchor name="top" x="300" y="684"/>
</glyph>
<glyph name="W" format="2">
	<unicode hex="0057"/>
	<advance width="600"/>
	<outline>
		<contour>
			<point x="68" y="0" type="line"/>
			<point x="255" y="0" type="line"/>
			<point x="294" y="355" type="line"/>
			<point x="303" y="355" type="line"/>
			<point x="343" y="0" type="line"/>
			<point x="531" y="0" type="line"/>
			<point x="582" y="684" type="line"/>
			<point x="441" y="685" type="line"/>
			<point x="420" y="165" type="line"/>
			<point x="410" y="165" type="line"/>
			<point x="367" y="547" type="line"/>
			<point x="233" y="547" type="line"/>
			<point x="188" y="165" type="line"/>
			<point x="179" y="165" type="line"/>
			<point x="159" y="684" type="line"/>
			<point x="18" y="684" type="line"/>
		</contour>
	</outline>
	<anchor name="top" x="300" y="684"/>
</glyph>
<glyph name="X" format="2">
	<unicode hex="0058"/>
	<advance width="600"/>
	<outline>
		<contour>
			<point x="8" y="0" type="line"/>
			<point x="197" y="0" type="line"/>
			<point x="298" y="229" type="line"/>
			<point x="404" y="0" type="line"/>
			<point x="592" y="0" type="line"/>
			<point x="410" y="359" type="line"/>
			<point x="579" y="684" type="line"/>
			<point x="391" y="684" type="line"/>
			<point x="300" y="488" type="line"/>
			<point x="207" y="684" type="line"/>
			<point x="21" y="684" type="line"/>
			<point x="190" y="361" type="line"/>
		</contour>
	</outline>
	<anchor name="top" x="320" y="684"/>
	<anchor name="bottom" x="326" y="0"/>
</glyph>
<glyph name="Y" format="2">
	<unicode hex="0059"/>
	<advance width="600"/>
	<outline>
		<contour>
			<point x="210" y="0" type="line"/>
			<point x="382" y="0" type="line"/>
			<point x="382" y="234" type="line"/>
			<point x="592" y="684" type="line"/>
			<point x="409" y="684" type="line"/>
			<point x="300" y="424" type="line"/>
			<point x="192" y="684" type="line"/>
			<point x="8" y="684" type="line"/>
			<point x="210" y="236" type="line"/>
		</contour>
	</outline>
	<anchor name="top" x="301" y="684"/>
	<anchor name="bottom" x="319" y="0"/>
</glyph>
<glyph name="Z" format="2">
	<unicode hex="005A"/>
	<advance width="600"/>
	<outline>
		<contour>
			<point x="43" y="0" type="line"/>
			<point x="556" y="0" type="line"/>
			<point x="556" y="138" type="line"/>
			<point x="254" y="138" type="line"/>
			<point x="556" y="535" type="line"/>
			<point x="556" y="684" type="line"/>
			<point x="57" y="684" type="line"/>
			<point x="57" y="547" type="line"/>
			<point x="367" y="547" type="line"/>
			<point x="43" y="134" type="line"/>
		</contour>
	</outline>
	<anchor name="top" x="305" y="684"/>
	<anchor name="bottom" x="300" y="0"/>
</glyph>
<glyph name="a" format="2">
	<unicode hex="0061"/>
	<advance width="600"/>
	<outline>
		<contour>
			<point x="207" y="-14" type="curve" smooth="yes"/>
			<point x="284" y="-14"/>
			<point x="338" y="26"/>
			<point x="372" y="92" type="curve"/>
			<point x="372" y="0" type="line"/>
			<point x="531" y="0" type="line"/>
			<point x="531" y="347" type="line" smooth="yes"/>
			<point x="531" y="472"/>
			<point x="450" y="537"/>
			<point x="297" y="537" type="curve" smooth="yes"/>
			<point x="207" y="537"/>
			<point x="124" y="513"/>
			<point x="73" y="485" type="curve"/>
			<point x="73" y="350" type="line"/>
			<point x="130" y="385"/>
			<point x="206" y="407"/>
			<point x="268" y="407" type="curve" smooth="yes"/>
			<point x="331" y="407"/>
			<point x="366" y="381"/>
			<point x="366" y="332" type="curve" smooth="yes"/>
			<point x="366" y="326" type="line"/>
			<point x="267" y="313" type="line" smooth="yes"/>
			<point x="126" y="294"/>
			<point x="56" y="230"/>
			<point x="56" y="132" type="curve" smooth="yes"/>
			<point x="56" y="41"/>
			<point x="119" y="-14"/>
		</contour>
		<contour>
			<point x="281" y="100" type="curve" smooth="yes"/>
			<point x="242" y="100"/>
			<point x="212" y="120"/>
			<point x="212" y="158" type="curve" smooth="yes"/>
			<point x="212" y="195"/>
			<point x="237" y="219"/>
			<point x="298" y="228" type="curve" smooth="yes"/>
			<point x="366" y="237" type="line"/>
			<point x="366" y="176" type="line" smooth="yes"/>
			<point x="366" y="126"/>
			<point x="324" y="100"/>
		</contour>
	</outline>
	<anchor name="ogonek" x="531" y="0"/>
	<anchor name="bottom" x="303" y="0"/>
	<anchor name="top" x="298" y="523"/>
</glyph>
<glyph name="b" format="2">
	<unicode hex="0062"/>
	<advance width="600"/>
	<outline>
		<contour>
			<point x="377" y="-14" type="curve" smooth="yes"/>
			<point x="482" y="-14"/>
			<point x="560" y="82"/>
			<point x="560" y="255" type="curve" smooth="yes"/>
			<point x="560" y="269" type="line" smooth="yes"/>
			<point x="560" y="437"/>
			<point x="497" y="537"/>
			<point x="386" y="537" type="curve" smooth="yes"/>
			<point x="312" y="537"/>
			<point x="258" y="491"/>
			<point x="221" y="424" type="curve"/>
			<point x="221" y="750" type="line"/>
			<point x="54" y="750" type="line"/>
			<point x="54" y="0" type="line"/>
			<point x="213" y="0" type="line"/>
			<point x="213" y="94" type="line"/>
			<point x="252" y="21"/>
			<point x="303" y="-14"/>
		</contour>
		<contour>
			<point x="302" y="115" type="curve" smooth="yes"/>
			<point x="245" y="115"/>
			<point x="213" y="162"/>
			<point x="213" y="258" type="curve" smooth="yes"/>
			<point x="213" y="265" type="line" smooth="yes"/>
			<point x="213" y="362"/>
			<point x="247" y="409"/>
			<point x="303" y="409" type="curve" smooth="yes"/>
			<point x="359" y="409"/>
			<point x="390" y="365"/>
			<point x="390" y="265" type="curve" smooth="yes"/>
			<point x="390" y="258" type="line" smooth="yes"/>
			<point x="390" y="159"/>
			<point x="360" y="115"/>
		</contour>
	</outline>
</glyph>
<glyph name="d" format="2">
	<unicode hex="0064"/>
	<advance width="600"/>
	<outline>
		<contour>
			<point x="217" y="-14" type="curve" smooth="yes"/>
			<point x="294" y="-14"/>
			<point x="349" y="35"/>
			<point x="386" y="105" type="curve"/>
			<point x="386" y="0" type="line"/>
			<point x="546" y="0" type="line"/>
			<point x="546" y="750" type="line"/>
			<point x="379" y="750" type="line"/>
			<point x="379" y="429" type="line"/>
			<point x="345" y="494"/>
			<point x="301" y="537"/>
			<point x="229" y="537" type="curve" smooth="yes"/>
			<point x="124" y="537"/>
			<point x="40" y="441"/>
			<point x="40" y="267" type="curve" smooth="yes"/>
			<point x="40" y="258" type="line" smooth="yes"/>
			<point x="40" y="85"/>
			<point x="102" y="-14"/>
		</contour>
		<contour>
			<point x="297" y="114" type="curve" smooth="yes"/>
			<point x="241" y="114"/>
			<point x="210" y="158"/>
			<point x="210" y="258" type="curve" smooth="yes"/>
			<point x="210" y="264" type="line" smooth="yes"/>
			<point x="210" y="364"/>
			<point x="241" y="408"/>
			<point x="298" y="408" type="curve" smooth="yes"/>
			<point x="355" y="408"/>
			<point x="387" y="361"/>
			<point x="387" y="264" type="curve" smooth="yes"/>
			<point x="387" y="258" type="line" smooth="yes"/>
			<point x="387" y="161"/>
			<point x="353" y="114"/>
		</contour>
	</outline>
	<anchor name="caron" x="607" y="758"/>
	<anchor name="center" x="415" y="632"/>
	<anchor name="top" x="346" y="550"/>
</glyph>
<glyph name="f" format="2">
	<unicode hex="0066"/>
	<advance width="600"/>
	<outline>
		<contour>
			<point x="42" y="0" type="line"/>
			<point x="534" y="0" type="line"/>
			<point x="534" y="129" type="line"/>
			<point x="356" y="129" type="line"/>
			<point x="356" y="394" type="line"/>
			<point x="540" y="394" type="line"/>
			<point x="540" y="523" type="line"/>
			<point x="356" y="523" type="line"/>
			<point x="356" y="573" type="line" smooth="yes"/>
			<point x="356" y="619"/>
			<point x="386" y="637"/>
			<point x="443" y="637" type="curve" smooth="yes"/>
			<point x="476" y="637"/>
			<point x="518" y="631"/>
			<point x="536" y="622" type="curve"/>
			<point x="536" y="739" type="line"/>
			<point x="514" y="749"/>
			<point x="469" y="760"/>
			<point x="402" y="760" type="curve" smooth="yes"/>
			<point x="279" y="760"/>
			<point x="189" y="719"/>
			<point x="189" y="589" type="curve" smooth="yes"/>
			<point x="189" y="523" type="line"/>
			<point x="44" y="523" type="line"/>
			<point x="44" y="394" type="line"/>
			<point x="189" y="394" type="line"/>
			<point x="189" y="129" type="line"/>
			<point x="42" y="129" type="line"/>
		</contour>
	</outline>
</glyph>
<glyph name="j" format="2">
	<unicode hex="006A"/>
	<advance width="600"/>
	<outline>
		<contour>
			<point x="402" y="596" type="curve" smooth="yes"/>
			<point x="474" y="596"/>
			<point x="502" y="620"/>
			<point x="502" y="676" type="curve" smooth="yes"/>
			<point x="502" y="731"/>
			<point x="472" y="756"/>
			<point x="402" y="756" type="curve" smooth="yes"/>
			<point x="335" y="756"/>
			<point x="304" y="732"/>
			<point x="304" y="676" type="curve" smooth="yes"/>
			<point x="304" y="620"/>
			<point x="332" y="596"/>
		</contour>
		<contour>
			<point x="221" y="-204" type="curve" smooth="yes"/>
			<point x="368" y="-204"/>
			<point x="486" y="-157"/>
			<point x="486" y="24" type="curve" smooth="yes"/>
			<point x="486" y="523" type="line"/>
			<point x="72" y="523" type="line"/>
			<point x="72" y="394" type="line"/>
			<point x="319" y="394" type="line"/>
			<point x="319" y="38" type="line" smooth="yes"/>
			<point x="319" y="-44"/>
			<point x="278" y="-70"/>
			<point x="190" y="-70" type="curve" smooth="yes"/>
			<point x="143" y="-70"/>
			<point x="100" y="-62"/>
			<point x="71" y="-53" type="curve"/>
			<point x="71" y="-181" type="line"/>
			<point x="106" y="-195"/>
			<point x="166" y="-204"/>
		</contour>
	</outline>
</glyph>
<glyph name="l" format="2">
	<unicode hex="006C"/>
	<advance width="600"/>
	<outline>
		<contour>
			<point x="60" y="0" type="line"/>
			<point x="552" y="0" type="line"/>
			<point x="552" y="129" type="line"/>
			<point x="396" y="129" type="line"/>
			<point x="396" y="750" type="line"/>
			<point x="61" y="750" type="line"/>
			<point x="61" y="621" type="line"/>
			<point x="228" y="621" type="line"/>
			<point x="228" y="129" type="line"/>
			<point x="60" y="129" type="line"/>
		</contour>
	</outline>
	<anchor name="bottom" x="312" y="0"/>
	<anchor name="caron" x="471" y="750"/>
	<anchor name="top" x="312" y="734"/>
	<anchor name="center" x="310" y="370"/>
</glyph>
<glyph name="m" format="2">
	<unicode hex="006D"/>
	<advance width="600"/>
	<outline>
		<contour>
			<point x="32" y="0" type="line"/>
			<point x="162" y="0" type="line"/>
			<point x="162" y="350" type="line" smooth="yes"/>
			<point x="162" y="367"/>
			<point x="166" y="381"/>
			<point x="174" y="392" type="curve" smooth="yes"/>
			<point x="181" y="401"/>
			<point x="191" y="406"/>
			<point x="205" y="406" type="curve" smooth="yes"/>
			<point x="231" y="406"/>
			<point x="243" y="388"/>
			<point x="243" y="354" type="curve" smooth="yes"/>
			<point x="243" y="0" type="line"/>
			<point x="358" y="0" type="line"/>
			<point x="358" y="349" type="line"/>
			<point x="358" y="366"/>
			<point x="361" y="382"/>
			<point x="370" y="393" type="curve" smooth="yes"/>
			<point x="377" y="401"/>
			<point x="386" y="406"/>
			<point x="400" y="406" type="curve" smooth="yes"/>
			<point x="428" y="406"/>
			<point x="438" y="388"/>
			<point x="438" y="350" type="curve" smooth="yes"/>
			<point x="438" y="0" type="line"/>
			<point x="568" y="0" type="line"/>
			<point x="568" y="370" type="line" smooth="yes"/>
			<point x="568" y="449"/>
			<point x="561" y="537"/>
			<point x="470" y="537" type="curve" smooth="yes"/>
			<point x="418" y="537"/>
			<point x="381" y="502"/>
			<point x="358" y="433" type="curve"/>
			<point x="358" y="486"/>
			<point x="327" y="537"/>
			<point x="267" y="537" type="curve" smooth="yes"/>
			<point x="208" y="537"/>
			<point x="180" y="496"/>
			<point x="157" y="430" type="curve"/>
			<point x="157" y="523" type="line"/>
			<point x="32" y="523" type="line"/>
		</contour>
	</outline>
	<anchor name="top" x="344" y="523"/>
	<anchor name="bottom" x="301" y="0"/>
</glyph>
<glyph name="n" format="2">
	<unicode hex="006E"/>
	<advance width="600"/>
	<outline>
		<contour>
			<point x="61" y="0" type="line"/>
			<point x="228" y="0" type="line"/>
			<point x="228" y="313" type="line" smooth="yes"/>
			<point x="228" y="336"/>
			<point x="234" y="354"/>
			<point x="244" y="368" type="curve" smooth="yes"/>
			<point x="258" y="387"/>
			<point x="278" y="400"/>
			<point x="306" y="400" type="curve" smooth="yes"/>
			<point x="358" y="400"/>
			<point x="377" y="367"/>
			<point x="377" y="309" type="curve" smooth="yes"/>
			<point x="377" y="0" type="line"/>
			<point x="544" y="0" type="line"/>
			<point x="544" y="348" type="line" smooth="yes"/>
			<point x="544" y="475"/>
			<point x="495" y="537"/>
			<point x="396" y="537" type="curve" smooth="yes"/>
			<point x="315" y="537"/>
			<point x="261" y="484"/>
			<point x="220" y="411" type="curve"/>
			<point x="220" y="523" type="line"/>
			<point x="61" y="523" type="line"/>
		</contour>
	</outline>
	<anchor name="top" x="312" y="523"/>
	<anchor name="bottom" x="303" y="0"/>
</glyph>
<glyph name="v" format="2">
	<unicode hex="0076"/>
	<advance width="600"/>
	<outline>
		<contour>
			<point x="27" y="523" type="line"/>
			<point x="183" y="0" type="line"/>
			<point x="415" y="0" type="line"/>
			<point x="573" y="523" type="line"/>
			<point x="400" y="523" type="line"/>
			<point x="303" y="138" type="line"/>
			<point x="202" y="523" type="line"/>
		</contour>
	</outline>
</glyph>
<glyph name="w" format="2">
	<unicode hex="0077"/>
	<advance width="600"/>
	<outline>
		<contour>
			<point x="76" y="0" type="line"/>
			<point x="257" y="0" type="line"/>
			<point x="295" y="363" type="line"/>
			<point x="305" y="363" type="line"/>
			<point x="342" y="0" type="line"/>
			<point x="523" y="0" type="line"/>
			<point x="584" y="523" type="line"/>
			<point x="450" y="523" type="line"/>
			<point x="421" y="135" type="line"/>
			<point x="413" y="135" type="line"/>
			<point x="369" y="523" type="line"/>
			<point x="231" y="523" type="line"/>
			<point x="187" y="135" type="line"/>
			<point x="178" y="135" type="line"/>
			<point x="150" y="523" type="line"/>
			<point x="16" y="523" type="line"/>
		</contour>
	</outline>
	<anchor name="top" x="300" y="523"/>
	<anchor name="bottom" x="271" y="2"/>
</glyph>
<glyph name="y" format="2">
	<unicode hex="0079"/>
	<advance width="600"/>
	<outline>
		<contour>
			<point x="184" y="-204" type="curve" smooth="yes"/>
			<point x="298" y="-204"/>
			<point x="368" y="-149"/>
			<point x="411" y="-7" type="curve" smooth="yes"/>
			<point x="573" y="523" type="line"/>
			<point x="400" y="523" type="line"/>
			<point x="302" y="136" type="line"/>
			<point x="202" y="523" type="line"/>
			<point x="27" y="523" type="line"/>
			<point x="178" y="15" type="line"/>
			<point x="266" y="15" type="line"/>
			<point x="250" y="-57"/>
			<point x="217" y="-82"/>
			<point x="151" y="-82" type="curve" smooth="yes"/>
			<point x="119" y="-82"/>
			<point x="89" y="-77"/>
			<point x="71" y="-71" type="curve"/>
			<point x="71" y="-189" type="line"/>
			<point x="96" y="-197"/>
			<point x="127" y="-204"/>
		</contour>
	</outline>
	<anchor name="top" x="301" y="523"/>
	<anchor name="bottom" x="252" y="-171"/>
</glyph>
<glyph name="bar" format="2">
	<unicode hex="007C"/>
	<advance width="600"/>
	<outline>
		<contour>
			<point x="223" y="792" type="line"/>
			<point x="223" y="-163" type="line"/>
			<point x="377" y="-163" type="line"/>
			<point x="377" y="792" type="line"/>
		</contour>
	</outline>
</glyph>
<glyph name="asciitilde" format="2">
	<unicode hex="007E"/>
	<advance width="600"/>
	<outline>
		<contour>
			<point x="40" y="175" type="curve"/>
			<point x="164" y="175" type="line"/>
			<point x="164" y="240"/>
			<point x="171" y="281"/>
			<point x="211" y="281" type="curve" smooth="yes"/>
			<point x="265" y="281"/>
			<point x="304" y="171"/>
			<point x="407" y="171" type="curve" smooth="yes"/>
			<point x="505" y="171"/>
			<point x="560" y="238"/>
			<point x="560" y="421" type="curve"/>
			<point x="436" y="420" type="line"/>
			<point x="436" y="353"/>
			<point x="426" y="322"/>
			<point x="392" y="322" type="curve" smooth="yes"/>
			<point x="339" y="322"/>
			<point x="289" y="428"/>
			<point x="186" y="428" type="curve" smooth="yes"/>
			<point x="86" y="428"/>
			<point x="40" y="349"/>
		</contour>
	</outline>
</glyph>
<glyph name="exclamdown" format="2">
	<unicode hex="00A1"/>
	<advance width="600"/>
	<outline>
		<contour>
			<point x="299" y="535" type="curve" smooth="yes"/>
			<point x="231" y="535"/>
			<point x="197" y="510"/>
			<point x="197" y="442" type="curve" smooth="yes"/>
			<point x="197" y="377"/>
			<point x="231" y="350"/>
			<point x="299" y="350" type="curve" smooth="yes"/>
			<point x="369" y="350"/>
			<point x="403" y="377"/>
			<point x="403" y="442" type="curve" smooth="yes"/>
			<point x="403" y="510"/>
			<point x="369" y="535"/>
		</contour>
		<contour>
			<point x="361" y="282" type="line"/>
			<point x="241" y="282" type="line"/>
			<point x="209" y="-42" type="line"/>
			<point x="209" y="-161" type="line"/>
			<point x="392" y="-161" type="line"/>
			<point x="392" y="-42" type="line"/>
		</contour>
	</outline>
</glyph>
<glyph name="cent" format="2">
	<unicode hex="00A2"/>
	<advance width="600"/>
	<outline>
		<contour>
			<point x="319" y="-93" type="line"/>
			<point x="426" y="-93" type="line"/>
			<point x="430" y="-8" type="line"/>
			<point x="471" y="-1"/>
			<point x="500" y="10"/>
			<point x="520" y="21" type="curve"/>
			<point x="520" y="146" type="line"/>
			<point x="498" y="136"/>
			<point x="465" y="125"/>
			<point x="428" y="121" type="curve"/>
			<point x="442" y="401" type="line"/>
			<point x="472" y="397"/>
			<point x="500" y="389"/>
			<point x="520" y="377" type="curve"/>
			<point x="520" y="504" type="line"/>
			<point x="504" y="513"/>
			<point x="482" y="521"/>
			<point x="456" y="526" type="curve"/>
			<point x="459" y="616" type="line"/>
			<point x="352" y="616" type="line"/>
			<point x="348" y="534" type="line"/>
			<point x="181" y="526"/>
			<point x="77" y="424"/>
			<point x="77" y="268" type="curve" smooth="yes"/>
			<point x="77" y="255" type="line" smooth="yes"/>
			<point x="77" y="103"/>
			<point x="162" y="5"/>
			<point x="323" y="-10" type="curve"/>
		</contour>
		<contour>
			<point x="247" y="259" type="curve" smooth="yes"/>
			<point x="247" y="266" type="line" smooth="yes"/>
			<point x="247" y="344"/>
			<point x="285" y="387"/>
			<point x="350" y="400" type="curve"/>
			<point x="337" y="127" type="line"/>
			<point x="281" y="143"/>
			<point x="247" y="186"/>
		</contour>
	</outline>
</glyph>
<glyph name="brokenbar" format="2">
	<unicode hex="00A6"/>
	<advance width="600"/>
	<outline>
		<contour>
			<point x="223" y="792" type="line"/>
			<point x="223" y="418" type="line"/>
			<point x="377" y="418" type="line"/>
			<point x="377" y="792" type="line"/>
		</contour>
		<contour>
			<point x="223" y="244" type="line"/>
			<point x="223" y="-163" type="line"/>
			<point x="377" y="-163" type="line"/>
			<point x="377" y="244" type="line"/>
		</contour>
	</outline>
</glyph>
<glyph name="copyright" format="2">
	<unicode hex="00A9"/>
	<advance width="600"/>
	<outline>
		<contour>
			<point x="300" y="102" type="curve" smooth="yes"/>
			<point x="447" y="102"/>
			<point x="566" y="196"/>
			<point x="566" y="374" type="curve" smooth="yes"/>
			<point x="566" y="387" type="line" smooth="yes"/>
			<point x="566" y="561"/>
			<point x="446" y="657"/>
			<point x="300" y="657" type="curve" smooth="yes"/>
			<point x="154" y="657"/>
			<point x="34" y="561"/>
			<point x="34" y="386" type="curve" smooth="yes"/>
			<point x="34" y="372" type="line" smooth="yes"/>
			<point x="34" y="196"/>
			<point x="153" y="102"/>
		</contour>
		<contour>
			<point x="300" y="171" type="curve" smooth="yes"/>
			<point x="180" y="171"/>
			<point x="105" y="245"/>
			<point x="105" y="376" type="curve" smooth="yes"/>
			<point x="105" y="383" type="line" smooth="yes"/>
			<point x="105" y="517"/>
			<point x="181" y="588"/>
			<point x="300" y="588" type="curve" smooth="yes"/>
			<point x="419" y="588"/>
			<point x="495" y="516"/>
			<point x="495" y="384" type="curve" smooth="yes"/>
			<point x="495" y="376" type="line" smooth="yes"/>
			<point x="495" y="242"/>
			<point x="420" y="171"/>
		</contour>
		<contour>
			<point x="323" y="245" type="curve" smooth="yes"/>
			<point x="350" y="245"/>
			<point x="371" y="250"/>
			<point x="382" y="256" type="curve"/>
			<point x="382" y="313" type="line"/>
			<point x="370" y="309"/>
			<point x="354" y="305"/>
			<point x="337" y="305" type="curve" smooth="yes"/>
			<point x="296" y="305"/>
			<point x="264" y="330"/>
			<point x="264" y="382" type="curve" smooth="yes"/>
			<point x="264" y="436"/>
			<point x="296" y="459"/>
			<point x="336" y="459" type="curve" smooth="yes"/>
			<point x="353" y="459"/>
			<point x="371" y="455"/>
			<point x="382" y="451" type="curve"/>
			<point x="382" y="509" type="line"/>
			<point x="369" y="514"/>
			<point x="349" y="518"/>
			<point x="322" y="518" type="curve" smooth="yes"/>
			<point x="243" y="518"/>
			<point x="187" y="469"/>
			<point x="187" y="382" type="curve" smooth="yes"/>
			<point x="187" y="296"/>
			<point x="238" y="245"/>
		</contour>
	</outline>
</glyph>
<glyph name="guillemetleft" format="2">
	<unicode hex="00AB"/>
	<advance width="600"/>
	<outline>
		<contour>
			<point x="335" y="77" type="line"/>
			<point x="189" y="288" type="line"/>
			<point x="335" y="497" type="line"/>
			<point x="166" y="497" type="line"/>
			<point x="23" y="287" type="line"/>
			<point x="166" y="77" type="line"/>
		</contour>
		<contour>
			<point x="576" y="77" type="line"/>
			<point x="430" y="288" type="line"/>
			<point x="576" y="497" type="line"/>
			<point x="407" y="497" type="line"/>
			<point x="263" y="287" type="line"/>
			<point x="407" y="77" type="line"/>
		</contour>
	</outline>
</glyph>
<glyph name="logicalnot" format="2">
	<unicode hex="00AC"/>
	<advance width="600"/>
	<outline>
		<contour>
			<point x="538" y="42" type="line"/>
			<point x="537" y="362" type="line"/>
			<point x="62" y="362" type="line"/>
			<point x="62" y="224" type="line"/>
			<point x="386" y="224" type="line"/>
			<point x="387" y="42" type="line"/>
		</contour>
	</outline>
</glyph>
<glyph name="degree" format="2">
	<unicode hex="00B0"/>
	<advance width="600"/>
	<outline>
		<contour>
			<point x="303" y="284" type="curve" smooth="yes"/>
			<point x="421" y="284"/>
			<point x="503" y="375"/>
			<point x="503" y="492" type="curve" smooth="yes"/>
			<point x="503" y="608"/>
			<point x="421" y="697"/>
			<point x="303" y="697" type="curve" smooth="yes"/>
			<point x="177" y="697"/>
			<point x="97" y="608"/>
			<point x="97" y="492" type="curve" smooth="yes"/>
			<point x="97" y="375"/>
			<point x="177" y="284"/>
		</contour>
		<contour>
			<point x="300" y="387" type="curve" smooth="yes"/>
			<point x="242" y="387"/>
			<point x="203" y="433"/>
			<point x="203" y="491" type="curve" smooth="yes"/>
			<point x="203" y="549"/>
			<point x="243" y="593"/>
			<point x="300" y="593" type="curve" smooth="yes"/>
			<point x="360" y="593"/>
			<point x="398" y="549"/>
			<point x="398" y="491" type="curve" smooth="yes"/>
			<point x="398" y="433"/>
			<point x="360" y="387"/>
		</contour>
	</outline>
</glyph>
<glyph name="acute" format="2">
	<unicode hex="00B4"/>
	<advance width="600"/>
	<outline>
		<contour>
			<point x="434" y="750" type="line"/>
			<point x="253" y="750" type="line"/>
			<point x="205" y="599" type="line"/>
			<point x="329" y="599" type="line"/>
		</contour>
	</outline>
	<anchor name="_top" x="270" y="523"/>
</glyph>
<glyph name="mu" format="2">
	<unicode hex="00B5"/>
	<advance width="600"/>
	<outline>
		<contour>
			<point x="539" y="523" type="line"/>
			<point x="372" y="523" type="line"/>
			<point x="372" y="206" type="line" smooth="yes"/>
			<point x="372" y="183"/>
			<point x="367" y="164"/>
			<point x="356" y="150" type="curve" smooth="yes"/>
			<point x="343" y="131"/>
			<point x="322" y="119"/>
			<point x="294" y="119" type="curve" smooth="yes"/>
			<point x="242" y="119"/>
			<point x="223" y="153"/>
			<point x="223" y="210" type="curve" smooth="yes"/>
			<point x="223" y="523" type="line"/>
			<point x="56" y="523" type="line"/>
			<point x="56" y="-189" type="line"/>
			<point x="223" y="-189" type="line"/>
			<point x="223" y="-13" type="line"/>
			<point x="292" y="-6"/>
			<point x="341" y="43"/>
			<point x="380" y="108" type="curve"/>
			<point x="380" y="0" type="line"/>
			<point x="539" y="0" type="line"/>
		</contour>
	</outline>
	<anchor name="ogonek" x="544" y="0"/>
	<anchor name="bottom" x="311" y="0"/>
	<anchor name="top" x="298" y="537"/>
</glyph>
<glyph name="ordmasculine" format="2">
	<unicode hex="00BA"/>
	<advance width="600"/>
	<outline>
		<contour>
			<point x="301" y="225" type="curve" smooth="yes"/>
			<point x="437" y="225"/>
			<point x="529" y="314"/>
			<point x="529" y="461" type="curve" smooth="yes"/>
			<point x="529" y="609"/>
			<point x="437" y="696"/>
			<point x="301" y="696" type="curve" smooth="yes"/>
			<point x="164" y="696"/>
			<point x="71" y="609"/>
			<point x="71" y="461" type="curve" smooth="yes"/>
			<point x="71" y="314"/>
			<point x="165" y="225"/>
		</contour>
		<contour>
			<point x="301" y="330" type="curve" smooth="yes"/>
			<point x="248" y="330"/>
			<point x="211" y="366"/>
			<point x="211" y="461" type="curve" smooth="yes"/>
			<point x="211" y="556"/>
			<point x="247" y="593"/>
			<point x="301" y="593" type="curve" smooth="yes"/>
			<point x="354" y="593"/>
			<point x="388" y="557"/>
			<point x="388" y="461" type="curve" smooth="yes"/>
			<point x="388" y="366"/>
			<point x="356" y="330"/>
		</contour>
	</outline>
</glyph>
<glyph name="multiply" format="2">
	<unicode hex="00D7"/>
	<advance width="600"/>
	<outline>
		<contour>
			<point x="159" y="59" type="line"/>
			<point x="300" y="200" type="line"/>
			<point x="440" y="59" type="line"/>
			<point x="537" y="158" type="line"/>
			<point x="397" y="299" type="line"/>
			<point x="538" y="440" type="line"/>
			<point x="440" y="538" type="line"/>
			<point x="300" y="397" type="line"/>
			<point x="160" y="538" type="line"/>
			<point x="63" y="439" type="line"/>
			<point x="202" y="299" type="line"/>
			<point x="62" y="157" type="line"/>
		</contour>
	</outline>
</glyph>
<glyph name="Thorn" format="2">
	<unicode hex="00DE"/>
	<advance width="600"/>
	<outline>
		<contour>
			<point x="60" y="684" type="line"/>
			<point x="60" y="0" type="line"/>
			<point x="229" y="0" type="line"/>
			<point x="229" y="110" type="line"/>
			<point x="344" y="110" type="line" smooth="yes"/>
			<point x="494" y="110"/>
			<point x="584" y="207"/>
			<point x="584" y="359" type="curve" smooth="yes"/>
			<point x="584" y="508"/>
			<point x="493" y="600"/>
			<point x="344" y="600" type="curve" smooth="yes"/>
			<point x="229" y="600" type="line"/>
			<point x="229" y="684" type="line"/>
		</contour>
		<contour>
			<point x="312" y="465" type="line" smooth="yes"/>
			<point x="386" y="465"/>
			<point x="414" y="421"/>
			<point x="414" y="357" type="curve" smooth="yes"/>
			<point x="414" y="291"/>
			<point x="386" y="245"/>
			<point x="312" y="245" type="curve" smooth="yes"/>
			<point x="229" y="245" type="line"/>
			<point x="229" y="465" type="line"/>
		</contour>
	</outline>
</glyph>
<glyph name="germandbls" format="2">
	<unicode hex="00DF"/>
	<advance width="600"/>
	<outline>
		<contour>
			<point x="358" y="-9" type="curve" smooth="yes"/>
			<point x="476" y="-9"/>
			<point x="572" y="62"/>
			<point x="572" y="195" type="curve" smooth="yes"/>
			<point x="572" y="300"/>
			<point x="514" y="361"/>
			<point x="402" y="378" type="curve"/>
			<point x="491" y="400"/>
			<point x="548" y="466"/>
			<point x="547" y="567" type="curve" smooth="yes"/>
			<point x="544" y="688"/>
			<point x="466" y="760"/>
			<point x="310" y="760" type="curve" smooth="yes"/>
			<point x="120" y="760"/>
			<point x="43" y="652"/>
			<point x="43" y="522" type="curve" smooth="yes"/>
			<point x="43" y="0" type="line"/>
			<point x="210" y="0" type="line"/>
			<point x="210" y="529" type="line" smooth="yes"/>
			<point x="210" y="592"/>
			<point x="240" y="630"/>
			<point x="297" y="630" type="curve" smooth="yes"/>
			<point x="354" y="630"/>
			<point x="382" y="600"/>
			<point x="382" y="541" type="curve" smooth="yes"/>
			<point x="382" y="483"/>
			<point x="355" y="436"/>
			<point x="294" y="436" type="curve" smooth="yes"/>
			<point x="261" y="436" type="line"/>
			<point x="261" y="302" type="line"/>
			<point x="298" y="302" type="line" smooth="yes"/>
			<point x="363" y="302"/>
			<point x="400" y="275"/>
			<point x="400" y="204" type="curve" smooth="yes"/>
			<point x="400" y="142"/>
			<point x="369" y="111"/>
			<point x="314" y="111" type="curve" smooth="yes"/>
			<point x="296" y="111"/>
			<point x="279" y="115"/>
			<point x="266" y="121" type="curve"/>
			<point x="266" y="7" type="line"/>
			<point x="284" y="-1"/>
			<point x="319" y="-9"/>
		</contour>
	</outline>
</glyph>
<glyph name="ae" format="2">
	<unicode hex="00E6"/>
	<advance width="600"/>
	<outline>
		<contour>
			<point x="126" y="-14" type="curve" smooth="yes"/>
			<point x="185" y="-14"/>
			<point x="225" y="20"/>
			<point x="251" y="97" type="curve"/>
			<point x="281" y="24"/>
			<point x="340" y="-14"/>
			<point x="427" y="-14" type="curve" smooth="yes"/>
			<point x="490" y="-14"/>
			<point x="536" y="3"/>
			<point x="567" y="23" type="curve"/>
			<point x="567" y="141" type="line"/>
			<point x="532" y="123"/>
			<point x="491" y="113"/>
			<point x="456" y="113" type="curve" smooth="yes"/>
			<point x="387" y="113"/>
			<point x="357" y="145"/>
			<point x="353" y="220" type="curve"/>
			<point x="589" y="220" type="line"/>
			<point x="589" y="282" type="line" smooth="yes"/>
			<point x="589" y="450"/>
			<point x="536" y="537"/>
			<point x="422" y="537" type="curve" smooth="yes"/>
			<point x="378" y="537"/>
			<point x="340" y="520"/>
			<point x="310" y="489" type="curve"/>
			<point x="281" y="521"/>
			<point x="243" y="537"/>
			<point x="182" y="537" type="curve" smooth="yes"/>
			<point x="114" y="537"/>
			<point x="59" y="512"/>
			<point x="24" y="488" type="curve"/>
			<point x="24" y="359" type="line"/>
			<point x="60" y="387"/>
			<point x="114" y="411"/>
			<point x="162" y="411" type="curve" smooth="yes"/>
			<point x="213" y="411"/>
			<point x="233" y="388"/>
			<point x="233" y="335" type="curve" smooth="yes"/>
			<point x="233" y="321" type="line"/>
			<point x="179" y="312" type="line" smooth="yes"/>
			<point x="66" y="292"/>
			<point x="11" y="231"/>
			<point x="11" y="127" type="curve" smooth="yes"/>
			<point x="11" y="36"/>
			<point x="59" y="-14"/>
		</contour>
		<contour>
			<point x="413" y="423" type="curve" smooth="yes"/>
			<point x="447" y="423"/>
			<point x="465" y="387"/>
			<point x="465" y="310" type="curve"/>
			<point x="352" y="310" type="line"/>
			<point x="353" y="383"/>
			<point x="373" y="423"/>
		</contour>
		<contour>
			<point x="132" y="152" type="curve" smooth="yes"/>
			<point x="132" y="195"/>
			<point x="153" y="217"/>
			<point x="189" y="225" type="curve" smooth="yes"/>
			<point x="233" y="234" type="line"/>
			<point x="233" y="165" type="line" smooth="yes"/>
			<point x="233" y="121"/>
			<point x="215" y="92"/>
			<point x="181" y="92" type="curve" smooth="yes"/>
			<point x="152" y="92"/>
			<point x="132" y="114"/>
		</contour>
	</outline>
	<anchor name="top" x="305" y="523"/>
</glyph>
<glyph name="Dcroat" format="2">
	<unicode hex="0110"/>
	<advance width="600"/>
	<outline>
		<contour>
			<point x="50" y="0" type="line"/>
			<point x="305" y="0" type="line" smooth="yes"/>
			<point x="482" y="0"/>
			<point x="575" y="105"/>
			<point x="575" y="335" type="curve" smooth="yes"/>
			<point x="575" y="349" type="line" smooth="yes"/>
			<point x="575" y="580"/>
			<point x="476" y="684"/>
			<point x="299" y="684" type="curve" smooth="yes"/>
			<point x="50" y="684" type="line"/>
			<point x="50" y="393" type="line"/>
			<point x="0" y="393" type="line"/>
			<point x="0" y="285" type="line"/>
			<point x="50" y="285" type="line"/>
		</contour>
		<contour>
			<point x="276" y="548" type="line" smooth="yes"/>
			<point x="365" y="548"/>
			<point x="399" y="491"/>
			<point x="399" y="348" type="curve" smooth="yes"/>
			<point x="399" y="336" type="line" smooth="yes"/>
			<point x="399" y="194"/>
			<point x="371" y="137"/>
			<point x="280" y="137" type="curve" smooth="yes"/>
			<point x="219" y="137" type="line"/>
			<point x="219" y="285" type="line"/>
			<point x="318" y="285" type="line"/>
			<point x="318" y="393" type="line"/>
			<point x="219" y="393" type="line"/>
			<point x="219" y="548" type="line"/>
		</contour>
	</outline>
</glyph>
<glyph name="Ldot" format="2">
	<unicode hex="013F"/>
	<advance width="600"/>
	<outline>
		<contour>
			<point x="79" y="0" type="line"/>
			<point x="559" y="0" type="line"/>
			<point x="559" y="155" type="line"/>
			<point x="249" y="155" type="line"/>
			<point x="249" y="684" type="line"/>
			<point x="79" y="684" type="line"/>
		</contour>
		<contour>
			<point x="463" y="311" type="curve" smooth="yes"/>
			<point x="529" y="311"/>
			<point x="564" y="343"/>
			<point x="564" y="427" type="curve" smooth="yes"/>
			<point x="564" y="511"/>
			<point x="529" y="542"/>
			<point x="463" y="542" type="curve" smooth="yes"/>
			<point x="398" y="542"/>
			<point x="364" y="511"/>
			<point x="364" y="427" type="curve" smooth="yes"/>
			<point x="364" y="343"/>
			<point x="398" y="311"/>
		</contour>
	</outline>
</glyph>
<glyph name="ldot" format="2">
	<unicode hex="0140"/>
	<advance width="600"/>
	<outline>
		<contour>
			<point x="60" y="0" type="line"/>
			<point x="552" y="0" type="line"/>
			<point x="552" y="129" type="line"/>
			<point x="396" y="129" type="line"/>
			<point x="396" y="750" type="line"/>
			<point x="61" y="750" type="line"/>
			<point x="61" y="621" type="line"/>
			<point x="228" y="621" type="line"/>
			<point x="228" y="129" type="line"/>
			<point x="60" y="129" type="line"/>
		</contour>
		<contour>
			<point x="603" y="266" type="curve" smooth="yes"/>
			<point x="665" y="266"/>
			<point x="697" y="296"/>
			<point x="697" y="378" type="curve" smooth="yes"/>
			<point x="697" y="458"/>
			<point x="665" y="488"/>
			<point x="603" y="488" type="curve" smooth="yes"/>
			<point x="540" y="488"/>
			<point x="508" y="459"/>
			<point x="508" y="378" type="curve" smooth="yes"/>
			<point x="508" y="296"/>
			<point x="540" y="266"/>
		</contour>
	</outline>
</glyph>
<glyph name="OE" format="2">
	<unicode hex="0152"/>
	<advance width="600"/>
	<outline>
		<contour>
			<point x="177" y="-13" type="curve" smooth="yes"/>
			<point x="227" y="-13"/>
			<point x="265" y="20"/>
			<point x="294" y="100" type="curve"/>
			<point x="295" y="0" type="line"/>
			<point x="578" y="0" type="line"/>
			<point x="578" y="134" type="line"/>
			<point x="431" y="134" type="line"/>
			<point x="431" y="276" type="line"/>
			<point x="546" y="276" type="line"/>
			<point x="546" y="408" type="line"/>
			<point x="431" y="408" type="line"/>
			<point x="431" y="551" type="line"/>
			<point x="576" y="551" type="line"/>
			<point x="576" y="684" type="line"/>
			<point x="260" y="684" type="line" smooth="yes"/>
			<point x="95" y="684"/>
			<point x="27" y="558"/>
			<point x="27" y="322" type="curve" smooth="yes"/>
			<point x="27" y="308" type="line" smooth="yes"/>
			<point x="27" y="93"/>
			<point x="73" y="-13"/>
		</contour>
		<contour>
			<point x="235" y="126" type="curve" smooth="yes"/>
			<point x="191" y="126"/>
			<point x="171" y="170"/>
			<point x="171" y="313" type="curve" smooth="yes"/>
			<point x="171" y="320" type="line" smooth="yes"/>
			<point x="171" y="469"/>
			<point x="188" y="551"/>
			<point x="268" y="551" type="curve" smooth="yes"/>
			<point x="291" y="551" type="line"/>
			<point x="291" y="220" type="line" smooth="yes"/>
			<point x="291" y="157"/>
			<point x="271" y="126"/>
		</contour>
	</outline>
</glyph>
<glyph name="tbar" format="2">
	<unicode hex="0167"/>
	<advance width="600"/>
	<outline>
		<contour>
			<point x="51" y="224" type="line"/>
			<point x="174" y="224" type="line"/>
			<point x="174" y="174" type="line" smooth="yes"/>
			<point x="174" y="39"/>
			<point x="244" y="-12"/>
			<point x="376" y="-12" type="curve" smooth="yes"/>
			<point x="435" y="-12"/>
			<point x="487" y="1"/>
			<point x="519" y="18" type="curve"/>
			<point x="519" y="135" type="line"/>
			<point x="493" y="124"/>
			<point x="457" y="119"/>
			<point x="431" y="119" type="curve" smooth="yes"/>
			<point x="375" y="119"/>
			<point x="341" y="137"/>
			<point x="341" y="201" type="curve" smooth="yes"/>
			<point x="341" y="224" type="line"/>
			<point x="515" y="224" type="line"/>
			<point x="515" y="321" type="line"/>
			<point x="341" y="321" type="line"/>
			<point x="341" y="394" type="line"/>
			<point x="527" y="394" type="line"/>
			<point x="527" y="523" type="line"/>
			<point x="342" y="523" type="line"/>
			<point x="342" y="692" type="line"/>
			<point x="191" y="692" type="line"/>
			<point x="184" y="589" type="line" smooth="yes"/>
			<point x="180" y="531"/>
			<point x="148" y="517"/>
			<point x="109" y="517" type="curve" smooth="yes"/>
			<point x="41" y="517" type="line"/>
			<point x="41" y="394" type="line"/>
			<point x="174" y="394" type="line"/>
			<point x="174" y="321" type="line"/>
			<point x="51" y="321" type="line"/>
		</contour>
	</outline>
</glyph>
<glyph name="Uogonek" format="2">
	<unicode hex="0172"/>
	<advance width="600"/>
	<outline>
		<contour>
			<point x="332" y="-203" type="curve" smooth="yes"/>
			<point x="366" y="-203"/>
			<point x="392" y="-198"/>
			<point x="410" y="-192" type="curve"/>
			<point x="410" y="-93" type="line"/>
			<point x="407" y="-94"/>
			<point x="397" y="-95"/>
			<point x="383" y="-95" type="curve" smooth="yes"/>
			<point x="355" y="-95"/>
			<point x="333" y="-86"/>
			<point x="333" y="-60" type="curve" smooth="yes"/>
			<point x="333" y="-36"/>
			<point x="352" y="-14"/>
			<point x="401" y="0" type="curve"/>
			<point x="400" y="0" type="line"/>
			<point x="500" y="30"/>
			<point x="551" y="107"/>
			<point x="551" y="233" type="curve" smooth="yes"/>
			<point x="551" y="684" type="line"/>
			<point x="382" y="684" type="line"/>
			<point x="382" y="233" type="line" smooth="yes"/>
			<point x="382" y="164"/>
			<point x="352" y="127"/>
			<point x="300" y="127" type="curve" smooth="yes"/>
			<point x="248" y="127"/>
			<point x="218" y="164"/>
			<point x="218" y="233" type="curve" smooth="yes"/>
			<point x="218" y="684" type="line"/>
			<point x="49" y="684" type="line"/>
			<point x="49" y="233" type="line" smooth="yes"/>
			<point x="49" y="74"/>
			<point x="121" y="-6"/>
			<point x="270" y="-13" type="curve"/>
			<point x="228" y="-37"/>
			<point x="203" y="-71"/>
			<point x="203" y="-111" type="curve" smooth="yes"/>
			<point x="203" y="-169"/>
			<point x="243" y="-203"/>
		</contour>
	</outline>
</glyph>
<glyph name="dotlessj" format="2">
	<unicode hex="0237"/>
	<advance width="600"/>
	<outline>
		<contour>
			<point x="221" y="-204" type="curve" smooth="yes"/>
			<point x="368" y="-204"/>
			<point x="486" y="-157"/>
			<point x="486" y="24" type="curve" smooth="yes"/>
			<point x="486" y="523" type="line"/>
			<point x="72" y="523" type="line"/>
			<point x="72" y="394" type="line"/>
			<point x="319" y="394" type="line"/>
			<point x="319" y="38" type="line" smooth="yes"/>
			<point x="319" y="-44"/>
			<point x="278" y="-70"/>
			<point x="190" y="-70" type="curve" smooth="yes"/>
			<point x="143" y="-70"/>
			<point x="100" y="-62"/>
			<point x="71" y="-53" type="curve"/>
			<point x="71" y="-181" type="line"/>
			<point x="106" y="-195"/>
			<point x="166" y="-204"/>
		</contour>
	</outline>
	<anchor name="top" x="403" y="523"/>
</glyph>
<glyph name="caron" format="2">
	<unicode hex="02C7"/>
	<advance width="600"/>
	<outline>
		<contour>
			<point x="499" y="750" type="line"/>
			<point x="356" y="750" type="line"/>
			<point x="301" y="664" type="line"/>
			<point x="245" y="750" type="line"/>
			<point x="101" y="750" type="line"/>
			<point x="211" y="599" type="line"/>
			<point x="391" y="599" type="line"/>
		</contour>
	</outline>
	<anchor name="_top" x="302" y="523"/>
</glyph>
<glyph name="ring" format="2">
	<unicode hex="02DA"/>
	<advance width="600"/>
	<outline>
		<contour>
			<point x="300" y="587" type="curve" smooth="yes"/>
			<point x="387" y="587"/>
			<point x="442" y="629"/>
			<point x="442" y="716" type="curve" smooth="yes"/>
			<point x="442" y="802"/>
			<point x="387" y="844"/>
			<point x="301" y="844" type="curve" smooth="yes"/>
			<point x="215" y="844"/>
			<point x="158" y="803"/>
			<point x="158" y="715" type="curve" smooth="yes"/>
			<point x="158" y="628"/>
			<point x="213" y="587"/>
		</contour>
		<contour>
			<point x="300" y="657" type="curve" smooth="yes"/>
			<point x="262" y="657"/>
			<point x="242" y="677"/>
			<point x="242" y="715" type="curve" smooth="yes"/>
			<point x="242" y="754"/>
			<point x="263" y="774"/>
			<point x="301" y="774" type="curve" smooth="yes"/>
			<point x="338" y="774"/>
			<point x="358" y="754"/>
			<point x="358" y="715" type="curve" smooth="yes"/>
			<point x="358" y="677"/>
			<point x="337" y="657"/>
		</contour>
	</outline>
	<anchor name="_top" x="300" y="523"/>
</glyph>
<glyph name="ogonek" format="2">
	<unicode hex="02DB"/>
	<advance width="600"/>
	<outline>
		<contour>
			<point x="324" y="-203" type="curve" smooth="yes"/>
			<point x="358" y="-203"/>
			<point x="384" y="-198"/>
			<point x="402" y="-192" type="curve"/>
			<point x="402" y="-93" type="line"/>
			<point x="399" y="-94"/>
			<point x="389" y="-95"/>
			<point x="375" y="-95" type="curve" smooth="yes"/>
			<point x="347" y="-95"/>
			<point x="325" y="-86"/>
			<point x="325" y="-60" type="curve" smooth="yes"/>
			<point x="325" y="-36"/>
			<point x="344" y="-14"/>
			<point x="393" y="0" type="curve"/>
			<point x="291" y="0" type="line"/>
			<point x="231" y="-23"/>
			<point x="195" y="-62"/>
			<point x="195" y="-111" type="curve" smooth="yes"/>
			<point x="195" y="-169"/>
			<point x="235" y="-203"/>
		</contour>
	</outline>
	<anchor name="_ogonek" x="393" y="0"/>
</glyph>
<glyph name="tilde" format="2">
	<unicode hex="02DC"/>
	<advance width="600"/>
	<outline>
		<contour>
			<point x="105" y="603" type="curve"/>
			<point x="214" y="603" type="line"/>
			<point x="214" y="636"/>
			<point x="223" y="655"/>
			<point x="246" y="655" type="curve" smooth="yes"/>
			<point x="283" y="655"/>
			<point x="304" y="599"/>
			<point x="377" y="599" type="curve" smooth="yes"/>
			<point x="442" y="599"/>
			<point x="494" y="637"/>
			<point x="494" y="749" type="curve"/>
			<point x="384" y="749" type="line"/>
			<point x="384" y="717"/>
			<point x="375" y="700"/>
			<point x="354" y="700" type="curve" smooth="yes"/>
			<point x="320" y="700"/>
			<point x="288" y="753"/>
			<point x="219" y="753" type="curve" smooth="yes"/>
			<point x="154" y="753"/>
			<point x="105" y="709"/>
		</contour>
	</outline>
	<anchor name="_top" x="300" y="523"/>
</glyph>
<glyph name="pi" format="2">
	<unicode hex="03C0"/>
	<advance width="600"/>
	<outline>
		<contour>
			<point x="77" y="0" type="line"/>
			<point x="232" y="0" type="line"/>
			<point x="232" y="395" type="line"/>
			<point x="348" y="395" type="line"/>
			<point x="348" y="133" type="line" smooth="yes"/>
			<point x="348" y="41"/>
			<point x="386" y="-12"/>
			<point x="492" y="-12" type="curve" smooth="yes"/>
			<point x="526" y="-12"/>
			<point x="563" y="-6"/>
			<point x="581" y="1" type="curve"/>
			<point x="581" y="111" type="line"/>
			<point x="579" y="110"/>
			<point x="568" y="108"/>
			<point x="556" y="108" type="curve" smooth="yes"/>
			<point x="523" y="108"/>
			<point x="504" y="124"/>
			<point x="504" y="153" type="curve" smooth="yes"/>
			<point x="504" y="395" type="line"/>
			<point x="581" y="395" type="line"/>
			<point x="581" y="523" type="line"/>
			<point x="9" y="523" type="line"/>
			<point x="9" y="395" type="line"/>
			<point x="77" y="395" type="line"/>
		</contour>
	</outline>
</glyph>
<glyph name="quoteright" format="2">
	<unicode hex="2019"/>
	<advance width="600"/>
	<outline>
		<contour>
			<point x="237" y="750" type="line"/>
			<point x="195" y="438" type="line"/>
			<point x="303" y="438" type="line"/>
			<point x="422" y="750" type="line"/>
		</contour>
	</outline>
</glyph>
<glyph name="quotedblleft" format="2">
	<unicode hex="201C"/>
	<advance width="600"/>
	<outline>
		<contour>
			<point x="469" y="438" type="line"/>
			<point x="510" y="750" type="line"/>
			<point x="404" y="750" type="line"/>
			<point x="289" y="438" type="line"/>
		</contour>
		<contour>
			<point x="239" y="438" type="line"/>
			<point x="280" y="750" type="line"/>
			<point x="174" y="750" type="line"/>
			<point x="58" y="438" type="line"/>
		</contour>
	</outline>
</glyph>
<glyph name="quotedblright" format="2">
	<unicode hex="201D"/>
	<advance width="600"/>
	<outline>
		<contour>
			<point x="131" y="750" type="line"/>
			<point x="90" y="438" type="line"/>
			<point x="195" y="438" type="line"/>
			<point x="311" y="750" type="line"/>
		</contour>
		<contour>
			<point x="362" y="750" type="line"/>
			<point x="320" y="438" type="line"/>
			<point x="426" y="438" type="line"/>
			<point x="541" y="750" type="line"/>
		</contour>
	</outline>
</glyph>
<glyph name="bullet" format="2">
	<unicode hex="2022"/>
	<advance width="600"/>
	<outline>
		<contour>
			<point x="300" y="123" type="curve" smooth="yes"/>
			<point x="402" y="123"/>
			<point x="455" y="168"/>
			<point x="455" y="286" type="curve" smooth="yes"/>
			<point x="455" y="403"/>
			<point x="402" y="448"/>
			<point x="300" y="448" type="curve" smooth="yes"/>
			<point x="198" y="448"/>
			<point x="145" y="403"/>
			<point x="145" y="286" type="curve" smooth="yes"/>
			<point x="145" y="168"/>
			<point x="198" y="123"/>
		</contour>
	</outline>
</glyph>
<glyph name="perthousand" format="2">
	<unicode hex="2030"/>
	<advance width="600"/>
	<outline>
		<contour>
			<point x="152" y="393" type="curve" smooth="yes"/>
			<point x="239" y="393"/>
			<point x="296" y="440"/>
			<point x="296" y="542" type="curve" smooth="yes"/>
			<point x="296" y="644"/>
			<point x="240" y="691"/>
			<point x="153" y="691" type="curve" smooth="yes"/>
			<point x="68" y="691"/>
			<point x="9" y="644"/>
			<point x="9" y="542" type="curve" smooth="yes"/>
			<point x="9" y="440"/>
			<point x="67" y="393"/>
		</contour>
		<contour>
			<point x="152" y="472" type="curve" smooth="yes"/>
			<point x="121" y="472"/>
			<point x="108" y="493"/>
			<point x="108" y="542" type="curve" smooth="yes"/>
			<point x="108" y="590"/>
			<point x="121" y="613"/>
			<point x="153" y="613" type="curve" smooth="yes"/>
			<point x="184" y="613"/>
			<point x="197" y="590"/>
			<point x="197" y="542" type="curve" smooth="yes"/>
			<point x="197" y="493"/>
			<point x="185" y="472"/>
		</contour>
		<contour>
			<point x="17" y="260" type="line"/>
			<point x="575" y="397" type="line"/>
			<point x="575" y="469" type="line"/>
			<point x="17" y="331" type="line"/>
		</contour>
		<contour>
			<point x="256" y="-7" type="curve" smooth="yes"/>
			<point x="296" y="-7"/>
			<point x="329" y="4"/>
			<point x="354" y="23" type="curve"/>
			<point x="378" y="4"/>
			<point x="412" y="-7"/>
			<point x="451" y="-7" type="curve" smooth="yes"/>
			<point x="536" y="-7"/>
			<point x="592" y="40"/>
			<point x="592" y="142" type="curve" smooth="yes"/>
			<point x="592" y="244"/>
			<point x="535" y="291"/>
			<point x="452" y="291" type="curve" smooth="yes"/>
			<point x="412" y="291"/>
			<point x="379" y="278"/>
			<point x="354" y="260" type="curve"/>
			<point x="330" y="278"/>
			<point x="298" y="291"/>
			<point x="254" y="291" type="curve" smooth="yes"/>
			<point x="173" y="291"/>
			<point x="115" y="244"/>
			<point x="115" y="142" type="curve" smooth="yes"/>
			<point x="115" y="40"/>
			<point x="171" y="-7"/>
		</contour>
		<contour>
			<point x="259" y="72" type="curve" smooth="yes"/>
			<point x="227" y="72"/>
			<point x="215" y="93"/>
			<point x="215" y="142" type="curve" smooth="yes"/>
			<point x="215" y="190"/>
			<point x="228" y="213"/>
			<point x="259" y="213" type="curve" smooth="yes"/>
			<point x="291" y="213"/>
			<point x="304" y="190"/>
			<point x="304" y="142" type="curve" smooth="yes"/>
			<point x="304" y="93"/>
			<point x="291" y="72"/>
		</contour>
		<contour>
			<point x="448" y="72" type="curve" smooth="yes"/>
			<point x="417" y="72"/>
			<point x="404" y="93"/>
			<point x="404" y="142" type="curve" smooth="yes"/>
			<point x="404" y="190"/>
			<point x="417" y="213"/>
			<point x="448" y="213" type="curve" smooth="yes"/>
			<point x="480" y="213"/>
			<point x="493" y="190"/>
			<point x="493" y="142" type="curve" smooth="yes"/>
			<point x="493" y="93"/>
			<point x="480" y="72"/>
		</contour>
	</outline>
</glyph>
<glyph name="guilsinglleft" format="2">
	<unicode hex="2039"/>
	<advance width="600"/>
	<outline>
		<contour>
			<point x="291" y="77" type="line"/>
			<point x="493" y="77" type="line"/>
			<point x="296" y="290" type="line"/>
			<point x="493" y="497" type="line"/>
			<point x="293" y="497" type="line"/>
			<point x="95" y="287" type="line"/>
		</contour>
	</outline>
</glyph>
<glyph name="fraction" format="2">
	<unicode hex="2044"/>
	<advance width="600"/>
	<outline>
		<contour>
			<point x="373" y="410" type="line"/>
			<point x="486" y="410" type="line"/>
			<point x="578" y="684" type="line"/>
			<point x="440" y="684" type="line"/>
		</contour>
		<contour>
			<point x="22" y="0" type="line"/>
			<point x="160" y="0" type="line"/>
			<point x="228" y="275" type="line"/>
			<point x="114" y="275" type="line"/>
		</contour>
	</outline>
</glyph>
<glyph name="servicemark" format="2">
	<unicode hex="2120"/>
	<advance width="600"/>
	<outline>
		<contour>
			<point x="131" y="337" type="curve" smooth="yes"/>
			<point x="211" y="337"/>
			<point x="256" y="380"/>
			<point x="256" y="455" type="curve" smooth="yes"/>
			<point x="256" y="528"/>
			<point x="203" y="544"/>
			<point x="146" y="557" type="curve" smooth="yes"/>
			<point x="116" y="563"/>
			<point x="97" y="569"/>
			<point x="97" y="590" type="curve" smooth="yes"/>
			<point x="97" y="611"/>
			<point x="112" y="622"/>
			<point x="142" y="622" type="curve" smooth="yes"/>
			<point x="181" y="622"/>
			<point x="224" y="606"/>
			<point x="251" y="587" type="curve"/>
			<point x="251" y="663" type="line"/>
			<point x="231" y="675"/>
			<point x="193" y="689"/>
			<point x="141" y="689" type="curve" smooth="yes"/>
			<point x="62" y="689"/>
			<point x="15" y="646"/>
			<point x="15" y="577" type="curve" smooth="yes"/>
			<point x="15" y="499"/>
			<point x="66" y="487"/>
			<point x="126" y="475" type="curve" smooth="yes"/>
			<point x="162" y="468"/>
			<point x="174" y="460"/>
			<point x="174" y="440" type="curve" smooth="yes"/>
			<point x="174" y="418"/>
			<point x="159" y="405"/>
			<point x="131" y="405" type="curve" smooth="yes"/>
			<point x="98" y="405"/>
			<point x="52" y="420"/>
			<point x="21" y="442" type="curve"/>
			<point x="21" y="367" type="line"/>
			<point x="43" y="353"/>
			<point x="81" y="337"/>
		</contour>
		<contour>
			<point x="290" y="342" type="line"/>
			<point x="362" y="342" type="line"/>
			<point x="362" y="439" type="line" smooth="yes"/>
			<point x="362" y="498"/>
			<point x="358" y="550"/>
			<point x="351" y="601" type="curve"/>
			<point x="357" y="601" type="line"/>
			<point x="399" y="428" type="line"/>
			<point x="463" y="428" type="line"/>
			<point x="506" y="601" type="line"/>
			<point x="511" y="601" type="line"/>
			<point x="505" y="548"/>
			<point x="502" y="501"/>
			<point x="502" y="440" type="curve" smooth="yes"/>
			<point x="502" y="342" type="line"/>
			<point x="574" y="342" type="line"/>
			<point x="574" y="684" type="line"/>
			<point x="469" y="684" type="line"/>
			<point x="433" y="511" type="line"/>
			<point x="431" y="511" type="line"/>
			<point x="394" y="684" type="line"/>
			<point x="290" y="684" type="line"/>
		</contour>
	</outline>
</glyph>
<glyph name="arrowright" format="2">
	<unicode hex="2192"/>
	<advance width="600"/>
	<outline>
		<contour>
			<point x="201" y="569" type="line"/>
			<point x="365" y="409" type="line"/>
			<point x="26" y="409" type="line"/>
			<point x="26" y="277" type="line"/>
			<point x="365" y="277" type="line"/>
			<point x="204" y="118" type="line"/>
			<point x="368" y="118" type="line"/>
			<point x="592" y="343" type="line"/>
			<point x="365" y="569" type="line"/>
		</contour>
	</outline>
</glyph>
<glyph name="uni2196" format="2">
	<unicode hex="2196"/>
	<advance width="600"/>
	<outline>
		<contour>
			<point x="495" y="63" type="line"/>
			<point x="588" y="157" type="line"/>
			<point x="248" y="495" type="line"/>
			<point x="480" y="494" type="line"/>
			<point x="364" y="610" type="line"/>
			<point x="42" y="610" type="line"/>
			<point x="42" y="285" type="line"/>
			<point x="156" y="170" type="line"/>
			<point x="154" y="403" type="line"/>
		</contour>
	</outline>
</glyph>
<glyph name="uni2199" format="2">
	<unicode hex="2199"/>
	<advance width="600"/>
	<outline>
		<contour>
			<point x="42" y="63" type="line"/>
			<point x="367" y="63" type="line"/>
			<point x="481" y="178" type="line"/>
			<point x="248" y="175" type="line"/>
			<point x="588" y="516" type="line"/>
			<point x="495" y="610" type="line"/>
			<point x="156" y="270" type="line"/>
			<point x="158" y="501" type="line"/>
			<point x="42" y="386" type="line"/>
		</contour>
	</outline>
</glyph>
<glyph name="increment" format="2">
	<unicode hex="2206"/>
	<advance width="600"/>
	<outline>
		<contour>
			<point x="6" y="0" type="line"/>
			<point x="594" y="0" type="line"/>
			<point x="420" y="685" type="line"/>
			<point x="179" y="685" type="line"/>
		</contour>
		<contour>
			<point x="209" y="138" type="line"/>
			<point x="299" y="564" type="line"/>
			<point x="390" y="138" type="line"/>
		</contour>
	</outline>
</glyph>
<glyph name="minus" format="2">
	<unicode hex="2212"/>
	<advance width="600"/>
	<outline>
		<contour>
			<point x="62" y="224" type="line"/>
			<point x="538" y="224" type="line"/>
			<point x="538" y="362" type="line"/>
			<point x="62" y="362" type="line"/>
		</contour>
	</outline>
</glyph>
<glyph name="infinity" format="2">
	<unicode hex="221E"/>
	<advance width="600"/>
	<outline>
		<contour>
			<point x="166" y="592" type="curve" smooth="yes"/>
			<point x="65" y="592"/>
			<point x="18" y="510"/>
			<point x="18" y="334" type="curve" smooth="yes"/>
			<point x="18" y="159"/>
			<point x="64" y="75"/>
			<point x="165" y="75" type="curve" smooth="yes"/>
			<point x="241" y="75"/>
			<point x="284" y="136"/>
			<point x="300" y="207" type="curve"/>
			<point x="316" y="137"/>
			<point x="355" y="74"/>
			<point x="435" y="74" type="curve" smooth="yes"/>
			<point x="537" y="74"/>
			<point x="582" y="157"/>
			<point x="582" y="332" type="curve" smooth="yes"/>
			<point x="582" y="506"/>
			<point x="537" y="591"/>
			<point x="436" y="591" type="curve" smooth="yes"/>
			<point x="360" y="591"/>
			<point x="318" y="536"/>
			<point x="301" y="460" type="curve"/>
			<point x="285" y="529"/>
			<point x="244" y="592"/>
		</contour>
		<contour>
			<point x="411" y="201" type="curve" smooth="yes"/>
			<point x="376" y="201"/>
			<point x="360" y="232"/>
			<point x="360" y="333" type="curve" smooth="yes"/>
			<point x="360" y="433"/>
			<point x="376" y="467"/>
			<point x="411" y="467" type="curve" smooth="yes"/>
			<point x="448" y="467"/>
			<point x="464" y="434"/>
			<point x="464" y="333" type="curve" smooth="yes"/>
			<point x="464" y="231"/>
			<point x="448" y="201"/>
		</contour>
		<contour>
			<point x="189" y="201" type="curve" smooth="yes"/>
			<point x="152" y="201"/>
			<point x="136" y="235"/>
			<point x="136" y="333" type="curve" smooth="yes"/>
			<point x="136" y="434"/>
			<point x="153" y="466"/>
			<point x="188" y="466" type="curve" smooth="yes"/>
			<point x="224" y="466"/>
			<point x="240" y="434"/>
			<point x="240" y="333" type="curve" smooth="yes"/>
			<point x="240" y="234"/>
			<point x="224" y="201"/>
		</contour>
	</outline>
</glyph>
<glyph name="notequal" format="2">
	<unicode hex="2260"/>
	<advance width="600"/>
	<outline>
		<contour>
			<point x="112" y="38" type="line"/>
			<point x="226" y="38" type="line"/>
			<point x="263" y="109" type="line"/>
			<point x="538" y="109" type="line"/>
			<point x="538" y="247" type="line"/>
			<point x="334" y="247" type="line"/>
			<point x="380" y="336" type="line"/>
			<point x="538" y="336" type="line"/>
			<point x="538" y="474" type="line"/>
			<point x="452" y="474" type="line"/>
			<point x="488" y="544" type="line"/>
			<point x="374" y="544" type="line"/>
			<point x="338" y="474" type="line"/>
			<point x="62" y="474" type="line"/>
			<point x="62" y="336" type="line"/>
			<point x="266" y="336" type="line"/>
			<point x="220" y="247" type="line"/>
			<point x="62" y="247" type="line"/>
			<point x="62" y="109" type="line"/>
			<point x="149" y="109" type="line"/>
		</contour>
	</outline>
</glyph>
<glyph name="lessequal" format="2">
	<unicode hex="2264"/>
	<advance width="600"/>
	<outline>
		<contour>
			<point x="538" y="174" type="line"/>
			<point x="538" y="323" type="line"/>
			<point x="192" y="437" type="line"/>
			<point x="538" y="547" type="line"/>
			<point x="538" y="698" type="line"/>
			<point x="62" y="526" type="line"/>
			<point x="62" y="343" type="line"/>
		</contour>
		<contour>
			<point x="62" y="0" type="line"/>
			<point x="538" y="0" type="line"/>
			<point x="538" y="138" type="line"/>
			<point x="62" y="138" type="line"/>
		</contour>
	</outline>
</glyph>
<glyph name="lozenge" format="2">
	<unicode hex="25CA"/>
	<advance width="600"/>
	<outline>
		<contour>
			<point x="191" y="0" type="line"/>
			<point x="408" y="0" type="line"/>
			<point x="590" y="342" type="line"/>
			<point x="408" y="684" type="line"/>
			<point x="191" y="684" type="line"/>
			<point x="10" y="342" type="line"/>
		</contour>
		<contour>
			<point x="187" y="342" type="line"/>
			<point x="299" y="566" type="line"/>
			<point x="413" y="342" type="line"/>
			<point x="300" y="115" type="line"/>
		</contour>
	</outline>
</glyph>
<glyph name="anglebracketright" format="2">
	<unicode hex="3009"/>
	<advance width="600"/>
	<outline>
		<contour>
			<point x="41" y="-163" type="line"/>
			<point x="220" y="-163" type="line"/>
			<point x="489" y="314" type="line"/>
			<point x="227" y="792" type="line"/>
			<point x="49" y="792" type="line"/>
			<point x="315" y="314" type="line"/>
		</contour>
	</outline>
</glyph>
<glyph name="Anocross" format="2">
	<advance width="600"/>
	<outline>
		<contour>
			<point x="6" y="0" type="line"/>
			<point x="179" y="0" type="line"/>
			<point x="299" y="562" type="line"/>
			<point x="420" y="0" type="line"/>
			<point x="594" y="0" type="line"/>
			<point x="422" y="685" type="line"/>
			<point x="179" y="685" type="line"/>
		</contour>
	</outline>
	<anchor name="ogonek" x="593" y="0"/>
	<anchor name="bottom" x="348" y="0"/>
	<anchor name="top" x="300" y="684"/>
</glyph>
<glyph name="Lslashcomb" format="2">
	<advance width="600"/>
	<outline>
		<contour>
			<point x="15" y="405" type="line"/>
			<point x="15" y="292" type="line"/>
			<point x="426" y="448" type="line"/>
			<point x="426" y="561" type="line"/>
		</contour>
	</outline>
	<anchor name="_center" x="179" y="408"/>
</glyph>
<glyph name="acute.cap" format="2">
	<advance width="600"/>
	<outline>
		<contour>
			<point x="186" y="743" type="line"/>
			<point x="309" y="743" type="line"/>
			<point x="413" y="884" type="line"/>
			<point x="235" y="884" type="line"/>
		</contour>
	</outline>
	<anchor name="_top" x="247" y="684"/>
</glyph>
<glyph name="ampersand_ampersand.cLig" format="2">
	<advance width="600"/>
	<outline>
		<contour>
			<point x="-311" y="-14" type="curve" smooth="yes"/>
			<point x="-226" y="-14"/>
			<point x="-157" y="16"/>
			<point x="-102" y="69" type="curve"/>
			<point x="-66" y="17"/>
			<point x="-2" y="-14"/>
			<point x="86" y="-14" type="curve" smooth="yes"/>
			<point x="169" y="-14"/>
			<point x="237" y="13"/>
			<point x="291" y="60" type="curve"/>
			<point x="346" y="0" type="line"/>
			<point x="531" y="0" type="line"/>
			<point x="378" y="169" type="line"/>
			<point x="416" y="238"/>
			<point x="441" y="321"/>
			<point x="454" y="409" type="curve"/>
			<point x="316" y="409" type="line"/>
			<point x="309" y="360"/>
			<point x="299" y="313"/>
			<point x="284" y="273" type="curve"/>
			<point x="171" y="398" type="line" smooth="yes"/>
			<point x="137" y="436"/>
			<point x="123" y="465"/>
			<point x="123" y="496" type="curve" smooth="yes"/>
			<point x="123" y="539"/>
			<point x="152" y="565"/>
			<point x="204" y="565" type="curve" smooth="yes"/>
			<point x="247" y="565"/>
			<point x="286" y="548"/>
			<point x="319" y="531" type="curve"/>
			<point x="319" y="670" type="line"/>
			<point x="289" y="685"/>
			<point x="242" y="698"/>
			<point x="189" y="698" type="curve" smooth="yes"/>
			<point x="40" y="698"/>
			<point x="-30" y="609"/>
			<point x="-30" y="504" type="curve" smooth="yes"/>
			<point x="-30" y="467"/>
			<point x="-23" y="435"/>
			<point x="-8" y="405" type="curve"/>
			<point x="-59" y="376"/>
			<point x="-96" y="335"/>
			<point x="-117" y="284" type="curve"/>
			<point x="-224" y="398" type="line" smooth="yes"/>
			<point x="-258" y="435"/>
			<point x="-272" y="465"/>
			<point x="-272" y="496" type="curve" smooth="yes"/>
			<point x="-272" y="539"/>
			<point x="-243" y="565"/>
			<point x="-195" y="565" type="curve" smooth="yes"/>
			<point x="-149" y="565"/>
			<point x="-112" y="548"/>
			<point x="-80" y="532" type="curve"/>
			<point x="-80" y="671" type="line"/>
			<point x="-109" y="685"/>
			<point x="-153" y="698"/>
			<point x="-210" y="698" type="curve" smooth="yes"/>
			<point x="-355" y="698"/>
			<point x="-425" y="609"/>
			<point x="-425" y="504" type="curve" smooth="yes"/>
			<point x="-425" y="466"/>
			<point x="-418" y="433"/>
			<point x="-403" y="402" type="curve"/>
			<point x="-478" y="356"/>
			<point x="-525" y="284"/>
			<point x="-525" y="186" type="curve" smooth="yes"/>
			<point x="-525" y="66"/>
			<point x="-448" y="-14"/>
		</contour>
		<contour>
			<point x="8" y="209" type="curve" smooth="yes"/>
			<point x="8" y="252"/>
			<point x="29" y="287"/>
			<point x="64" y="307" type="curve"/>
			<point x="209" y="149" type="line"/>
			<point x="182" y="125"/>
			<point x="151" y="112"/>
			<point x="114" y="112" type="curve" smooth="yes"/>
			<point x="47" y="112"/>
			<point x="8" y="153"/>
		</contour>
		<contour>
			<point x="-382" y="209" type="curve" smooth="yes"/>
			<point x="-382" y="251"/>
			<point x="-362" y="285"/>
			<point x="-328" y="305" type="curve"/>
			<point x="-184" y="158" type="line"/>
			<point x="-211" y="129"/>
			<point x="-243" y="112"/>
			<point x="-283" y="112" type="curve" smooth="yes"/>
			<point x="-345" y="112"/>
			<point x="-382" y="151"/>
		</contour>
	</outline>
</glyph>
<glyph name="ampersand_ampersand_ampersand.rem" format="2">
	<advance width="600"/>
	<outline>
		<contour>
			<point x="-835" y="-14" type="curve" smooth="yes"/>
			<point x="-747" y="-14"/>
			<point x="-668" y="13"/>
			<point x="-610" y="65" type="curve"/>
			<point x="-573" y="15"/>
			<point x="-509" y="-14"/>
			<point x="-421" y="-14" type="curve" smooth="yes"/>
			<point x="-332" y="-14"/>
			<point x="-250" y="15"/>
			<point x="-192" y="70" type="curve"/>
			<point x="-156" y="17"/>
			<point x="-91" y="-14"/>
			<point x="-2" y="-14" type="curve" smooth="yes"/>
			<point x="85" y="-14"/>
			<point x="155" y="14"/>
			<point x="212" y="62" type="curve"/>
			<point x="270" y="0" type="line"/>
			<point x="455" y="0" type="line"/>
			<point x="299" y="168" type="line"/>
			<point x="339" y="237"/>
			<point x="365" y="321"/>
			<point x="378" y="410" type="curve"/>
			<point x="241" y="409" type="line"/>
			<point x="233" y="358"/>
			<point x="222" y="310"/>
			<point x="206" y="269" type="curve"/>
			<point x="86" y="398" type="line" smooth="yes"/>
			<point x="51" y="435"/>
			<point x="38" y="465"/>
			<point x="38" y="496" type="curve" smooth="yes"/>
			<point x="38" y="539"/>
			<point x="68" y="565"/>
			<point x="120" y="565" type="curve" smooth="yes"/>
			<point x="163" y="565"/>
			<point x="202" y="547"/>
			<point x="235" y="530" type="curve"/>
			<point x="235" y="670" type="line"/>
			<point x="205" y="685"/>
			<point x="158" y="698"/>
			<point x="105" y="698" type="curve" smooth="yes"/>
			<point x="-45" y="698"/>
			<point x="-115" y="609"/>
			<point x="-115" y="504" type="curve" smooth="yes"/>
			<point x="-115" y="467"/>
			<point x="-108" y="435"/>
			<point x="-94" y="405" type="curve"/>
			<point x="-149" y="374"/>
			<point x="-189" y="330"/>
			<point x="-210" y="272" type="curve"/>
			<point x="-333" y="398" type="line" smooth="yes"/>
			<point x="-368" y="435"/>
			<point x="-380" y="465"/>
			<point x="-380" y="496" type="curve" smooth="yes"/>
			<point x="-380" y="539"/>
			<point x="-350" y="565"/>
			<point x="-298" y="565" type="curve" smooth="yes"/>
			<point x="-255" y="565"/>
			<point x="-217" y="548"/>
			<point x="-185" y="531" type="curve"/>
			<point x="-185" y="671" type="line"/>
			<point x="-214" y="685"/>
			<point x="-259" y="698"/>
			<point x="-313" y="698" type="curve" smooth="yes"/>
			<point x="-463" y="698"/>
			<point x="-533" y="609"/>
			<point x="-533" y="504" type="curve" smooth="yes"/>
			<point x="-533" y="467"/>
			<point x="-527" y="434"/>
			<point x="-514" y="403" type="curve"/>
			<point x="-567" y="373"/>
			<point x="-608" y="331"/>
			<point x="-629" y="278" type="curve"/>
			<point x="-747" y="398" type="line" smooth="yes"/>
			<point x="-783" y="434"/>
			<point x="-795" y="465"/>
			<point x="-795" y="496" type="curve" smooth="yes"/>
			<point x="-795" y="539"/>
			<point x="-765" y="565"/>
			<point x="-713" y="565" type="curve" smooth="yes"/>
			<point x="-671" y="565"/>
			<point x="-633" y="548"/>
			<point x="-601" y="531" type="curve"/>
			<point x="-601" y="671" type="line"/>
			<point x="-630" y="685"/>
			<point x="-675" y="698"/>
			<point x="-728" y="698" type="curve" smooth="yes"/>
			<point x="-878" y="698"/>
			<point x="-949" y="609"/>
			<point x="-949" y="504" type="curve" smooth="yes"/>
			<point x="-949" y="466"/>
			<point x="-942" y="433"/>
			<point x="-928" y="402" type="curve"/>
			<point x="-1004" y="356"/>
			<point x="-1051" y="284"/>
			<point x="-1051" y="185" type="curve" smooth="yes"/>
			<point x="-1051" y="65"/>
			<point x="-973" y="-14"/>
		</contour>
		<contour>
			<point x="-81" y="207" type="curve" smooth="yes"/>
			<point x="-81" y="251"/>
			<point x="-57" y="287"/>
			<point x="-22" y="307" type="curve"/>
			<point x="128" y="150" type="line"/>
			<point x="99" y="126"/>
			<point x="65" y="112"/>
			<point x="26" y="112" type="curve" smooth="yes"/>
			<point x="-40" y="112"/>
			<point x="-81" y="151"/>
		</contour>
		<contour>
			<point x="-495" y="207" type="curve" smooth="yes"/>
			<point x="-495" y="252"/>
			<point x="-472" y="286"/>
			<point x="-438" y="306" type="curve"/>
			<point x="-282" y="158" type="line"/>
			<point x="-312" y="128"/>
			<point x="-350" y="112"/>
			<point x="-393" y="112" type="curve" smooth="yes"/>
			<point x="-456" y="112"/>
			<point x="-495" y="149"/>
		</contour>
		<contour>
			<point x="-908" y="207" type="curve" smooth="yes"/>
			<point x="-908" y="252"/>
			<point x="-886" y="286"/>
			<point x="-852" y="306" type="curve"/>
			<point x="-696" y="158" type="line"/>
			<point x="-726" y="128"/>
			<point x="-764" y="112"/>
			<point x="-807" y="112" type="curve" smooth="yes"/>
			<point x="-870" y="112"/>
			<point x="-908" y="149"/>
		</contour>
	</outline>
</glyph>
<glyph name="asciitilde_asciitilde_asciitilde.rem" format="2">
	<advance width="600"/>
	<outline>
		<contour>
			<point x="-606" y="178" type="curve"/>
			<point x="-498" y="178"/>
			<point x="-479" y="298"/>
			<point x="-407" y="298" type="curve" smooth="yes"/>
			<point x="-335" y="298"/>
			<point x="-304" y="178"/>
			<point x="-194" y="178" type="curve" smooth="yes"/>
			<point x="-83" y="178"/>
			<point x="-66" y="298"/>
			<point x="4" y="298" type="curve"/>
			<point x="79" y="298"/>
			<point x="111" y="178"/>
			<point x="229" y="178" type="curve"/>
			<point x="329" y="178"/>
			<point x="410" y="263"/>
			<point x="429" y="443" type="curve"/>
			<point x="298" y="443" type="line"/>
			<point x="288" y="378"/>
			<point x="262" y="334"/>
			<point x="211" y="334" type="curve"/>
			<point x="140" y="334"/>
			<point x="127" y="451"/>
			<point x="8" y="451" type="curve"/>
			<point x="-110" y="451"/>
			<point x="-129" y="335"/>
			<point x="-194" y="335" type="curve" smooth="yes"/>
			<point x="-268" y="335"/>
			<point x="-279" y="451"/>
			<point x="-404" y="451" type="curve" smooth="yes"/>
			<point x="-523" y="451"/>
			<point x="-539" y="335"/>
			<point x="-603" y="335" type="curve"/>
			<point x="-678" y="335"/>
			<point x="-707" y="451"/>
			<point x="-819" y="451" type="curve" smooth="yes"/>
			<point x="-930" y="451"/>
			<point x="-1011" y="370"/>
			<point x="-1029" y="187" type="curve"/>
			<point x="-895" y="187" type="line"/>
			<point x="-887" y="258"/>
			<point x="-865" y="298"/>
			<point x="-814" y="298" type="curve" smooth="yes"/>
			<point x="-739" y="298"/>
			<point x="-718" y="178"/>
		</contour>
	</outline>
</glyph>
<glyph name="asterisk_asterisk.cLig" format="2">
	<advance width="600"/>
	<outline>
		<contour>
			<point x="-98" y="129" type="line"/>
			<point x="-19" y="265" type="line"/>
			<point x="-201" y="321" type="line"/>
			<point x="-18" y="377" type="line"/>
			<point x="-97" y="514" type="line"/>
			<point x="-237" y="384" type="line"/>
			<point x="-195" y="570" type="line"/>
			<point x="-352" y="570" type="line"/>
			<point x="-309" y="383" type="line"/>
			<point x="-450" y="514" type="line"/>
			<point x="-529" y="378" type="line"/>
			<point x="-346" y="321" type="line"/>
			<point x="-529" y="266" type="line"/>
			<point x="-450" y="129" type="line"/>
			<point x="-309" y="259" type="line"/>
			<point x="-352" y="72" type="line"/>
			<point x="-195" y="72" type="line"/>
			<point x="-237" y="258" type="line"/>
		</contour>
		<contour>
			<point x="450" y="128" type="line"/>
			<point x="529" y="264" type="line"/>
			<point x="347" y="320" type="line"/>
			<point x="530" y="376" type="line"/>
			<point x="451" y="513" type="line"/>
			<point x="311" y="383" type="line"/>
			<point x="353" y="569" type="line"/>
			<point x="196" y="569" type="line"/>
			<point x="239" y="382" type="line"/>
			<point x="98" y="513" type="line"/>
			<point x="19" y="377" type="line"/>
			<point x="202" y="320" type="line"/>
			<point x="19" y="265" type="line"/>
			<point x="98" y="128" type="line"/>
			<point x="239" y="258" type="line"/>
			<point x="196" y="71" type="line"/>
			<point x="353" y="71" type="line"/>
			<point x="311" y="257" type="line"/>
		</contour>
	</outline>
</glyph>
<glyph name="asterisk_asterisk_asterisk.cLig" format="2">
	<advance width="600"/>
	<outline>
		<contour>
			<point x="-124" y="242" type="line"/>
			<point x="-45" y="378" type="line"/>
			<point x="-227" y="434" type="line"/>
			<point x="-44" y="490" type="line"/>
			<point x="-123" y="627" type="line"/>
			<point x="-263" y="497" type="line"/>
			<point x="-221" y="683" type="line"/>
			<point x="-378" y="683" type="line"/>
			<point x="-335" y="496" type="line"/>
			<point x="-476" y="627" type="line"/>
			<point x="-555" y="491" type="line"/>
			<point x="-372" y="434" type="line"/>
			<point x="-555" y="379" type="line"/>
			<point x="-476" y="242" type="line"/>
			<point x="-335" y="372" type="line"/>
			<point x="-378" y="185" type="line"/>
			<point x="-221" y="185" type="line"/>
			<point x="-263" y="371" type="line"/>
		</contour>
		<contour>
			<point x="-676" y="57" type="line"/>
			<point x="-597" y="193" type="line"/>
			<point x="-779" y="249" type="line"/>
			<point x="-596" y="305" type="line"/>
			<point x="-675" y="442" type="line"/>
			<point x="-815" y="312" type="line"/>
			<point x="-773" y="498" type="line"/>
			<point x="-930" y="498" type="line"/>
			<point x="-887" y="311" type="line"/>
			<point x="-1028" y="442" type="line"/>
			<point x="-1107" y="306" type="line"/>
			<point x="-924" y="249" type="line"/>
			<point x="-1107" y="194" type="line"/>
			<point x="-1028" y="57" type="line"/>
			<point x="-887" y="187" type="line"/>
			<point x="-930" y="0" type="line"/>
			<point x="-773" y="0" type="line"/>
			<point x="-815" y="186" type="line"/>
		</contour>
		<contour>
			<point x="428" y="56" type="line"/>
			<point x="507" y="192" type="line"/>
			<point x="325" y="248" type="line"/>
			<point x="508" y="304" type="line"/>
			<point x="429" y="441" type="line"/>
			<point x="289" y="311" type="line"/>
			<point x="331" y="497" type="line"/>
			<point x="174" y="497" type="line"/>
			<point x="217" y="310" type="line"/>
			<point x="76" y="441" type="line"/>
			<point x="-3" y="305" type="line"/>
			<point x="180" y="248" type="line"/>
			<point x="-3" y="193" type="line"/>
			<point x="76" y="56" type="line"/>
			<point x="217" y="186" type="line"/>
			<point x="174" y="-1" type="line"/>
			<point x="331" y="-1" type="line"/>
			<point x="289" y="185" type="line"/>
		</contour>
	</outline>
</glyph>
<glyph name="asterisk_asterisk_slash.rem" format="2">
	<advance width="600"/>
	<outline>
		<contour>
			<point x="330" y="792" type="line"/>
			<point x="-6" y="-163" type="line"/>
			<point x="157" y="-163" type="line"/>
			<point x="494" y="792" type="line"/>
		</contour>
		<contour>
			<point x="-654" y="129" type="line"/>
			<point x="-575" y="265" type="line"/>
			<point x="-757" y="321" type="line"/>
			<point x="-574" y="377" type="line"/>
			<point x="-653" y="514" type="line"/>
			<point x="-793" y="384" type="line"/>
			<point x="-751" y="570" type="line"/>
			<point x="-908" y="570" type="line"/>
			<point x="-865" y="383" type="line"/>
			<point x="-1006" y="514" type="line"/>
			<point x="-1085" y="378" type="line"/>
			<point x="-902" y="321" type="line"/>
			<point x="-1085" y="266" type="line"/>
			<point x="-1006" y="129" type="line"/>
			<point x="-865" y="259" type="line"/>
			<point x="-908" y="72" type="line"/>
			<point x="-751" y="72" type="line"/>
			<point x="-793" y="258" type="line"/>
		</contour>
		<contour>
			<point x="-74" y="129" type="line"/>
			<point x="5" y="265" type="line"/>
			<point x="-177" y="321" type="line"/>
			<point x="6" y="377" type="line"/>
			<point x="-73" y="514" type="line"/>
			<point x="-213" y="384" type="line"/>
			<point x="-171" y="570" type="line"/>
			<point x="-328" y="570" type="line"/>
			<point x="-285" y="383" type="line"/>
			<point x="-426" y="514" type="line"/>
			<point x="-505" y="378" type="line"/>
			<point x="-322" y="321" type="line"/>
			<point x="-505" y="266" type="line"/>
			<point x="-426" y="129" type="line"/>
			<point x="-285" y="259" type="line"/>
			<point x="-328" y="72" type="line"/>
			<point x="-171" y="72" type="line"/>
			<point x="-213" y="258" type="line"/>
		</contour>
	</outline>
</glyph>
<glyph name="asterisk_greater.cLig" format="2">
	<advance width="600"/>
	<outline>
		<contour>
			<point x="49" y="-14" type="line"/>
			<point x="500" y="222" type="line"/>
			<point x="500" y="407" type="line"/>
			<point x="49" y="642" type="line"/>
			<point x="49" y="482" type="line"/>
			<point x="383" y="313" type="line"/>
			<point x="49" y="147" type="line"/>
		</contour>
		<contour>
			<point x="-74" y="128" type="line"/>
			<point x="5" y="264" type="line"/>
			<point x="-178" y="321" type="line"/>
			<point x="5" y="377" type="line"/>
			<point x="-74" y="513" type="line"/>
			<point x="-215" y="383" type="line"/>
			<point x="-172" y="570" type="line"/>
			<point x="-329" y="570" type="line"/>
			<point x="-287" y="385" type="line"/>
			<point x="-426" y="514" type="line"/>
			<point x="-505" y="378" type="line"/>
			<point x="-323" y="321" type="line"/>
			<point x="-506" y="265" type="line"/>
			<point x="-427" y="129" type="line"/>
			<point x="-287" y="258" type="line"/>
			<point x="-329" y="72" type="line"/>
			<point x="-172" y="72" type="line"/>
			<point x="-215" y="259" type="line"/>
		</contour>
	</outline>
</glyph>
<glyph name="backslash_backslash_backslash.rem" format="2">
	<advance width="600"/>
	<outline>
		<contour>
			<point x="-714" y="-163" type="line"/>
			<point x="-550" y="-163" type="line"/>
			<point x="-886" y="792" type="line"/>
			<point x="-1050" y="792" type="line"/>
		</contour>
		<contour>
			<point x="-214" y="-163" type="line"/>
			<point x="-50" y="-163" type="line"/>
			<point x="-386" y="792" type="line"/>
			<point x="-550" y="792" type="line"/>
		</contour>
		<contour>
			<point x="286" y="-163" type="line"/>
			<point x="450" y="-163" type="line"/>
			<point x="114" y="792" type="line"/>
			<point x="-50" y="792" type="line"/>
		</contour>
	</outline>
</glyph>
<glyph name="bar_bar.cLig" format="2">
	<advance width="600"/>
	<outline>
		<contour>
			<point x="-317" y="793" type="line"/>
			<point x="-317" y="-162" type="line"/>
			<point x="-163" y="-162" type="line"/>
			<point x="-163" y="793" type="line"/>
		</contour>
		<contour>
			<point x="163" y="793" type="line"/>
			<point x="163" y="-162" type="line"/>
			<point x="317" y="-162" type="line"/>
			<point x="317" y="793" type="line"/>
		</contour>
	</outline>
</glyph>
<glyph name="bar_bar_bar_greater.cLig" format="2">
	<advance width="600"/>
	<outline>
		<contour>
			<point x="-903" y="-79" type="line"/>
			<point x="-746" y="-79" type="line"/>
			<point x="-746" y="708" type="line"/>
			<point x="-903" y="708" type="line"/>
		</contour>
		<contour>
			<point x="-1466" y="-79" type="line"/>
			<point x="-1310" y="-79" type="line"/>
			<point x="-1310" y="708" type="line"/>
			<point x="-1466" y="708" type="line"/>
		</contour>
		<contour>
			<point x="-339" y="-79" type="line"/>
			<point x="-183" y="-79" type="line"/>
			<point x="331" y="222" type="line"/>
			<point x="331" y="407" type="line"/>
			<point x="-183" y="708" type="line"/>
			<point x="-339" y="708" type="line"/>
		</contour>
		<contour>
			<point x="-183" y="532" type="line"/>
			<point x="197" y="316" type="line"/>
			<point x="-183" y="96" type="line"/>
		</contour>
	</outline>
</glyph>
<glyph name="bar_equal.fina" format="2">
	<advance width="600"/>
	<outline>
		<contour>
			<point x="0" y="131" type="line"/>
			<point x="332" y="131" type="line"/>
			<point x="332" y="-55" type="line"/>
			<point x="488" y="-55" type="line"/>
			<point x="488" y="684" type="line"/>
			<point x="332" y="684" type="line"/>
			<point x="332" y="498" type="line"/>
			<point x="0" y="498" type="line"/>
			<point x="0" y="359" type="line"/>
			<point x="332" y="359" type="line"/>
			<point x="332" y="270" type="line"/>
			<point x="0" y="270" type="line"/>
		</contour>
	</outline>
</glyph>
<glyph name="bar_equal.med" format="2">
	<advance width="600"/>
	<outline>
		<contour>
			<point x="0" y="131" type="line"/>
			<point x="222" y="131" type="line"/>
			<point x="222" y="-55" type="line"/>
			<point x="378" y="-55" type="line"/>
			<point x="378" y="131" type="line"/>
			<point x="600" y="131" type="line"/>
			<point x="600" y="270" type="line"/>
			<point x="378" y="270" type="line"/>
			<point x="378" y="359" type="line"/>
			<point x="600" y="359" type="line"/>
			<point x="600" y="498" type="line"/>
			<point x="378" y="498" type="line"/>
			<point x="378" y="684" type="line"/>
			<point x="222" y="684" type="line"/>
			<point x="222" y="498" type="line"/>
			<point x="0" y="498" type="line"/>
			<point x="0" y="359" type="line"/>
			<point x="222" y="359" type="line"/>
			<point x="222" y="270" type="line"/>
			<point x="0" y="270" type="line"/>
		</contour>
	</outline>
</glyph>
<glyph name="bar_equal.rem" format="2">
	<advance width="600"/>
	<outline>
		<contour>
			<point x="-389" y="684" type="line"/>
			<point x="-389" y="-55" type="line"/>
			<point x="-233" y="-55" type="line"/>
			<point x="-233" y="131" type="line"/>
			<point x="444" y="131" type="line"/>
			<point x="444" y="270" type="line"/>
			<point x="-233" y="270" type="line"/>
			<point x="-233" y="359" type="line"/>
			<point x="444" y="359" type="line"/>
			<point x="444" y="498" type="line"/>
			<point x="-233" y="498" type="line"/>
			<point x="-233" y="684" type="line"/>
		</contour>
	</outline>
</glyph>
<glyph name="bar_hyphen.rem" format="2">
	<advance width="600"/>
	<outline>
		<contour>
			<point x="-233" y="-55" type="line"/>
			<point x="-233" y="240" type="line"/>
			<point x="444" y="240" type="line"/>
			<point x="444" y="390" type="line"/>
			<point x="-233" y="390" type="line"/>
			<point x="-233" y="684" type="line"/>
			<point x="-389" y="684" type="line"/>
			<point x="-389" y="-55" type="line"/>
		</contour>
	</outline>
</glyph>
<glyph name="braceleft_braceleft.cLig" format="2">
	<advance width="600"/>
	<outline>
		<contour>
			<point x="-1" y="-163" type="line"/>
			<point x="-1" y="-43" type="line"/>
			<point x="-137" y="-43" type="line" smooth="yes"/>
			<point x="-185" y="-43"/>
			<point x="-205" y="-18"/>
			<point x="-205" y="11" type="curve"/>
			<point x="-205" y="83"/>
			<point x="-125" y="119"/>
			<point x="-125" y="207" type="curve" smooth="yes"/>
			<point x="-125" y="261"/>
			<point x="-177" y="304"/>
			<point x="-255" y="315" type="curve"/>
			<point x="-172" y="328"/>
			<point x="-124" y="374"/>
			<point x="-124" y="429" type="curve" smooth="yes"/>
			<point x="-124" y="512"/>
			<point x="-205" y="556"/>
			<point x="-205" y="613" type="curve" smooth="yes"/>
			<point x="-205" y="647"/>
			<point x="-184" y="671"/>
			<point x="-130" y="671" type="curve" smooth="yes"/>
			<point x="185" y="671" type="line"/>
			<point x="121" y="655"/>
			<point x="98" y="616"/>
			<point x="98" y="580" type="curve" smooth="yes"/>
			<point x="98" y="511"/>
			<point x="169" y="480"/>
			<point x="169" y="431" type="curve" smooth="yes"/>
			<point x="169" y="404"/>
			<point x="151" y="382"/>
			<point x="109" y="382" type="curve" smooth="yes"/>
			<point x="16" y="382" type="line"/>
			<point x="16" y="246" type="line"/>
			<point x="109" y="246" type="line" smooth="yes"/>
			<point x="165" y="246"/>
			<point x="180" y="216"/>
			<point x="180" y="189" type="curve" smooth="yes"/>
			<point x="180" y="115"/>
			<point x="99" y="74"/>
			<point x="99" y="-17" type="curve"/>
			<point x="99" y="-99"/>
			<point x="155" y="-163"/>
			<point x="274" y="-163" type="curve" smooth="yes"/>
			<point x="477" y="-163" type="line"/>
			<point x="477" y="-43" type="line"/>
			<point x="339" y="-43" type="line" smooth="yes"/>
			<point x="291" y="-43"/>
			<point x="271" y="-23"/>
			<point x="271" y="10" type="curve"/>
			<point x="271" y="69"/>
			<point x="348" y="115"/>
			<point x="348" y="198" type="curve" smooth="yes"/>
			<point x="348" y="259"/>
			<point x="298" y="302"/>
			<point x="225" y="315" type="curve"/>
			<point x="295" y="331"/>
			<point x="351" y="371"/>
			<point x="351" y="429" type="curve" smooth="yes"/>
			<point x="351" y="511"/>
			<point x="270" y="556"/>
			<point x="270" y="613" type="curve" smooth="yes"/>
			<point x="270" y="647"/>
			<point x="295" y="671"/>
			<point x="348" y="671" type="curve" smooth="yes"/>
			<point x="503" y="671" type="line"/>
			<point x="503" y="790" type="line"/>
			<point x="-202" y="790" type="line" smooth="yes"/>
			<point x="-315" y="790"/>
			<point x="-377" y="716"/>
			<point x="-377" y="642" type="curve" smooth="yes"/>
			<point x="-377" y="546"/>
			<point x="-297" y="501"/>
			<point x="-297" y="439" type="curve" smooth="yes"/>
			<point x="-297" y="412"/>
			<point x="-316" y="381"/>
			<point x="-358" y="381" type="curve" smooth="yes"/>
			<point x="-451" y="381" type="line"/>
			<point x="-451" y="246" type="line"/>
			<point x="-358" y="246" type="line" smooth="yes"/>
			<point x="-316" y="246"/>
			<point x="-297" y="216"/>
			<point x="-297" y="189" type="curve" smooth="yes"/>
			<point x="-297" y="122"/>
			<point x="-377" y="85"/>
			<point x="-377" y="-17" type="curve"/>
			<point x="-377" y="-100"/>
			<point x="-314" y="-163"/>
			<point x="-202" y="-163" type="curve" smooth="yes"/>
		</contour>
	</outline>
</glyph>
<glyph name="braceleft_hyphen.rem" format="2">
	<advance width="600"/>
	<outline>
		<contour>
			<point x="12" y="792" type="line"/>
			<point x="-183" y="792" type="line" smooth="yes"/>
			<point x="-295" y="792"/>
			<point x="-357" y="735"/>
			<point x="-357" y="660" type="curve" smooth="yes"/>
			<point x="-357" y="570"/>
			<point x="-270" y="513"/>
			<point x="-270" y="454" type="curve" smooth="yes"/>
			<point x="-270" y="417"/>
			<point x="-290" y="385"/>
			<point x="-352" y="385" type="curve" smooth="yes"/>
			<point x="-434" y="385" type="line"/>
			<point x="-434" y="247" type="line"/>
			<point x="-352" y="247" type="line" smooth="yes"/>
			<point x="-290" y="247"/>
			<point x="-270" y="218"/>
			<point x="-270" y="186" type="curve" smooth="yes"/>
			<point x="-270" y="124"/>
			<point x="-357" y="63"/>
			<point x="-357" y="-29" type="curve" smooth="yes"/>
			<point x="-357" y="-105"/>
			<point x="-295" y="-163"/>
			<point x="-183" y="-163" type="curve" smooth="yes"/>
			<point x="12" y="-163" type="line"/>
			<point x="12" y="-43" type="line"/>
			<point x="-122" y="-43" type="line" smooth="yes"/>
			<point x="-162" y="-43"/>
			<point x="-183" y="-30"/>
			<point x="-183" y="-1" type="curve" smooth="yes"/>
			<point x="-183" y="49"/>
			<point x="-101" y="97"/>
			<point x="-101" y="160" type="curve" smooth="yes"/>
			<point x="-101" y="205"/>
			<point x="-140" y="230"/>
			<point x="-198" y="244" type="curve"/>
			<point x="444" y="244" type="line"/>
			<point x="444" y="386" type="line"/>
			<point x="-190" y="386" type="line"/>
			<point x="-136" y="405"/>
			<point x="-101" y="431"/>
			<point x="-101" y="474" type="curve" smooth="yes"/>
			<point x="-101" y="537"/>
			<point x="-183" y="579"/>
			<point x="-183" y="629" type="curve" smooth="yes"/>
			<point x="-183" y="655"/>
			<point x="-163" y="672"/>
			<point x="-115" y="672" type="curve" smooth="yes"/>
			<point x="12" y="672" type="line"/>
		</contour>
	</outline>
</glyph>
<glyph name="braceleft_numbersign.cLig" format="2">
	<advance width="600"/>
	<outline>
		<contour>
			<point x="-513" y="245" type="line"/>
			<point x="-424" y="245" type="line" smooth="yes"/>
			<point x="-381" y="245"/>
			<point x="-362" y="213"/>
			<point x="-362" y="186" type="curve" smooth="yes"/>
			<point x="-362" y="125"/>
			<point x="-457" y="72"/>
			<point x="-457" y="-22" type="curve" smooth="yes"/>
			<point x="-457" y="-99"/>
			<point x="-395" y="-163"/>
			<point x="-283" y="-163" type="curve" smooth="yes"/>
			<point x="-89" y="-163" type="line"/>
			<point x="-89" y="-44" type="line"/>
			<point x="-218" y="-44" type="line" smooth="yes"/>
			<point x="-267" y="-44"/>
			<point x="-287" y="-24"/>
			<point x="-287" y="6" type="curve" smooth="yes"/>
			<point x="-287" y="61"/>
			<point x="-192" y="111"/>
			<point x="-192" y="192" type="curve" smooth="yes"/>
			<point x="-192" y="249"/>
			<point x="-244" y="301"/>
			<point x="-322" y="313" type="curve"/>
			<point x="-244" y="325"/>
			<point x="-192" y="377"/>
			<point x="-192" y="433" type="curve" smooth="yes"/>
			<point x="-192" y="516"/>
			<point x="-287" y="566"/>
			<point x="-287" y="624" type="curve" smooth="yes"/>
			<point x="-287" y="658"/>
			<point x="-266" y="673"/>
			<point x="-225" y="673" type="curve" smooth="yes"/>
			<point x="-89" y="673" type="line"/>
			<point x="-89" y="792" type="line"/>
			<point x="-283" y="792" type="line" smooth="yes"/>
			<point x="-395" y="792"/>
			<point x="-457" y="725"/>
			<point x="-457" y="650" type="curve" smooth="yes"/>
			<point x="-457" y="555"/>
			<point x="-362" y="502"/>
			<point x="-362" y="440" type="curve" smooth="yes"/>
			<point x="-362" y="413"/>
			<point x="-381" y="382"/>
			<point x="-424" y="382" type="curve" smooth="yes"/>
			<point x="-513" y="382" type="line"/>
		</contour>
		<contour>
			<point x="-85" y="276" type="line"/>
			<point x="-85" y="153" type="line"/>
			<point x="19" y="153" type="line"/>
			<point x="5" y="0" type="line"/>
			<point x="131" y="0" type="line"/>
			<point x="145" y="153" type="line"/>
			<point x="247" y="153" type="line"/>
			<point x="233" y="0" type="line"/>
			<point x="358" y="0" type="line"/>
			<point x="372" y="153" type="line"/>
			<point x="473" y="153" type="line"/>
			<point x="473" y="276" type="line"/>
			<point x="384" y="276" type="line"/>
			<point x="397" y="413" type="line"/>
			<point x="496" y="413" type="line"/>
			<point x="496" y="537" type="line"/>
			<point x="409" y="537" type="line"/>
			<point x="423" y="684" type="line"/>
			<point x="298" y="684" type="line"/>
			<point x="284" y="537" type="line"/>
			<point x="181" y="537" type="line"/>
			<point x="195" y="684" type="line"/>
			<point x="70" y="684" type="line"/>
			<point x="56" y="537" type="line"/>
			<point x="-85" y="537" type="line"/>
			<point x="-85" y="413" type="line"/>
			<point x="44" y="413" type="line"/>
			<point x="31" y="276" type="line"/>
		</contour>
		<contour>
			<point x="157" y="276" type="line"/>
			<point x="169" y="413" type="line"/>
			<point x="272" y="413" type="line"/>
			<point x="259" y="276" type="line"/>
		</contour>
	</outline>
</glyph>
<glyph name="braceright_braceright.cLig" format="2">
	<advance width="600"/>
	<outline>
		<contour>
			<point x="5" y="790" type="line"/>
			<point x="5" y="670" type="line"/>
			<point x="141" y="670" type="line" smooth="yes"/>
			<point x="189" y="670"/>
			<point x="209" y="645"/>
			<point x="209" y="616" type="curve"/>
			<point x="209" y="544"/>
			<point x="129" y="508"/>
			<point x="129" y="420" type="curve" smooth="yes"/>
			<point x="129" y="366"/>
			<point x="181" y="323"/>
			<point x="259" y="312" type="curve"/>
			<point x="176" y="299"/>
			<point x="128" y="253"/>
			<point x="128" y="198" type="curve" smooth="yes"/>
			<point x="128" y="115"/>
			<point x="209" y="71"/>
			<point x="209" y="14" type="curve" smooth="yes"/>
			<point x="209" y="-20"/>
			<point x="188" y="-44"/>
			<point x="134" y="-44" type="curve" smooth="yes"/>
			<point x="-181" y="-44" type="line"/>
			<point x="-117" y="-28"/>
			<point x="-94" y="11"/>
			<point x="-94" y="47" type="curve" smooth="yes"/>
			<point x="-94" y="116"/>
			<point x="-165" y="147"/>
			<point x="-165" y="196" type="curve" smooth="yes"/>
			<point x="-165" y="223"/>
			<point x="-147" y="245"/>
			<point x="-105" y="245" type="curve" smooth="yes"/>
			<point x="-12" y="245" type="line"/>
			<point x="-12" y="381" type="line"/>
			<point x="-105" y="381" type="line" smooth="yes"/>
			<point x="-161" y="381"/>
			<point x="-176" y="411"/>
			<point x="-176" y="438" type="curve" smooth="yes"/>
			<point x="-176" y="512"/>
			<point x="-95" y="553"/>
			<point x="-95" y="644" type="curve"/>
			<point x="-95" y="726"/>
			<point x="-151" y="790"/>
			<point x="-270" y="790" type="curve" smooth="yes"/>
			<point x="-473" y="790" type="line"/>
			<point x="-473" y="670" type="line"/>
			<point x="-335" y="670" type="line" smooth="yes"/>
			<point x="-287" y="670"/>
			<point x="-267" y="650"/>
			<point x="-267" y="617" type="curve"/>
			<point x="-267" y="558"/>
			<point x="-344" y="512"/>
			<point x="-344" y="429" type="curve" smooth="yes"/>
			<point x="-344" y="368"/>
			<point x="-294" y="325"/>
			<point x="-221" y="312" type="curve"/>
			<point x="-291" y="296"/>
			<point x="-347" y="256"/>
			<point x="-347" y="198" type="curve" smooth="yes"/>
			<point x="-347" y="116"/>
			<point x="-266" y="71"/>
			<point x="-266" y="14" type="curve" smooth="yes"/>
			<point x="-266" y="-20"/>
			<point x="-291" y="-44"/>
			<point x="-344" y="-44" type="curve" smooth="yes"/>
			<point x="-499" y="-44" type="line"/>
			<point x="-499" y="-163" type="line"/>
			<point x="206" y="-163" type="line" smooth="yes"/>
			<point x="319" y="-163"/>
			<point x="381" y="-89"/>
			<point x="381" y="-15" type="curve" smooth="yes"/>
			<point x="381" y="81"/>
			<point x="301" y="126"/>
			<point x="301" y="188" type="curve" smooth="yes"/>
			<point x="301" y="215"/>
			<point x="320" y="246"/>
			<point x="362" y="246" type="curve" smooth="yes"/>
			<point x="455" y="246" type="line"/>
			<point x="455" y="381" type="line"/>
			<point x="362" y="381" type="line" smooth="yes"/>
			<point x="320" y="381"/>
			<point x="301" y="411"/>
			<point x="301" y="438" type="curve" smooth="yes"/>
			<point x="301" y="505"/>
			<point x="381" y="542"/>
			<point x="381" y="644" type="curve"/>
			<point x="381" y="727"/>
			<point x="318" y="790"/>
			<point x="206" y="790" type="curve" smooth="yes"/>
		</contour>
	</outline>
</glyph>
<glyph name="bracketleft_numbersign.cLig" format="2">
	<advance width="600"/>
	<outline>
		<contour>
			<point x="-92" y="276" type="line"/>
			<point x="-92" y="153" type="line"/>
			<point x="12" y="153" type="line"/>
			<point x="-2" y="0" type="line"/>
			<point x="124" y="0" type="line"/>
			<point x="138" y="153" type="line"/>
			<point x="240" y="153" type="line"/>
			<point x="226" y="0" type="line"/>
			<point x="351" y="0" type="line"/>
			<point x="365" y="153" type="line"/>
			<point x="466" y="153" type="line"/>
			<point x="466" y="276" type="line"/>
			<point x="377" y="276" type="line"/>
			<point x="390" y="413" type="line"/>
			<point x="489" y="413" type="line"/>
			<point x="489" y="537" type="line"/>
			<point x="402" y="537" type="line"/>
			<point x="416" y="684" type="line"/>
			<point x="291" y="684" type="line"/>
			<point x="277" y="537" type="line"/>
			<point x="174" y="537" type="line"/>
			<point x="188" y="684" type="line"/>
			<point x="63" y="684" type="line"/>
			<point x="49" y="537" type="line"/>
			<point x="-92" y="537" type="line"/>
			<point x="-92" y="413" type="line"/>
			<point x="37" y="413" type="line"/>
			<point x="24" y="276" type="line"/>
		</contour>
		<contour>
			<point x="150" y="276" type="line"/>
			<point x="162" y="413" type="line"/>
			<point x="265" y="413" type="line"/>
			<point x="252" y="276" type="line"/>
		</contour>
		<contour>
			<point x="-91" y="-44" type="line"/>
			<point x="-287" y="-44" type="line"/>
			<point x="-287" y="673" type="line"/>
			<point x="-91" y="673" type="line"/>
			<point x="-91" y="792" type="line"/>
			<point x="-442" y="792" type="line"/>
			<point x="-442" y="-163" type="line"/>
			<point x="-91" y="-163" type="line"/>
		</contour>
	</outline>
</glyph>
<glyph name="bracketright_numbersign.cLig" format="2">
	<advance width="600"/>
	<outline>
		<contour>
			<point x="-506" y="-163" type="line"/>
			<point x="-155" y="-163" type="line"/>
			<point x="-155" y="153" type="line"/>
			<point x="18" y="153" type="line"/>
			<point x="3" y="0" type="line"/>
			<point x="129" y="0" type="line"/>
			<point x="144" y="153" type="line"/>
			<point x="246" y="153" type="line"/>
			<point x="231" y="0" type="line"/>
			<point x="356" y="0" type="line"/>
			<point x="371" y="153" type="line"/>
			<point x="471" y="153" type="line"/>
			<point x="471" y="276" type="line"/>
			<point x="382" y="276" type="line"/>
			<point x="396" y="413" type="line"/>
			<point x="494" y="413" type="line"/>
			<point x="494" y="537" type="line"/>
			<point x="407" y="537" type="line"/>
			<point x="421" y="684" type="line"/>
			<point x="296" y="684" type="line"/>
			<point x="282" y="537" type="line"/>
			<point x="179" y="537" type="line"/>
			<point x="193" y="684" type="line"/>
			<point x="68" y="684" type="line"/>
			<point x="54" y="537" type="line"/>
			<point x="-155" y="537" type="line"/>
			<point x="-155" y="792" type="line"/>
			<point x="-506" y="792" type="line"/>
			<point x="-506" y="673" type="line"/>
			<point x="-310" y="673" type="line"/>
			<point x="-310" y="-44" type="line"/>
			<point x="-506" y="-44" type="line"/>
		</contour>
		<contour>
			<point x="-155" y="276" type="line"/>
			<point x="-155" y="413" type="line"/>
			<point x="42" y="413" type="line"/>
			<point x="29" y="276" type="line"/>
		</contour>
		<contour>
			<point x="155" y="276" type="line"/>
			<point x="168" y="413" type="line"/>
			<point x="271" y="413" type="line"/>
			<point x="258" y="276" type="line"/>
		</contour>
	</outline>
</glyph>
<glyph name="caronSlovak" format="2">
	<advance width="600"/>
	<outline>
		<contour>
			<point x="234" y="563" type="line"/>
			<point x="319" y="563" type="line"/>
			<point x="398" y="750" type="line"/>
			<point x="241" y="750" type="line"/>
		</contour>
	</outline>
	<anchor name="_caron" x="241" y="750"/>
</glyph>
<glyph name="circumflex.cap" format="2">
	<advance width="600"/>
	<outline>
		<contour>
			<point x="94" y="743" type="line"/>
			<point x="236" y="743" type="line"/>
			<point x="299" y="824" type="line"/>
			<point x="363" y="743" type="line"/>
			<point x="505" y="743" type="line"/>
			<point x="388" y="884" type="line"/>
			<point x="210" y="884" type="line"/>
		</contour>
	</outline>
	<anchor name="_top" x="300" y="684"/>
</glyph>
<glyph name="colon_colon_colon.cLig" format="2">
	<advance width="600"/>
	<outline>
		<contour>
			<point x="-746" y="-12" type="curve" smooth="yes"/>
			<point x="-672" y="-12"/>
			<point x="-633" y="16"/>
			<point x="-633" y="90" type="curve" smooth="yes"/>
			<point x="-633" y="164"/>
			<point x="-672" y="191"/>
			<point x="-746" y="191" type="curve" smooth="yes"/>
			<point x="-820" y="191"/>
			<point x="-859" y="164"/>
			<point x="-859" y="90" type="curve" smooth="yes"/>
			<point x="-859" y="16"/>
			<point x="-820" y="-12"/>
		</contour>
		<contour>
			<point x="-746" y="328" type="curve" smooth="yes"/>
			<point x="-672" y="328"/>
			<point x="-633" y="356"/>
			<point x="-633" y="430" type="curve" smooth="yes"/>
			<point x="-633" y="504"/>
			<point x="-672" y="531"/>
			<point x="-746" y="531" type="curve" smooth="yes"/>
			<point x="-820" y="531"/>
			<point x="-859" y="504"/>
			<point x="-859" y="430" type="curve" smooth="yes"/>
			<point x="-859" y="356"/>
			<point x="-820" y="328"/>
		</contour>
		<contour>
			<point x="-300" y="-12" type="curve" smooth="yes"/>
			<point x="-226" y="-12"/>
			<point x="-187" y="16"/>
			<point x="-187" y="90" type="curve" smooth="yes"/>
			<point x="-187" y="164"/>
			<point x="-226" y="191"/>
			<point x="-300" y="191" type="curve" smooth="yes"/>
			<point x="-374" y="191"/>
			<point x="-413" y="164"/>
			<point x="-413" y="90" type="curve" smooth="yes"/>
			<point x="-413" y="16"/>
			<point x="-374" y="-12"/>
		</contour>
		<contour>
			<point x="-300" y="328" type="curve" smooth="yes"/>
			<point x="-226" y="328"/>
			<point x="-187" y="356"/>
			<point x="-187" y="430" type="curve" smooth="yes"/>
			<point x="-187" y="504"/>
			<point x="-226" y="531"/>
			<point x="-300" y="531" type="curve" smooth="yes"/>
			<point x="-374" y="531"/>
			<point x="-413" y="504"/>
			<point x="-413" y="430" type="curve" smooth="yes"/>
			<point x="-413" y="356"/>
			<point x="-374" y="328"/>
		</contour>
		<contour>
			<point x="146" y="-12" type="curve" smooth="yes"/>
			<point x="220" y="-12"/>
			<point x="259" y="16"/>
			<point x="259" y="90" type="curve" smooth="yes"/>
			<point x="259" y="164"/>
			<point x="220" y="191"/>
			<point x="146" y="191" type="curve" smooth="yes"/>
			<point x="72" y="191"/>
			<point x="33" y="164"/>
			<point x="33" y="90" type="curve" smooth="yes"/>
			<point x="33" y="16"/>
			<point x="72" y="-12"/>
		</contour>
		<contour>
			<point x="146" y="328" type="curve" smooth="yes"/>
			<point x="220" y="328"/>
			<point x="259" y="356"/>
			<point x="259" y="430" type="curve" smooth="yes"/>
			<point x="259" y="504"/>
			<point x="220" y="531"/>
			<point x="146" y="531" type="curve" smooth="yes"/>
			<point x="72" y="531"/>
			<point x="33" y="504"/>
			<point x="33" y="430" type="curve" smooth="yes"/>
			<point x="33" y="356"/>
			<point x="72" y="328"/>
		</contour>
	</outline>
</glyph>
<glyph name="colon_colon_equal.cLig" format="2">
	<advance width="600"/>
	<outline>
		<contour>
			<point x="-839" y="28" type="curve" smooth="yes"/>
			<point x="-765" y="28"/>
			<point x="-726" y="56"/>
			<point x="-726" y="130" type="curve" smooth="yes"/>
			<point x="-726" y="204"/>
			<point x="-765" y="231"/>
			<point x="-839" y="231" type="curve" smooth="yes"/>
			<point x="-913" y="231"/>
			<point x="-952" y="204"/>
			<point x="-952" y="130" type="curve" smooth="yes"/>
			<point x="-952" y="56"/>
			<point x="-913" y="28"/>
		</contour>
		<contour>
			<point x="-839" y="324" type="curve" smooth="yes"/>
			<point x="-765" y="324"/>
			<point x="-726" y="352"/>
			<point x="-726" y="426" type="curve" smooth="yes"/>
			<point x="-726" y="500"/>
			<point x="-765" y="527"/>
			<point x="-839" y="527" type="curve" smooth="yes"/>
			<point x="-913" y="527"/>
			<point x="-952" y="500"/>
			<point x="-952" y="426" type="curve" smooth="yes"/>
			<point x="-952" y="352"/>
			<point x="-913" y="324"/>
		</contour>
		<contour>
			<point x="-436" y="28" type="curve" smooth="yes"/>
			<point x="-362" y="28"/>
			<point x="-323" y="56"/>
			<point x="-323" y="130" type="curve" smooth="yes"/>
			<point x="-323" y="204"/>
			<point x="-362" y="231"/>
			<point x="-436" y="231" type="curve" smooth="yes"/>
			<point x="-510" y="231"/>
			<point x="-549" y="204"/>
			<point x="-549" y="130" type="curve" smooth="yes"/>
			<point x="-549" y="56"/>
			<point x="-510" y="28"/>
		</contour>
		<contour>
			<point x="-436" y="324" type="curve" smooth="yes"/>
			<point x="-362" y="324"/>
			<point x="-323" y="352"/>
			<point x="-323" y="426" type="curve" smooth="yes"/>
			<point x="-323" y="500"/>
			<point x="-362" y="527"/>
			<point x="-436" y="527" type="curve" smooth="yes"/>
			<point x="-510" y="527"/>
			<point x="-549" y="500"/>
			<point x="-549" y="426" type="curve" smooth="yes"/>
			<point x="-549" y="352"/>
			<point x="-510" y="324"/>
		</contour>
		<contour>
			<point x="-116.1007194262" y="336" type="line"/>
			<point x="382.1582733662" y="336" type="line"/>
			<point x="382.1582733662" y="474" type="line"/>
			<point x="-116.1007194262" y="474" type="line"/>
		</contour>
		<contour>
			<point x="-116.1007194262" y="109" type="line"/>
			<point x="382.1582733662" y="109" type="line"/>
			<point x="382.1582733662" y="247" type="line"/>
			<point x="-116.1007194262" y="247" type="line"/>
		</contour>
	</outline>
</glyph>
<glyph name="colon_equal.med" format="2">
	<advance width="600"/>
	<outline>
		<contour>
			<point x="302" y="324" type="curve" smooth="yes"/>
			<point x="376" y="324"/>
			<point x="415" y="352"/>
			<point x="415" y="426" type="curve" smooth="yes"/>
			<point x="415" y="500"/>
			<point x="376" y="527"/>
			<point x="302" y="527" type="curve" smooth="yes"/>
			<point x="228" y="527"/>
			<point x="189" y="500"/>
			<point x="189" y="426" type="curve" smooth="yes"/>
			<point x="189" y="352"/>
			<point x="228" y="324"/>
		</contour>
		<contour>
			<point x="506" y="359" type="line"/>
			<point x="600" y="359" type="line"/>
			<point x="600" y="498" type="line"/>
			<point x="506" y="498" type="line"/>
		</contour>
		<contour>
			<point x="0" y="359" type="line"/>
			<point x="94" y="359" type="line"/>
			<point x="94" y="498" type="line"/>
			<point x="0" y="498" type="line"/>
		</contour>
		<contour>
			<point x="506" y="132" type="line"/>
			<point x="600" y="132" type="line"/>
			<point x="600" y="271" type="line"/>
			<point x="506" y="271" type="line"/>
		</contour>
		<contour>
			<point x="0" y="132" type="line"/>
			<point x="94" y="132" type="line"/>
			<point x="94" y="271" type="line"/>
			<point x="0" y="271" type="line"/>
		</contour>
		<contour>
			<point x="302" y="28" type="curve" smooth="yes"/>
			<point x="376" y="28"/>
			<point x="415" y="56"/>
			<point x="415" y="130" type="curve" smooth="yes"/>
			<point x="415" y="204"/>
			<point x="376" y="231"/>
			<point x="302" y="231" type="curve" smooth="yes"/>
			<point x="228" y="231"/>
			<point x="189" y="204"/>
			<point x="189" y="130" type="curve" smooth="yes"/>
			<point x="189" y="56"/>
			<point x="228" y="28"/>
		</contour>
	</outline>
</glyph>
<glyph name="colon_greater.cLig.x" format="2">
	<advance width="600"/>
	<outline>
		<contour>
			<point x="1" y="-12" type="line"/>
			<point x="453" y="222" type="line"/>
			<point x="453" y="407" type="line"/>
			<point x="1" y="643" type="line"/>
			<point x="1" y="481" type="line"/>
			<point x="335" y="315" type="line"/>
			<point x="1" y="146" type="line"/>
		</contour>
		<contour>
			<point x="-300" y="375" type="curve" smooth="yes"/>
			<point x="-226" y="375"/>
			<point x="-187" y="403"/>
			<point x="-187" y="477" type="curve" smooth="yes"/>
			<point x="-187" y="551"/>
			<point x="-226" y="578"/>
			<point x="-300" y="578" type="curve" smooth="yes"/>
			<point x="-374" y="578"/>
			<point x="-413" y="551"/>
			<point x="-413" y="477" type="curve" smooth="yes"/>
			<point x="-413" y="403"/>
			<point x="-374" y="375"/>
		</contour>
		<contour>
			<point x="-300" y="35" type="curve" smooth="yes"/>
			<point x="-226" y="35"/>
			<point x="-187" y="63"/>
			<point x="-187" y="137" type="curve" smooth="yes"/>
			<point x="-187" y="211"/>
			<point x="-226" y="238"/>
			<point x="-300" y="238" type="curve" smooth="yes"/>
			<point x="-374" y="238"/>
			<point x="-413" y="211"/>
			<point x="-413" y="137" type="curve" smooth="yes"/>
			<point x="-413" y="63"/>
			<point x="-374" y="35"/>
		</contour>
	</outline>
</glyph>
<glyph name="cordinal" format="2">
	<advance width="600"/>
	<outline>
		<contour>
			<point x="366" y="225" type="curve" smooth="yes"/>
			<point x="416" y="225"/>
			<point x="459" y="235"/>
			<point x="485" y="246" type="curve"/>
			<point x="485" y="349" type="line"/>
			<point x="458" y="339"/>
			<point x="425" y="332"/>
			<point x="386" y="332" type="curve" smooth="yes"/>
			<point x="302" y="332"/>
			<point x="252" y="374"/>
			<point x="252" y="463" type="curve" smooth="yes"/>
			<point x="252" y="552"/>
			<point x="302" y="589"/>
			<point x="383" y="589" type="curve" smooth="yes"/>
			<point x="419" y="589"/>
			<point x="456" y="581"/>
			<point x="485" y="569" type="curve"/>
			<point x="485" y="673" type="line"/>
			<point x="456" y="686"/>
			<point x="416" y="695"/>
			<point x="363" y="695" type="curve" smooth="yes"/>
			<point x="209" y="695"/>
			<point x="110" y="611"/>
			<point x="110" y="461" type="curve" smooth="yes"/>
			<point x="110" y="311"/>
			<point x="207" y="225"/>
		</contour>
	</outline>
</glyph>
<glyph name="dotbelow" format="2">
	<advance width="600"/>
	<outline>
		<contour>
			<point x="300" y="-220" type="curve" smooth="yes"/>
			<point x="363" y="-220"/>
			<point x="394" y="-194"/>
			<point x="394" y="-132" type="curve" smooth="yes"/>
			<point x="394" y="-71"/>
			<point x="364" y="-45"/>
			<point x="300" y="-45" type="curve" smooth="yes"/>
			<point x="236" y="-45"/>
			<point x="205" y="-71"/>
			<point x="205" y="-132" type="curve" smooth="yes"/>
			<point x="205" y="-195"/>
			<point x="238" y="-220"/>
		</contour>
	</outline>
	<anchor name="bottom" x="301" y="0"/>
</glyph>
<glyph name="eight.numr" format="2">
	<advance width="600"/>
	<outline>
		<contour>
			<point x="299" y="366" type="curve" smooth="yes"/>
			<point x="389" y="366"/>
			<point x="445" y="398"/>
			<point x="445" y="464" type="curve" smooth="yes"/>
			<point x="445" y="510"/>
			<point x="415" y="537"/>
			<point x="372" y="548" type="curve"/>
			<point x="412" y="557"/>
			<point x="439" y="589"/>
			<point x="439" y="629" type="curve" smooth="yes"/>
			<point x="439" y="694"/>
			<point x="385" y="724"/>
			<point x="302" y="724" type="curve" smooth="yes"/>
			<point x="217" y="724"/>
			<point x="161" y="694"/>
			<point x="161" y="629" type="curve" smooth="yes"/>
			<point x="161" y="587"/>
			<point x="190" y="557"/>
			<point x="231" y="548" type="curve"/>
			<point x="187" y="538"/>
			<point x="155" y="512"/>
			<point x="155" y="464" type="curve" smooth="yes"/>
			<point x="155" y="398"/>
			<point x="209" y="366"/>
		</contour>
		<contour>
			<point x="300" y="576" type="curve" smooth="yes"/>
			<point x="273" y="576"/>
			<point x="255" y="588"/>
			<point x="255" y="617" type="curve" smooth="yes"/>
			<point x="255" y="645"/>
			<point x="273" y="657"/>
			<point x="300" y="657" type="curve" smooth="yes"/>
			<point x="326" y="657"/>
			<point x="345" y="646"/>
			<point x="345" y="617" type="curve" smooth="yes"/>
			<point x="345" y="589"/>
			<point x="327" y="576"/>
		</contour>
		<contour>
			<point x="300" y="435" type="curve" smooth="yes"/>
			<point x="270" y="435"/>
			<point x="253" y="447"/>
			<point x="253" y="478" type="curve" smooth="yes"/>
			<point x="253" y="507"/>
			<point x="271" y="519"/>
			<point x="300" y="519" type="curve" smooth="yes"/>
			<point x="328" y="519"/>
			<point x="347" y="508"/>
			<point x="347" y="478" type="curve" smooth="yes"/>
			<point x="347" y="448"/>
			<point x="329" y="435"/>
		</contour>
	</outline>
</glyph>
<glyph name="equal_colon_equal.rem" format="2">
	<advance width="600"/>
	<outline>
		<contour>
			<point x="-300" y="28" type="curve" smooth="yes"/>
			<point x="-226" y="28"/>
			<point x="-187" y="56"/>
			<point x="-187" y="130" type="curve" smooth="yes"/>
			<point x="-187" y="204"/>
			<point x="-226" y="231"/>
			<point x="-300" y="231" type="curve" smooth="yes"/>
			<point x="-374" y="231"/>
			<point x="-413" y="204"/>
			<point x="-413" y="130" type="curve" smooth="yes"/>
			<point x="-413" y="56"/>
			<point x="-374" y="28"/>
		</contour>
		<contour>
			<point x="-300" y="324" type="curve" smooth="yes"/>
			<point x="-226" y="324"/>
			<point x="-187" y="352"/>
			<point x="-187" y="426" type="curve" smooth="yes"/>
			<point x="-187" y="500"/>
			<point x="-226" y="527"/>
			<point x="-300" y="527" type="curve" smooth="yes"/>
			<point x="-374" y="527"/>
			<point x="-413" y="500"/>
			<point x="-413" y="426" type="curve" smooth="yes"/>
			<point x="-413" y="352"/>
			<point x="-374" y="324"/>
		</contour>
		<contour>
			<point x="-1044.840287768" y="336" type="line"/>
			<point x="-559.936690632" y="336" type="line"/>
			<point x="-559.936690632" y="474" type="line"/>
			<point x="-1044.840287768" y="474" type="line"/>
		</contour>
		<contour>
			<point x="-1044.840287768" y="109" type="line"/>
			<point x="-559.936690632" y="109" type="line"/>
			<point x="-559.936690632" y="247" type="line"/>
			<point x="-1044.840287768" y="247" type="line"/>
		</contour>
		<contour>
			<point x="-39.840287768" y="336" type="line"/>
			<point x="445.063309368" y="336" type="line"/>
			<point x="445.063309368" y="474" type="line"/>
			<point x="-39.840287768" y="474" type="line"/>
		</contour>
		<contour>
			<point x="-39.840287768" y="109" type="line"/>
			<point x="445.063309368" y="109" type="line"/>
			<point x="445.063309368" y="247" type="line"/>
			<point x="-39.840287768" y="247" type="line"/>
		</contour>
	</outline>
</glyph>
<glyph name="equal_equal.cLig" format="2">
	<advance width="600"/>
	<outline>
		<contour>
			<point x="-445" y="336" type="line"/>
			<point x="445" y="336" type="line"/>
			<point x="445" y="474" type="line"/>
			<point x="-445" y="474" type="line"/>
		</contour>
		<contour>
			<point x="-445" y="109" type="line"/>
			<point x="445" y="109" type="line"/>
			<point x="445" y="247" type="line"/>
			<point x="-445" y="247" type="line"/>
		</contour>
	</outline>
</glyph>
<glyph name="equal_equal_equal.cLig" format="2">
	<advance width="600"/>
	<outline>
		<contour>
			<point x="-1050" y="459" type="line"/>
			<point x="450" y="459" type="line"/>
			<point x="450" y="587" type="line"/>
			<point x="-1050" y="587" type="line"/>
		</contour>
		<contour>
			<point x="-1050" y="249" type="line"/>
			<point x="450" y="249" type="line"/>
			<point x="450" y="377" type="line"/>
			<point x="-1050" y="377" type="line"/>
		</contour>
		<contour>
			<point x="-1050" y="39" type="line"/>
			<point x="450" y="39" type="line"/>
			<point x="450" y="167" type="line"/>
			<point x="-1050" y="167" type="line"/>
		</contour>
	</outline>
</glyph>
<glyph name="equal_greater.rem" format="2">
	<advance width="600"/>
	<outline>
		<contour>
			<point x="-444" y="131" type="line"/>
			<point x="150" y="131" type="line"/>
			<point x="43" y="0" type="line"/>
			<point x="231" y="0" type="line"/>
			<point x="490" y="314" type="line"/>
			<point x="228" y="629" type="line"/>
			<point x="40" y="629" type="line"/>
			<point x="150" y="498" type="line"/>
			<point x="-444" y="498" type="line"/>
			<point x="-444" y="359" type="line"/>
			<point x="267" y="359" type="line"/>
			<point x="302" y="317" type="line"/>
			<point x="264" y="270" type="line"/>
			<point x="-444" y="270" type="line"/>
		</contour>
	</outline>
</glyph>
<glyph name="equal_greater_greater.rem" format="2">
	<advance width="600"/>
	<outline>
		<contour>
			<point x="31" y="0" type="line"/>
			<point x="218" y="0" type="line"/>
			<point x="479" y="314" type="line"/>
			<point x="216" y="629" type="line"/>
			<point x="28" y="629" type="line"/>
			<point x="290" y="317" type="line"/>
		</contour>
		<contour>
			<point x="-1044" y="131" type="line"/>
			<point x="-254" y="131" type="line"/>
			<point x="-361" y="0" type="line"/>
			<point x="-173" y="0" type="line"/>
			<point x="87" y="314" type="line"/>
			<point x="-176" y="629" type="line"/>
			<point x="-364" y="629" type="line"/>
			<point x="-254" y="498" type="line"/>
			<point x="-1044" y="498" type="line"/>
			<point x="-1044" y="359" type="line"/>
			<point x="-136" y="359" type="line"/>
			<point x="-101" y="317" type="line"/>
			<point x="-139" y="270" type="line"/>
			<point x="-1044" y="270" type="line"/>
		</contour>
	</outline>
</glyph>
<glyph name="equal_less_less.rem" format="2">
	<advance width="600"/>
	<outline>
		<contour>
			<point x="518" y="629" type="line"/>
			<point x="326" y="629" type="line"/>
			<point x="63" y="315" type="line"/>
			<point x="329" y="0" type="line"/>
			<point x="521" y="0" type="line"/>
			<point x="252" y="314" type="line"/>
		</contour>
		<contour>
			<point x="119" y="629" type="line"/>
			<point x="-71" y="629" type="line"/>
			<point x="-175" y="498" type="line"/>
			<point x="-1044" y="498" type="line"/>
			<point x="-1044" y="359" type="line"/>
			<point x="-100" y="359" type="line"/>
		</contour>
		<contour>
			<point x="-101" y="270" type="line"/>
			<point x="-1044" y="270" type="line"/>
			<point x="-1044" y="131" type="line"/>
			<point x="-174" y="131" type="line"/>
			<point x="-68" y="0" type="line"/>
			<point x="122" y="0" type="line"/>
		</contour>
	</outline>
</glyph>
<glyph name="exclam_asciitilde.cLig" format="2">
	<advance width="600"/>
	<outline>
		<contour>
			<point x="-320" y="101" type="line"/>
			<point x="-193" y="101" type="line"/>
			<point x="-307" y="-80" type="line"/>
			<point x="-162" y="-80" type="line"/>
			<point x="-49" y="101" type="line"/>
			<point x="320" y="101" type="line"/>
			<point x="320" y="240" type="line"/>
			<point x="39" y="240" type="line"/>
			<point x="82" y="308" type="line"/>
			<point x="106" y="302"/>
			<point x="132" y="298"/>
			<point x="162" y="298" type="curve" smooth="yes"/>
			<point x="233" y="298"/>
			<point x="290" y="327"/>
			<point x="320" y="371" type="curve"/>
			<point x="320" y="521" type="line"/>
			<point x="271" y="458"/>
			<point x="228" y="441"/>
			<point x="165" y="440" type="curve"/>
			<point x="294" y="644" type="line"/>
			<point x="149" y="644" type="line"/>
			<point x="40" y="469" type="line"/>
			<point x="-19" y="493"/>
			<point x="-81" y="523"/>
			<point x="-155" y="523" type="curve" smooth="yes"/>
			<point x="-223" y="523"/>
			<point x="-290" y="495"/>
			<point x="-320" y="451" type="curve"/>
			<point x="-320" y="300" type="line"/>
			<point x="-280" y="355"/>
			<point x="-218" y="381"/>
			<point x="-155" y="381" type="curve" smooth="yes"/>
			<point x="-111" y="381"/>
			<point x="-74" y="367"/>
			<point x="-35" y="351" type="curve"/>
			<point x="-105" y="240" type="line"/>
			<point x="-320" y="240" type="line"/>
		</contour>
	</outline>
</glyph>
<glyph name="exclam_equal.med" format="2">
	<advance width="600"/>
	<outline>
		<contour>
			<point x="239" y="241" type="line"/>
			<point x="359" y="241" type="line"/>
			<point x="391" y="565" type="line"/>
			<point x="391" y="684" type="line"/>
			<point x="208" y="684" type="line"/>
			<point x="208" y="565" type="line"/>
		</contour>
		<contour>
			<point x="506" y="359" type="line"/>
			<point x="600" y="359" type="line"/>
			<point x="600" y="498" type="line"/>
			<point x="506" y="498" type="line"/>
		</contour>
		<contour>
			<point x="0" y="359" type="line"/>
			<point x="94" y="359" type="line"/>
			<point x="94" y="498" type="line"/>
			<point x="0" y="498" type="line"/>
		</contour>
		<contour>
			<point x="506" y="131" type="line"/>
			<point x="600" y="131" type="line"/>
			<point x="600" y="270" type="line"/>
			<point x="506" y="270" type="line"/>
		</contour>
		<contour>
			<point x="0" y="131" type="line"/>
			<point x="94" y="131" type="line"/>
			<point x="94" y="270" type="line"/>
			<point x="0" y="270" type="line"/>
		</contour>
		<contour>
			<point x="301" y="-12" type="curve" smooth="yes"/>
			<point x="369" y="-12"/>
			<point x="403" y="13"/>
			<point x="403" y="81" type="curve" smooth="yes"/>
			<point x="403" y="146"/>
			<point x="369" y="173"/>
			<point x="301" y="173" type="curve" smooth="yes"/>
			<point x="231" y="173"/>
			<point x="197" y="146"/>
			<point x="197" y="81" type="curve" smooth="yes"/>
			<point x="197" y="13"/>
			<point x="231" y="-12"/>
		</contour>
	</outline>
</glyph>
<glyph name="exclam_exclam.cLig" format="2">
	<advance width="600"/>
	<outline>
		<contour>
			<point x="-288" y="241" type="line"/>
			<point x="-168" y="241" type="line"/>
			<point x="-136" y="565" type="line"/>
			<point x="-136" y="684" type="line"/>
			<point x="-319" y="684" type="line"/>
			<point x="-319" y="565" type="line"/>
		</contour>
		<contour>
			<point x="-226" y="-12" type="curve" smooth="yes"/>
			<point x="-158" y="-12"/>
			<point x="-124" y="13"/>
			<point x="-124" y="81" type="curve" smooth="yes"/>
			<point x="-124" y="146"/>
			<point x="-158" y="173"/>
			<point x="-226" y="173" type="curve" smooth="yes"/>
			<point x="-296" y="173"/>
			<point x="-330" y="146"/>
			<point x="-330" y="81" type="curve" smooth="yes"/>
			<point x="-330" y="13"/>
			<point x="-296" y="-12"/>
		</contour>
		<contour>
			<point x="166" y="241" type="line"/>
			<point x="286" y="241" type="line"/>
			<point x="318" y="565" type="line"/>
			<point x="318" y="684" type="line"/>
			<point x="135" y="684" type="line"/>
			<point x="135" y="565" type="line"/>
		</contour>
		<contour>
			<point x="228" y="-12" type="curve" smooth="yes"/>
			<point x="296" y="-12"/>
			<point x="330" y="13"/>
			<point x="330" y="81" type="curve" smooth="yes"/>
			<point x="330" y="146"/>
			<point x="296" y="173"/>
			<point x="228" y="173" type="curve" smooth="yes"/>
			<point x="158" y="173"/>
			<point x="124" y="146"/>
			<point x="124" y="81" type="curve" smooth="yes"/>
			<point x="124" y="13"/>
			<point x="158" y="-12"/>
		</contour>
	</outline>
</glyph>
<glyph name="five.den" format="2">
	<advance width="600"/>
	<outline>
		<contour>
			<point x="292" y="-8" type="curve" smooth="yes"/>
			<point x="393" y="-8"/>
			<point x="456" y="51"/>
			<point x="456" y="139" type="curve" smooth="yes"/>
			<point x="456" y="220"/>
			<point x="412" y="257"/>
			<point x="318" y="257" type="curve" smooth="yes"/>
			<point x="300" y="257"/>
			<point x="282" y="256"/>
			<point x="264" y="253" type="curve"/>
			<point x="265" y="324" type="line"/>
			<point x="445" y="324" type="line"/>
			<point x="445" y="410" type="line"/>
			<point x="164" y="410" type="line"/>
			<point x="164" y="167" type="line"/>
			<point x="206" y="176"/>
			<point x="234" y="180"/>
			<point x="267" y="180" type="curve" smooth="yes"/>
			<point x="325" y="180"/>
			<point x="345" y="162"/>
			<point x="345" y="134" type="curve" smooth="yes"/>
			<point x="345" y="103"/>
			<point x="326" y="81"/>
			<point x="279" y="81" type="curve" smooth="yes"/>
			<point x="236" y="81"/>
			<point x="190" y="94"/>
			<point x="149" y="118" type="curve"/>
			<point x="149" y="27" type="line"/>
			<point x="187" y="4"/>
			<point x="235" y="-8"/>
		</contour>
	</outline>
</glyph>
<glyph name="five.numr" format="2">
	<advance width="600"/>
	<outline>
		<contour>
			<point x="292" y="366" type="curve" smooth="yes"/>
			<point x="379" y="366"/>
			<point x="432" y="415"/>
			<point x="432" y="490" type="curve" smooth="yes"/>
			<point x="432" y="559"/>
			<point x="395" y="590"/>
			<point x="315" y="590" type="curve" smooth="yes"/>
			<point x="299" y="590"/>
			<point x="286" y="589"/>
			<point x="273" y="587" type="curve"/>
			<point x="273" y="641" type="line"/>
			<point x="424" y="641" type="line"/>
			<point x="424" y="718" type="line"/>
			<point x="185" y="718" type="line"/>
			<point x="185" y="512" type="line"/>
			<point x="220" y="518"/>
			<point x="246" y="521"/>
			<point x="270" y="521" type="curve" smooth="yes"/>
			<point x="318" y="521"/>
			<point x="334" y="507"/>
			<point x="334" y="485" type="curve" smooth="yes"/>
			<point x="334" y="463"/>
			<point x="319" y="444"/>
			<point x="280" y="444" type="curve" smooth="yes"/>
			<point x="246" y="444"/>
			<point x="209" y="453"/>
			<point x="171" y="474" type="curve"/>
			<point x="171" y="393" type="line"/>
			<point x="203" y="375"/>
			<point x="243" y="366"/>
		</contour>
	</outline>
</glyph>
<glyph name="greater_colon.cLig.x" format="2">
	<advance width="600"/>
	<outline>
		<contour>
			<point x="-436" y="-12" type="line"/>
			<point x="15" y="222" type="line"/>
			<point x="15" y="407" type="line"/>
			<point x="-436" y="643" type="line"/>
			<point x="-436" y="481" type="line"/>
			<point x="-103" y="315" type="line"/>
			<point x="-436" y="146" type="line"/>
		</contour>
		<contour>
			<point x="302" y="375" type="curve" smooth="yes"/>
			<point x="376" y="375"/>
			<point x="415" y="403"/>
			<point x="415" y="477" type="curve" smooth="yes"/>
			<point x="415" y="551"/>
			<point x="376" y="578"/>
			<point x="302" y="578" type="curve" smooth="yes"/>
			<point x="228" y="578"/>
			<point x="189" y="551"/>
			<point x="189" y="477" type="curve" smooth="yes"/>
			<point x="189" y="403"/>
			<point x="228" y="375"/>
		</contour>
		<contour>
			<point x="302" y="35" type="curve" smooth="yes"/>
			<point x="376" y="35"/>
			<point x="415" y="63"/>
			<point x="415" y="137" type="curve" smooth="yes"/>
			<point x="415" y="211"/>
			<point x="376" y="238"/>
			<point x="302" y="238" type="curve" smooth="yes"/>
			<point x="228" y="238"/>
			<point x="189" y="211"/>
			<point x="189" y="137" type="curve" smooth="yes"/>
			<point x="189" y="63"/>
			<point x="228" y="35"/>
		</contour>
	</outline>
</glyph>
<glyph name="greater_equal.cLig" format="2">
	<advance width="600"/>
	<outline>
		<contour>
			<point x="-292" y="158" type="line"/>
			<point x="295" y="360" type="line"/>
			<point x="295" y="545" type="line"/>
			<point x="-292" y="748" type="line"/>
			<point x="-292" y="597" type="line"/>
			<point x="163" y="455" type="line"/>
			<point x="-292" y="309" type="line"/>
		</contour>
		<contour>
			<point x="-292" y="-76" type="line"/>
			<point x="295" y="123" type="line"/>
			<point x="295" y="264" type="line"/>
			<point x="-292" y="65" type="line"/>
		</contour>
	</outline>
</glyph>
<glyph name="greater_equal.fina" format="2">
	<advance width="600"/>
	<outline>
		<contour>
			<point x="113" y="0" type="line"/>
			<point x="301" y="0" type="line"/>
			<point x="560" y="314" type="line"/>
			<point x="298" y="629" type="line"/>
			<point x="110" y="629" type="line"/>
			<point x="220" y="498" type="line"/>
			<point x="0" y="498" type="line"/>
			<point x="0" y="359" type="line"/>
			<point x="337" y="359" type="line"/>
			<point x="372" y="317" type="line"/>
			<point x="334" y="270" type="line"/>
			<point x="0" y="270" type="line"/>
			<point x="0" y="131" type="line"/>
			<point x="220" y="131" type="line"/>
		</contour>
	</outline>
</glyph>
<glyph name="greater_equal.init" format="2">
	<advance width="600"/>
	<outline>
		<contour>
			<point x="271" y="359" type="line"/>
			<point x="600" y="359" type="line"/>
			<point x="600" y="498" type="line"/>
			<point x="344" y="498" type="line"/>
			<point x="238" y="629" type="line"/>
			<point x="48" y="629" type="line"/>
		</contour>
		<contour>
			<point x="51" y="0" type="line"/>
			<point x="241" y="0" type="line"/>
			<point x="345" y="131" type="line"/>
			<point x="600" y="131" type="line"/>
			<point x="600" y="270" type="line"/>
			<point x="270" y="270" type="line"/>
		</contour>
	</outline>
</glyph>
<glyph name="greater_greater_equal.fina" format="2">
	<advance width="600"/>
	<outline>
		<contour>
			<point x="46" y="0" type="line"/>
			<point x="233" y="0" type="line"/>
			<point x="494" y="314" type="line"/>
			<point x="231" y="629" type="line"/>
			<point x="43" y="629" type="line"/>
			<point x="305" y="317" type="line"/>
		</contour>
		<contour>
			<point x="-600" y="131" type="line"/>
			<point x="-239" y="131" type="line"/>
			<point x="-346" y="0" type="line"/>
			<point x="-158" y="0" type="line"/>
			<point x="102" y="314" type="line"/>
			<point x="-161" y="629" type="line"/>
			<point x="-349" y="629" type="line"/>
			<point x="-239" y="498" type="line"/>
			<point x="-600" y="498" type="line"/>
			<point x="-600" y="359" type="line"/>
			<point x="-121" y="359" type="line"/>
			<point x="-86" y="317" type="line"/>
			<point x="-124" y="270" type="line"/>
			<point x="-600" y="270" type="line"/>
		</contour>
	</outline>
</glyph>
<glyph name="greater_greater_equal.rem" format="2">
	<advance width="600"/>
	<outline>
		<contour>
			<point x="-1118" y="0" type="line"/>
			<point x="-926" y="0" type="line"/>
			<point x="-663" y="314" type="line"/>
			<point x="-929" y="629" type="line"/>
			<point x="-1121" y="629" type="line"/>
			<point x="-852" y="315" type="line"/>
		</contour>
		<contour>
			<point x="-499" y="359" type="line"/>
			<point x="444" y="359" type="line"/>
			<point x="444" y="498" type="line"/>
			<point x="-426" y="498" type="line"/>
			<point x="-532" y="629" type="line"/>
			<point x="-722" y="629" type="line"/>
		</contour>
		<contour>
			<point x="-719" y="0" type="line"/>
			<point x="-529" y="0" type="line"/>
			<point x="-425" y="131" type="line"/>
			<point x="444" y="131" type="line"/>
			<point x="444" y="270" type="line"/>
			<point x="-500" y="270" type="line"/>
		</contour>
	</outline>
</glyph>
<glyph name="greater_greater_hyphen.fina" format="2">
	<advance width="600"/>
	<outline>
		<contour>
			<point x="46" y="0" type="line"/>
			<point x="233" y="0" type="line"/>
			<point x="494" y="314" type="line"/>
			<point x="230" y="629" type="line"/>
			<point x="43" y="629" type="line"/>
			<point x="304" y="317" type="line"/>
		</contour>
		<contour>
			<point x="-600" y="239" type="line"/>
			<point x="-137" y="239" type="line"/>
			<point x="-347" y="0" type="line"/>
			<point x="-157" y="0" type="line"/>
			<point x="110" y="314" type="line"/>
			<point x="-160" y="629" type="line"/>
			<point x="-350" y="629" type="line"/>
			<point x="-137" y="389" type="line"/>
			<point x="-600" y="389" type="line"/>
		</contour>
	</outline>
</glyph>
<glyph name="greater_greater_hyphen.init" format="2">
	<advance width="600"/>
	<outline>
		<contour>
			<point x="-516" y="0" type="line"/>
			<point x="-323" y="0" type="line"/>
			<point x="-60" y="314" type="line"/>
			<point x="-326" y="629" type="line"/>
			<point x="-519" y="629" type="line"/>
			<point x="-247" y="315" type="line"/>
		</contour>
		<contour>
			<point x="-121" y="0" type="line"/>
			<point x="71" y="0" type="line"/>
			<point x="272" y="239" type="line"/>
			<point x="600" y="239" type="line"/>
			<point x="600" y="389" type="line"/>
			<point x="271" y="389" type="line"/>
			<point x="68" y="629" type="line"/>
			<point x="-124" y="629" type="line"/>
			<point x="144" y="315" type="line"/>
		</contour>
	</outline>
</glyph>
<glyph name="greater_hyphen.fina" format="2">
	<advance width="600"/>
	<outline>
		<contour>
			<point x="74" y="629" type="line"/>
			<point x="287" y="389" type="line"/>
			<point x="0" y="389" type="line"/>
			<point x="0" y="239" type="line"/>
			<point x="287" y="239" type="line"/>
			<point x="77" y="0" type="line"/>
			<point x="267" y="0" type="line"/>
			<point x="534" y="314" type="line"/>
			<point x="264" y="629" type="line"/>
		</contour>
	</outline>
</glyph>
<glyph name="greater_hyphen.init" format="2">
	<advance width="600"/>
	<outline>
		<contour>
			<point x="84" y="0" type="line"/>
			<point x="276" y="0" type="line"/>
			<point x="477" y="239" type="line"/>
			<point x="600" y="239" type="line"/>
			<point x="600" y="389" type="line"/>
			<point x="476" y="389" type="line"/>
			<point x="273" y="629" type="line"/>
			<point x="81" y="629" type="line"/>
			<point x="349" y="315" type="line"/>
		</contour>
	</outline>
</glyph>
<glyph name="greater_hyphen.rem" format="2">
	<advance width="600"/>
	<outline>
		<contour>
			<point x="-492" y="0" type="line"/>
			<point x="-300" y="0" type="line"/>
			<point x="-99" y="239" type="line"/>
			<point x="468" y="239" type="line"/>
			<point x="468" y="389" type="line"/>
			<point x="-100" y="389" type="line"/>
			<point x="-303" y="629" type="line"/>
			<point x="-495" y="629" type="line"/>
			<point x="-227" y="315" type="line"/>
		</contour>
	</outline>
</glyph>
<glyph name="hyphen_asciitilde.cLig" format="2">
	<advance width="600"/>
	<outline>
		<contour>
			<point x="-435" y="231" type="line"/>
			<point x="15" y="231" type="line"/>
			<point x="20" y="270"/>
			<point x="37" y="297"/>
			<point x="69" y="297" type="curve" smooth="yes"/>
			<point x="127" y="297"/>
			<point x="162" y="180"/>
			<point x="276" y="180" type="curve" smooth="yes"/>
			<point x="374" y="180"/>
			<point x="427" y="248"/>
			<point x="427" y="432" type="curve"/>
			<point x="302" y="432" type="line"/>
			<point x="302" y="364"/>
			<point x="290" y="333"/>
			<point x="252" y="333" type="curve"/>
			<point x="198" y="333"/>
			<point x="150" y="447"/>
			<point x="48" y="447" type="curve" smooth="yes"/>
			<point x="-5" y="447"/>
			<point x="-43" y="426"/>
			<point x="-67" y="380" type="curve"/>
			<point x="-435" y="380" type="line"/>
		</contour>
	</outline>
</glyph>
<glyph name="hyphen_braceright.rem" format="2">
	<advance width="600"/>
	<outline>
		<contour>
			<point x="-12" y="-163" type="line"/>
			<point x="183" y="-163" type="line" smooth="yes"/>
			<point x="295" y="-163"/>
			<point x="357" y="-106"/>
			<point x="357" y="-31" type="curve" smooth="yes"/>
			<point x="357" y="59"/>
			<point x="270" y="116"/>
			<point x="270" y="175" type="curve" smooth="yes"/>
			<point x="270" y="212"/>
			<point x="290" y="244"/>
			<point x="352" y="244" type="curve" smooth="yes"/>
			<point x="434" y="244" type="line"/>
			<point x="434" y="382" type="line"/>
			<point x="352" y="382" type="line" smooth="yes"/>
			<point x="290" y="382"/>
			<point x="270" y="411"/>
			<point x="270" y="443" type="curve" smooth="yes"/>
			<point x="270" y="505"/>
			<point x="357" y="566"/>
			<point x="357" y="658" type="curve" smooth="yes"/>
			<point x="357" y="734"/>
			<point x="295" y="792"/>
			<point x="183" y="792" type="curve" smooth="yes"/>
			<point x="-12" y="792" type="line"/>
			<point x="-12" y="672" type="line"/>
			<point x="122" y="672" type="line" smooth="yes"/>
			<point x="162" y="672"/>
			<point x="183" y="659"/>
			<point x="183" y="630" type="curve" smooth="yes"/>
			<point x="183" y="580"/>
			<point x="101" y="532"/>
			<point x="101" y="469" type="curve" smooth="yes"/>
			<point x="101" y="424"/>
			<point x="140" y="399"/>
			<point x="198" y="385" type="curve"/>
			<point x="-444" y="385" type="line"/>
			<point x="-444" y="243" type="line"/>
			<point x="190" y="243" type="line"/>
			<point x="136" y="224"/>
			<point x="101" y="198"/>
			<point x="101" y="155" type="curve" smooth="yes"/>
			<point x="101" y="92"/>
			<point x="183" y="50"/>
			<point x="183" y="0" type="curve" smooth="yes"/>
			<point x="183" y="-26"/>
			<point x="163" y="-43"/>
			<point x="115" y="-43" type="curve" smooth="yes"/>
			<point x="-12" y="-43" type="line"/>
		</contour>
	</outline>
</glyph>
<glyph name="hyphen_greater_greater.rem" format="2">
	<advance width="600"/>
	<outline>
		<contour>
			<point x="31" y="0" type="line"/>
			<point x="219" y="0" type="line"/>
			<point x="478" y="314" type="line"/>
			<point x="216" y="629" type="line"/>
			<point x="28" y="629" type="line"/>
			<point x="290" y="317" type="line"/>
		</contour>
		<contour>
			<point x="-1048" y="239" type="line"/>
			<point x="-161" y="239" type="line"/>
			<point x="-371" y="0" type="line"/>
			<point x="-181" y="0" type="line"/>
			<point x="87" y="314" type="line"/>
			<point x="-184" y="629" type="line"/>
			<point x="-374" y="629" type="line"/>
			<point x="-161" y="389" type="line"/>
			<point x="-1048" y="389" type="line"/>
		</contour>
	</outline>
</glyph>
<glyph name="hyphen_hyphen.cLig" format="2">
	<advance width="600"/>
	<outline>
		<contour>
			<point x="-81" y="367" type="line"/>
			<point x="-445" y="367" type="line"/>
			<point x="-445" y="219" type="line"/>
			<point x="-81" y="219" type="line"/>
		</contour>
		<contour>
			<point x="444" y="367" type="line"/>
			<point x="80" y="367" type="line"/>
			<point x="80" y="219" type="line"/>
			<point x="444" y="219" type="line"/>
		</contour>
	</outline>
</glyph>
<glyph name="less_asciitilde.cLig" format="2">
	<advance width="600"/>
	<outline>
		<contour>
			<point x="-64" y="0" type="line"/>
			<point x="-277" y="240" type="line"/>
			<point x="93" y="240" type="line"/>
			<point x="98" y="279"/>
			<point x="115" y="306"/>
			<point x="147" y="306" type="curve" smooth="yes"/>
			<point x="205" y="306"/>
			<point x="240" y="189"/>
			<point x="354" y="189" type="curve" smooth="yes"/>
			<point x="452" y="189"/>
			<point x="505" y="257"/>
			<point x="505" y="441" type="curve"/>
			<point x="380" y="441" type="line"/>
			<point x="380" y="373"/>
			<point x="368" y="342"/>
			<point x="330" y="342" type="curve"/>
			<point x="276" y="342"/>
			<point x="228" y="456"/>
			<point x="126" y="456" type="curve" smooth="yes"/>
			<point x="73" y="456"/>
			<point x="35" y="435"/>
			<point x="11" y="389" type="curve"/>
			<point x="10" y="389" type="line"/>
			<point x="10" y="390" type="line"/>
			<point x="-277" y="390" type="line"/>
			<point x="-67" y="629" type="line"/>
			<point x="-257" y="629" type="line"/>
			<point x="-524" y="315" type="line"/>
			<point x="-254" y="0" type="line"/>
		</contour>
	</outline>
</glyph>
<glyph name="less_asciitilde_greater.cLig" format="2">
	<advance width="600"/>
	<outline>
		<contour>
			<point x="-815" y="0" type="line"/>
			<point x="-626" y="0" type="line"/>
			<point x="-838" y="240" type="line"/>
			<point x="-472" y="240" type="line"/>
			<point x="-471" y="279"/>
			<point x="-449" y="309"/>
			<point x="-412" y="309" type="curve" smooth="yes"/>
			<point x="-328" y="309"/>
			<point x="-314" y="170"/>
			<point x="-172" y="170" type="curve" smooth="yes"/>
			<point x="-118" y="170"/>
			<point x="-73" y="195"/>
			<point x="-49" y="240" type="curve"/>
			<point x="238" y="240" type="line"/>
			<point x="29" y="0" type="line"/>
			<point x="218" y="0" type="line"/>
			<point x="486" y="314" type="line"/>
			<point x="215" y="629" type="line"/>
			<point x="25" y="629" type="line"/>
			<point x="238" y="390" type="line"/>
			<point x="-128" y="390" type="line"/>
			<point x="-130" y="351"/>
			<point x="-147" y="321"/>
			<point x="-184" y="321" type="curve" smooth="yes"/>
			<point x="-258" y="321"/>
			<point x="-288" y="460"/>
			<point x="-425" y="460" type="curve" smooth="yes"/>
			<point x="-479" y="460"/>
			<point x="-527" y="435"/>
			<point x="-551" y="390" type="curve"/>
			<point x="-838" y="390" type="line"/>
			<point x="-629" y="629" type="line"/>
			<point x="-818" y="629" type="line"/>
			<point x="-1086" y="315" type="line"/>
		</contour>
	</outline>
</glyph>
<glyph name="less_asterisk_greater.cLig" format="2">
	<advance width="600"/>
	<outline>
		<contour>
			<point x="37" y="-12" type="line"/>
			<point x="488" y="222" type="line"/>
			<point x="488" y="407" type="line"/>
			<point x="37" y="643" type="line"/>
			<point x="37" y="483" type="line"/>
			<point x="371" y="317" type="line"/>
			<point x="37" y="148" type="line"/>
		</contour>
		<contour>
			<point x="-637" y="-12" type="line"/>
			<point x="-637" y="148" type="line"/>
			<point x="-971" y="317" type="line"/>
			<point x="-637" y="483" type="line"/>
			<point x="-637" y="643" type="line"/>
			<point x="-1088" y="407" type="line"/>
			<point x="-1088" y="222" type="line"/>
		</contour>
		<contour>
			<point x="-124" y="127" type="line"/>
			<point x="-45" y="263" type="line"/>
			<point x="-227" y="320" type="line"/>
			<point x="-44" y="376" type="line"/>
			<point x="-123" y="512" type="line"/>
			<point x="-263" y="383" type="line"/>
			<point x="-220" y="569" type="line"/>
			<point x="-378" y="569" type="line"/>
			<point x="-335" y="382" type="line"/>
			<point x="-476" y="513" type="line"/>
			<point x="-555" y="377" type="line"/>
			<point x="-372" y="320" type="line"/>
			<point x="-555" y="264" type="line"/>
			<point x="-476" y="128" type="line"/>
			<point x="-335" y="258" type="line"/>
			<point x="-378" y="71" type="line"/>
			<point x="-220" y="71" type="line"/>
			<point x="-263" y="256" type="line"/>
		</contour>
	</outline>
</glyph>
<glyph name="less_dollar.cLig" format="2">
	<advance width="600"/>
	<outline>
		<contour>
			<point x="145" y="-92" type="line"/>
			<point x="253" y="-92" type="line"/>
			<point x="266" y="-11" type="line"/>
			<point x="271" y="-11" type="line" smooth="yes"/>
			<point x="433" y="-9"/>
			<point x="537" y="66"/>
			<point x="537" y="223" type="curve" smooth="yes"/>
			<point x="537" y="349"/>
			<point x="446" y="392"/>
			<point x="326" y="416" type="curve"/>
			<point x="350" y="556" type="line"/>
			<point x="408" y="546"/>
			<point x="470" y="526"/>
			<point x="519" y="495" type="curve"/>
			<point x="519" y="638" type="line"/>
			<point x="488" y="656"/>
			<point x="441" y="674"/>
			<point x="387" y="684" type="curve"/>
			<point x="401" y="775" type="line"/>
			<point x="294" y="775" type="line"/>
			<point x="281" y="695" type="line"/>
			<point x="278" y="695" type="line" smooth="yes"/>
			<point x="120" y="695"/>
			<point x="15" y="618"/>
			<point x="15" y="472" type="curve" smooth="yes"/>
			<point x="15" y="338"/>
			<point x="97" y="300"/>
			<point x="222" y="274" type="curve"/>
			<point x="197" y="130" type="line"/>
			<point x="125" y="142"/>
			<point x="43" y="171"/>
			<point x="-82" y="213" type="curve" smooth="yes"/>
			<point x="-390" y="321" type="line"/>
			<point x="-95" y="451" type="line"/>
			<point x="-95" y="610" type="line"/>
			<point x="-533" y="407" type="line"/>
			<point x="-533" y="222" type="line"/>
			<point x="-138" y="76" type="line" smooth="yes"/>
			<point x="-23" y="35"/>
			<point x="71" y="8"/>
			<point x="160" y="-4" type="curve"/>
		</contour>
		<contour>
			<point x="179" y="494" type="curve" smooth="yes"/>
			<point x="179" y="545"/>
			<point x="220" y="563"/>
			<point x="273" y="563" type="curve"/>
			<point x="249" y="430" type="line"/>
			<point x="204" y="441"/>
			<point x="179" y="456"/>
		</contour>
		<contour>
			<point x="373" y="194" type="curve" smooth="yes"/>
			<point x="373" y="149"/>
			<point x="338" y="126"/>
			<point x="276" y="124" type="curve"/>
			<point x="299" y="259" type="line"/>
			<point x="346" y="247"/>
			<point x="373" y="230"/>
		</contour>
	</outline>
</glyph>
<glyph name="less_equal_less.rem" format="2">
	<advance width="600"/>
	<outline>
		<contour>
			<point x="285" y="270" type="line"/>
			<point x="-862" y="270" type="line"/>
			<point x="-897" y="312" type="line"/>
			<point x="-859" y="359" type="line"/>
			<point x="286" y="359" type="line"/>
			<point x="505" y="629" type="line"/>
			<point x="315" y="629" type="line"/>
			<point x="211" y="498" type="line"/>
			<point x="-745" y="498" type="line"/>
			<point x="-638" y="629" type="line"/>
			<point x="-826" y="629" type="line"/>
			<point x="-1085" y="315" type="line"/>
			<point x="-823" y="0" type="line"/>
			<point x="-635" y="0" type="line"/>
			<point x="-745" y="131" type="line"/>
			<point x="212" y="131" type="line"/>
			<point x="318" y="0" type="line"/>
			<point x="508" y="0" type="line"/>
		</contour>
	</outline>
</glyph>
<glyph name="less_exclam_hyphen_hyphen.cLig" format="2">
	<advance width="600"/>
	<outline>
		<contour>
			<point x="-1007" y="241" type="line"/>
			<point x="-887" y="241" type="line"/>
			<point x="-855" y="565" type="line"/>
			<point x="-855" y="684" type="line"/>
			<point x="-1038" y="684" type="line"/>
			<point x="-1038" y="565" type="line"/>
		</contour>
		<contour>
			<point x="-1219" y="0" type="line"/>
			<point x="-1432" y="240" type="line"/>
			<point x="-1145" y="240" type="line"/>
			<point x="-1145" y="390" type="line"/>
			<point x="-1432" y="390" type="line"/>
			<point x="-1222" y="629" type="line"/>
			<point x="-1412" y="629" type="line"/>
			<point x="-1679" y="315" type="line"/>
			<point x="-1409" y="0" type="line"/>
		</contour>
		<contour>
			<point x="444" y="389" type="line"/>
			<point x="-739" y="389" type="line"/>
			<point x="-739" y="239" type="line"/>
			<point x="444" y="239" type="line"/>
		</contour>
		<contour>
			<point x="-945" y="-12" type="curve" smooth="yes"/>
			<point x="-877" y="-12"/>
			<point x="-843" y="13"/>
			<point x="-843" y="81" type="curve" smooth="yes"/>
			<point x="-843" y="146"/>
			<point x="-877" y="173"/>
			<point x="-945" y="173" type="curve" smooth="yes"/>
			<point x="-1015" y="173"/>
			<point x="-1049" y="146"/>
			<point x="-1049" y="81" type="curve" smooth="yes"/>
			<point x="-1049" y="13"/>
			<point x="-1015" y="-12"/>
		</contour>
	</outline>
</glyph>
<glyph name="less_greater.cLig" format="2">
	<advance width="600"/>
	<outline>
		<contour>
			<point x="0" y="-87" type="line"/>
			<point x="453" y="221" type="line"/>
			<point x="453" y="406" type="line"/>
			<point x="0" y="707" type="line"/>
			<point x="-453" y="407" type="line"/>
			<point x="-453" y="222" type="line"/>
		</contour>
		<contour>
			<point x="0" y="536" type="line"/>
			<point x="335" y="313" type="line"/>
			<point x="0" y="85" type="line"/>
			<point x="-334" y="315" type="line"/>
		</contour>
	</outline>
</glyph>
<glyph name="less_hyphen_hyphen.rem" format="2">
	<advance width="600"/>
	<outline>
		<contour>
			<point x="-612" y="0" type="line"/>
			<point x="-826" y="240" type="line"/>
			<point x="444" y="240" type="line"/>
			<point x="444" y="390" type="line"/>
			<point x="-826" y="390" type="line"/>
			<point x="-616" y="629" type="line"/>
			<point x="-805" y="629" type="line"/>
			<point x="-1073" y="315" type="line"/>
			<point x="-802" y="0" type="line"/>
		</contour>
	</outline>
</glyph>
<glyph name="less_hyphen_less.rem" format="2">
	<advance width="600"/>
	<outline>
		<contour>
			<point x="-619" y="-1" type="line"/>
			<point x="-832" y="239" type="line"/>
			<point x="96" y="239" type="line"/>
			<point x="299" y="-1" type="line"/>
			<point x="491" y="-1" type="line"/>
			<point x="223" y="313" type="line"/>
			<point x="488" y="628" type="line"/>
			<point x="296" y="628" type="line"/>
			<point x="95" y="389" type="line"/>
			<point x="-832" y="389" type="line"/>
			<point x="-622" y="628" type="line"/>
			<point x="-812" y="628" type="line"/>
			<point x="-1079" y="314" type="line"/>
			<point x="-809" y="-1" type="line"/>
		</contour>
	</outline>
</glyph>
<glyph name="less_less_equal.init" format="2">
	<advance width="600"/>
	<outline>
		<contour>
			<point x="-46" y="629" type="line"/>
			<point x="-233" y="629" type="line"/>
			<point x="-494" y="315" type="line"/>
			<point x="-231" y="0" type="line"/>
			<point x="-43" y="0" type="line"/>
			<point x="-305" y="312" type="line"/>
		</contour>
		<contour>
			<point x="600" y="498" type="line"/>
			<point x="239" y="498" type="line"/>
			<point x="346" y="629" type="line"/>
			<point x="158" y="629" type="line"/>
			<point x="-102" y="315" type="line"/>
			<point x="161" y="0" type="line"/>
			<point x="349" y="0" type="line"/>
			<point x="239" y="131" type="line"/>
			<point x="600" y="131" type="line"/>
			<point x="600" y="270" type="line"/>
			<point x="121" y="270" type="line"/>
			<point x="86" y="312" type="line"/>
			<point x="124" y="359" type="line"/>
			<point x="600" y="359" type="line"/>
		</contour>
	</outline>
</glyph>
<glyph name="less_less_hyphen.init" format="2">
	<advance width="600"/>
	<outline>
		<contour>
			<point x="-46" y="629" type="line"/>
			<point x="-233" y="629" type="line"/>
			<point x="-494" y="315" type="line"/>
			<point x="-230" y="0" type="line"/>
			<point x="-43" y="0" type="line"/>
			<point x="-304" y="312" type="line"/>
		</contour>
		<contour>
			<point x="600" y="390" type="line"/>
			<point x="137" y="390" type="line"/>
			<point x="347" y="629" type="line"/>
			<point x="157" y="629" type="line"/>
			<point x="-110" y="315" type="line"/>
			<point x="160" y="0" type="line"/>
			<point x="350" y="0" type="line"/>
			<point x="137" y="240" type="line"/>
			<point x="600" y="240" type="line"/>
		</contour>
	</outline>
</glyph>
<glyph name="less_less_hyphen_greater_greater.rem" format="2">
	<advance width="600"/>
	<outline>
		<contour>
			<point x="-1235" y="0" type="line"/>
			<point x="-1493" y="317" type="line"/>
			<point x="-1232" y="629" type="line"/>
			<point x="-1420" y="629" type="line"/>
			<point x="-1682" y="314" type="line"/>
			<point x="-1423" y="0" type="line"/>
		</contour>
		<contour>
			<point x="-830" y="629" type="line"/>
			<point x="-1020" y="629" type="line"/>
			<point x="-1290" y="314" type="line"/>
			<point x="-1023" y="0" type="line"/>
			<point x="-833" y="0" type="line"/>
			<point x="-1043" y="239" type="line"/>
			<point x="-157" y="239" type="line"/>
			<point x="-367" y="0" type="line"/>
			<point x="-177" y="0" type="line"/>
			<point x="91" y="314" type="line"/>
			<point x="-180" y="629" type="line"/>
			<point x="-370" y="629" type="line"/>
			<point x="-157" y="389" type="line"/>
			<point x="-1043" y="389" type="line"/>
		</contour>
		<contour>
			<point x="35" y="0" type="line"/>
			<point x="223" y="0" type="line"/>
			<point x="482" y="314" type="line"/>
			<point x="220" y="629" type="line"/>
			<point x="32" y="629" type="line"/>
			<point x="294" y="317" type="line"/>
		</contour>
	</outline>
</glyph>
<glyph name="less_less_less.cLig" format="2">
	<advance width="600"/>
	<outline>
		<contour>
			<point x="-644" y="9" type="line"/>
			<point x="-644" y="167" type="line"/>
			<point x="-983" y="294" type="line"/>
			<point x="-644" y="419" type="line"/>
			<point x="-644" y="578" type="line"/>
			<point x="-1120" y="384" type="line"/>
			<point x="-1120" y="201" type="line"/>
		</contour>
		<contour>
			<point x="-63" y="9" type="line"/>
			<point x="-63" y="167" type="line"/>
			<point x="-402" y="294" type="line"/>
			<point x="-63" y="419" type="line"/>
			<point x="-63" y="578" type="line"/>
			<point x="-539" y="384" type="line"/>
			<point x="-539" y="201" type="line"/>
		</contour>
		<contour>
			<point x="518" y="9" type="line"/>
			<point x="518" y="167" type="line"/>
			<point x="179" y="294" type="line"/>
			<point x="518" y="419" type="line"/>
			<point x="518" y="578" type="line"/>
			<point x="42" y="384" type="line"/>
			<point x="42" y="201" type="line"/>
		</contour>
	</outline>
</glyph>
<glyph name="less_plus.cLig" format="2">
	<advance width="600"/>
	<outline>
		<contour>
			<point x="-45" y="-12" type="line"/>
			<point x="-45" y="148" type="line"/>
			<point x="-379" y="313" type="line"/>
			<point x="-45" y="483" type="line"/>
			<point x="-45" y="643" type="line"/>
			<point x="-496" y="407" type="line"/>
			<point x="-496" y="222" type="line"/>
		</contour>
		<contour>
			<point x="201" y="531" type="line"/>
			<point x="201" y="363" type="line"/>
			<point x="35" y="363" type="line"/>
			<point x="35" y="224" type="line"/>
			<point x="201" y="224" type="line"/>
			<point x="201" y="56" type="line"/>
			<point x="345" y="56" type="line"/>
			<point x="345" y="224" type="line"/>
			<point x="511" y="224" type="line"/>
			<point x="511" y="363" type="line"/>
			<point x="345" y="363" type="line"/>
			<point x="345" y="531" type="line"/>
		</contour>
	</outline>
</glyph>
<glyph name="less_question.cLig" format="2">
	<advance width="600"/>
	<outline>
		<contour>
			<point x="-59" y="460" type="line" smooth="yes"/>
			<point x="105" y="531"/>
			<point x="191" y="553"/>
			<point x="252" y="553" type="curve"/>
			<point x="311" y="553"/>
			<point x="334" y="529"/>
			<point x="334" y="496" type="curve" smooth="yes"/>
			<point x="334" y="411"/>
			<point x="164" y="405"/>
			<point x="164" y="278" type="curve" smooth="yes"/>
			<point x="164" y="265"/>
			<point x="166" y="255"/>
			<point x="170" y="241" type="curve"/>
			<point x="320" y="241" type="line"/>
			<point x="320" y="263" type="line" smooth="yes"/>
			<point x="321" y="338"/>
			<point x="502" y="363"/>
			<point x="502" y="522" type="curve" smooth="yes"/>
			<point x="502" y="624"/>
			<point x="427" y="698"/>
			<point x="276" y="698" type="curve"/>
			<point x="166" y="698"/>
			<point x="56" y="665"/>
			<point x="-101" y="596" type="curve" smooth="yes"/>
			<point x="-526" y="407" type="line"/>
			<point x="-526" y="222" type="line"/>
			<point x="-52" y="14" type="line"/>
			<point x="-52" y="172" type="line"/>
			<point x="-397" y="316" type="line"/>
		</contour>
		<contour>
			<point x="244" y="-12" type="curve" smooth="yes"/>
			<point x="313" y="-12"/>
			<point x="348" y="13"/>
			<point x="348" y="82" type="curve" smooth="yes"/>
			<point x="348" y="147"/>
			<point x="313" y="174"/>
			<point x="244" y="174" type="curve" smooth="yes"/>
			<point x="173" y="174"/>
			<point x="139" y="147"/>
			<point x="139" y="82" type="curve" smooth="yes"/>
			<point x="139" y="13"/>
			<point x="174" y="-12"/>
		</contour>
	</outline>
</glyph>
<glyph name="less_slash.cLig" format="2">
	<advance width="600"/>
	<outline>
		<contour>
			<point x="-32" y="607" type="line"/>
			<point x="-484" y="407" type="line"/>
			<point x="-484" y="222" type="line"/>
			<point x="59" y="-29" type="line"/>
			<point x="12" y="-164" type="line"/>
			<point x="175" y="-164" type="line"/>
			<point x="512" y="791" type="line"/>
			<point x="348" y="791" type="line"/>
			<point x="107" y="108" type="line"/>
			<point x="-349" y="316" type="line"/>
			<point x="-32" y="448" type="line"/>
		</contour>
	</outline>
</glyph>
<glyph name="less_slash_greater.cLig" format="2">
	<advance width="600"/>
	<outline>
		<contour>
			<point x="-7" y="23" type="line"/>
			<point x="445" y="222" type="line"/>
			<point x="445" y="407" type="line"/>
			<point x="-98" y="659" type="line"/>
			<point x="-51" y="792" type="line"/>
			<point x="-215" y="792" type="line"/>
			<point x="-455" y="108" type="line"/>
			<point x="-910" y="315" type="line"/>
			<point x="-593" y="448" type="line"/>
			<point x="-593" y="607" type="line"/>
			<point x="-1045" y="407" type="line"/>
			<point x="-1045" y="222" type="line"/>
			<point x="-503" y="-28" type="line"/>
			<point x="-551" y="-163" type="line"/>
			<point x="-388" y="-163" type="line"/>
			<point x="-146" y="522" type="line"/>
			<point x="310" y="314" type="line"/>
			<point x="-7" y="182" type="line"/>
		</contour>
	</outline>
</glyph>
<glyph name="macron.cap" format="2">
	<advance width="600"/>
	<outline>
		<contour>
			<point x="139" y="756" type="line"/>
			<point x="461" y="756" type="line"/>
			<point x="461" y="848" type="line"/>
			<point x="139" y="848" type="line"/>
		</contour>
	</outline>
	<anchor name="_top" x="301" y="684"/>
</glyph>
<glyph name="nine.den" format="2">
	<advance width="600"/>
	<outline>
		<contour>
			<point x="270" y="-8" type="curve" smooth="yes"/>
			<point x="421" y="-8"/>
			<point x="468" y="86"/>
			<point x="468" y="225" type="curve" smooth="yes"/>
			<point x="468" y="351"/>
			<point x="426" y="418"/>
			<point x="301" y="418" type="curve" smooth="yes"/>
			<point x="191" y="418"/>
			<point x="134" y="349"/>
			<point x="134" y="263" type="curve" smooth="yes"/>
			<point x="134" y="189"/>
			<point x="170" y="137"/>
			<point x="246" y="137" type="curve" smooth="yes"/>
			<point x="297" y="137"/>
			<point x="331" y="158"/>
			<point x="354" y="205" type="curve"/>
			<point x="352" y="117"/>
			<point x="330" y="80"/>
			<point x="254" y="80" type="curve" smooth="yes"/>
			<point x="220" y="80"/>
			<point x="176" y="94"/>
			<point x="145" y="114" type="curve"/>
			<point x="145" y="21" type="line"/>
			<point x="173" y="5"/>
			<point x="224" y="-8"/>
		</contour>
		<contour>
			<point x="298" y="210" type="curve" smooth="yes"/>
			<point x="262" y="210"/>
			<point x="244" y="229"/>
			<point x="244" y="270" type="curve" smooth="yes"/>
			<point x="244" y="316"/>
			<point x="266" y="336"/>
			<point x="301" y="336" type="curve" smooth="yes"/>
			<point x="335" y="336"/>
			<point x="357" y="316"/>
			<point x="357" y="271" type="curve" smooth="yes"/>
			<point x="357" y="228"/>
			<point x="332" y="210"/>
		</contour>
	</outline>
</glyph>
<glyph name="numbersign.fina" format="2">
	<advance width="600"/>
	<outline>
		<contour>
			<point x="0" y="276" type="line"/>
			<point x="0" y="153" type="line"/>
			<point x="104" y="153" type="line"/>
			<point x="90" y="0" type="line"/>
			<point x="216" y="0" type="line"/>
			<point x="230" y="153" type="line"/>
			<point x="332" y="153" type="line"/>
			<point x="318" y="0" type="line"/>
			<point x="443" y="0" type="line"/>
			<point x="457" y="153" type="line"/>
			<point x="558" y="153" type="line"/>
			<point x="558" y="276" type="line"/>
			<point x="469" y="276" type="line"/>
			<point x="482" y="413" type="line"/>
			<point x="581" y="413" type="line"/>
			<point x="581" y="537" type="line"/>
			<point x="494" y="537" type="line"/>
			<point x="508" y="684" type="line"/>
			<point x="383" y="684" type="line"/>
			<point x="369" y="537" type="line"/>
			<point x="266" y="537" type="line"/>
			<point x="280" y="684" type="line"/>
			<point x="155" y="684" type="line"/>
			<point x="141" y="537" type="line"/>
			<point x="0" y="537" type="line"/>
			<point x="0" y="413" type="line"/>
			<point x="129" y="413" type="line"/>
			<point x="116" y="276" type="line"/>
		</contour>
		<contour>
			<point x="242" y="276" type="line"/>
			<point x="254" y="413" type="line"/>
			<point x="357" y="413" type="line"/>
			<point x="344" y="276" type="line"/>
		</contour>
	</outline>
</glyph>
<glyph name="numbersign.init" format="2">
	<advance width="600"/>
	<outline>
		<contour>
			<point x="19" y="276" type="line"/>
			<point x="19" y="153" type="line"/>
			<point x="108" y="153" type="line"/>
			<point x="93" y="0" type="line"/>
			<point x="220" y="0" type="line"/>
			<point x="234" y="153" type="line"/>
			<point x="336" y="153" type="line"/>
			<point x="322" y="0" type="line"/>
			<point x="446" y="0" type="line"/>
			<point x="461" y="153" type="line"/>
			<point x="600" y="153" type="line"/>
			<point x="600" y="276" type="line"/>
			<point x="473" y="276" type="line"/>
			<point x="486" y="413" type="line"/>
			<point x="600" y="413" type="line"/>
			<point x="600" y="537" type="line"/>
			<point x="498" y="537" type="line"/>
			<point x="512" y="684" type="line"/>
			<point x="386" y="684" type="line"/>
			<point x="373" y="537" type="line"/>
			<point x="270" y="537" type="line"/>
			<point x="284" y="684" type="line"/>
			<point x="159" y="684" type="line"/>
			<point x="145" y="537" type="line"/>
			<point x="44" y="537" type="line"/>
			<point x="44" y="413" type="line"/>
			<point x="133" y="413" type="line"/>
			<point x="120" y="276" type="line"/>
		</contour>
		<contour>
			<point x="245" y="276" type="line"/>
			<point x="258" y="413" type="line"/>
			<point x="361" y="413" type="line"/>
			<point x="348" y="276" type="line"/>
		</contour>
	</outline>
</glyph>
<glyph name="numbersign.med" format="2">
	<advance width="600"/>
	<outline>
		<contour>
			<point x="0" y="276" type="line"/>
			<point x="0" y="153" type="line"/>
			<point x="106" y="153" type="line"/>
			<point x="91" y="0" type="line"/>
			<point x="218" y="0" type="line"/>
			<point x="232" y="153" type="line"/>
			<point x="334" y="153" type="line"/>
			<point x="320" y="0" type="line"/>
			<point x="445" y="0" type="line"/>
			<point x="459" y="153" type="line"/>
			<point x="600" y="153" type="line"/>
			<point x="600" y="276" type="line"/>
			<point x="471" y="276" type="line"/>
			<point x="484" y="413" type="line"/>
			<point x="600" y="413" type="line"/>
			<point x="600" y="537" type="line"/>
			<point x="496" y="537" type="line"/>
			<point x="510" y="684" type="line"/>
			<point x="385" y="684" type="line"/>
			<point x="371" y="537" type="line"/>
			<point x="268" y="537" type="line"/>
			<point x="282" y="684" type="line"/>
			<point x="157" y="684" type="line"/>
			<point x="143" y="537" type="line"/>
			<point x="0" y="537" type="line"/>
			<point x="0" y="413" type="line"/>
			<point x="131" y="413" type="line"/>
			<point x="118" y="276" type="line"/>
		</contour>
		<contour>
			<point x="244" y="276" type="line"/>
			<point x="256" y="413" type="line"/>
			<point x="359" y="413" type="line"/>
			<point x="346" y="276" type="line"/>
		</contour>
	</outline>
</glyph>
<glyph name="numbersign_braceright.cLig" format="2">
	<advance width="600"/>
	<outline>
		<contour>
			<point x="513" y="384" type="line"/>
			<point x="424" y="384" type="line" smooth="yes"/>
			<point x="381" y="384"/>
			<point x="362" y="416"/>
			<point x="362" y="443" type="curve" smooth="yes"/>
			<point x="362" y="504"/>
			<point x="457" y="557"/>
			<point x="457" y="651" type="curve" smooth="yes"/>
			<point x="457" y="728"/>
			<point x="395" y="792"/>
			<point x="283" y="792" type="curve" smooth="yes"/>
			<point x="89" y="792" type="line"/>
			<point x="89" y="673" type="line"/>
			<point x="218" y="673" type="line" smooth="yes"/>
			<point x="267" y="673"/>
			<point x="287" y="653"/>
			<point x="287" y="623" type="curve" smooth="yes"/>
			<point x="287" y="568"/>
			<point x="192" y="518"/>
			<point x="192" y="437" type="curve" smooth="yes"/>
			<point x="192" y="380"/>
			<point x="244" y="328"/>
			<point x="322" y="316" type="curve"/>
			<point x="244" y="304"/>
			<point x="192" y="252"/>
			<point x="192" y="196" type="curve" smooth="yes"/>
			<point x="192" y="113"/>
			<point x="287" y="63"/>
			<point x="287" y="5" type="curve" smooth="yes"/>
			<point x="287" y="-29"/>
			<point x="266" y="-44"/>
			<point x="225" y="-44" type="curve" smooth="yes"/>
			<point x="89" y="-44" type="line"/>
			<point x="89" y="-163" type="line"/>
			<point x="283" y="-163" type="line" smooth="yes"/>
			<point x="395" y="-163"/>
			<point x="457" y="-96"/>
			<point x="457" y="-21" type="curve" smooth="yes"/>
			<point x="457" y="74"/>
			<point x="362" y="127"/>
			<point x="362" y="189" type="curve" smooth="yes"/>
			<point x="362" y="216"/>
			<point x="381" y="247"/>
			<point x="424" y="247" type="curve" smooth="yes"/>
			<point x="513" y="247" type="line"/>
		</contour>
		<contour>
			<point x="-496" y="276" type="line"/>
			<point x="-496" y="153" type="line"/>
			<point x="-407" y="153" type="line"/>
			<point x="-422" y="0" type="line"/>
			<point x="-295" y="0" type="line"/>
			<point x="-281" y="153" type="line"/>
			<point x="-179" y="153" type="line"/>
			<point x="-193" y="0" type="line"/>
			<point x="-69" y="0" type="line"/>
			<point x="-54" y="153" type="line"/>
			<point x="85" y="153" type="line"/>
			<point x="85" y="276" type="line"/>
			<point x="-42" y="276" type="line"/>
			<point x="-29" y="413" type="line"/>
			<point x="85" y="413" type="line"/>
			<point x="85" y="537" type="line"/>
			<point x="-17" y="537" type="line"/>
			<point x="-3" y="684" type="line"/>
			<point x="-129" y="684" type="line"/>
			<point x="-142" y="537" type="line"/>
			<point x="-245" y="537" type="line"/>
			<point x="-231" y="684" type="line"/>
			<point x="-356" y="684" type="line"/>
			<point x="-370" y="537" type="line"/>
			<point x="-471" y="537" type="line"/>
			<point x="-471" y="413" type="line"/>
			<point x="-382" y="413" type="line"/>
			<point x="-395" y="276" type="line"/>
		</contour>
		<contour>
			<point x="-270" y="276" type="line"/>
			<point x="-257" y="413" type="line"/>
			<point x="-154" y="413" type="line"/>
			<point x="-167" y="276" type="line"/>
		</contour>
	</outline>
</glyph>
<glyph name="numbersign_bracketright.cLig" format="2">
	<advance width="600"/>
	<outline>
		<contour>
			<point x="91" y="-163" type="line"/>
			<point x="442" y="-163" type="line"/>
			<point x="442" y="792" type="line"/>
			<point x="91" y="792" type="line"/>
			<point x="91" y="673" type="line"/>
			<point x="287" y="673" type="line"/>
			<point x="287" y="-44" type="line"/>
			<point x="91" y="-44" type="line"/>
		</contour>
		<contour>
			<point x="-489" y="276" type="line"/>
			<point x="-489" y="153" type="line"/>
			<point x="-400" y="153" type="line"/>
			<point x="-415" y="0" type="line"/>
			<point x="-288" y="0" type="line"/>
			<point x="-274" y="153" type="line"/>
			<point x="-172" y="153" type="line"/>
			<point x="-186" y="0" type="line"/>
			<point x="-62" y="0" type="line"/>
			<point x="-47" y="153" type="line"/>
			<point x="92" y="153" type="line"/>
			<point x="92" y="276" type="line"/>
			<point x="-35" y="276" type="line"/>
			<point x="-22" y="413" type="line"/>
			<point x="92" y="413" type="line"/>
			<point x="92" y="537" type="line"/>
			<point x="-10" y="537" type="line"/>
			<point x="4" y="684" type="line"/>
			<point x="-122" y="684" type="line"/>
			<point x="-135" y="537" type="line"/>
			<point x="-238" y="537" type="line"/>
			<point x="-224" y="684" type="line"/>
			<point x="-349" y="684" type="line"/>
			<point x="-363" y="537" type="line"/>
			<point x="-464" y="537" type="line"/>
			<point x="-464" y="413" type="line"/>
			<point x="-375" y="413" type="line"/>
			<point x="-388" y="276" type="line"/>
		</contour>
		<contour>
			<point x="-263" y="276" type="line"/>
			<point x="-250" y="413" type="line"/>
			<point x="-147" y="413" type="line"/>
			<point x="-160" y="276" type="line"/>
		</contour>
	</outline>
</glyph>
<glyph name="numbersign_numbersign_numbersign.cLig.x" format="2">
	<advance width="600"/>
	<outline>
		<contour>
			<point x="-1060" y="153" type="line"/>
			<point x="-893" y="153" type="line"/>
			<point x="-908" y="0" type="line"/>
			<point x="-781" y="0" type="line"/>
			<point x="-767" y="153" type="line"/>
			<point x="-551" y="153" type="line"/>
			<point x="-565" y="0" type="line"/>
			<point x="-441" y="0" type="line"/>
			<point x="-426" y="153" type="line"/>
			<point x="-208" y="153" type="line"/>
			<point x="-223" y="0" type="line"/>
			<point x="-98" y="0" type="line"/>
			<point x="-84" y="153" type="line"/>
			<point x="133" y="153" type="line"/>
			<point x="119" y="0" type="line"/>
			<point x="244" y="0" type="line"/>
			<point x="258" y="153" type="line"/>
			<point x="437" y="153" type="line"/>
			<point x="437" y="276" type="line"/>
			<point x="270" y="276" type="line"/>
			<point x="283" y="413" type="line"/>
			<point x="460" y="413" type="line"/>
			<point x="460" y="537" type="line"/>
			<point x="295" y="537" type="line"/>
			<point x="309" y="684" type="line"/>
			<point x="184" y="684" type="line"/>
			<point x="170" y="537" type="line"/>
			<point x="-47" y="537" type="line"/>
			<point x="-33" y="684" type="line"/>
			<point x="-158" y="684" type="line"/>
			<point x="-172" y="537" type="line"/>
			<point x="-389" y="537" type="line"/>
			<point x="-375" y="684" type="line"/>
			<point x="-501" y="684" type="line"/>
			<point x="-515" y="537" type="line"/>
			<point x="-731" y="537" type="line"/>
			<point x="-717" y="684" type="line"/>
			<point x="-842" y="684" type="line"/>
			<point x="-856" y="537" type="line"/>
			<point x="-1035" y="537" type="line"/>
			<point x="-1035" y="413" type="line"/>
			<point x="-868" y="413" type="line"/>
			<point x="-881" y="276" type="line"/>
			<point x="-1060" y="276" type="line"/>
		</contour>
		<contour>
			<point x="-756" y="276" type="line"/>
			<point x="-743" y="413" type="line"/>
			<point x="-526" y="413" type="line"/>
			<point x="-539" y="276" type="line"/>
		</contour>
		<contour>
			<point x="-414" y="276" type="line"/>
			<point x="-401" y="413" type="line"/>
			<point x="-184" y="413" type="line"/>
			<point x="-197" y="276" type="line"/>
		</contour>
		<contour>
			<point x="-72" y="276" type="line"/>
			<point x="-59" y="413" type="line"/>
			<point x="158" y="413" type="line"/>
			<point x="145" y="276" type="line"/>
		</contour>
	</outline>
</glyph>
<glyph name="numbersign_numbersign_numbersign_numbersign.rem" format="2">
	<advance width="600"/>
	<outline>
		<contour>
			<point x="-1745" y="276" type="line"/>
			<point x="-1745" y="153" type="line"/>
			<point x="-1656" y="153" type="line"/>
			<point x="-1671" y="0" type="line"/>
			<point x="-1544" y="0" type="line"/>
			<point x="-1530" y="153" type="line"/>
			<point x="-1428" y="153" type="line"/>
			<point x="-1442" y="0" type="line"/>
			<point x="-1318" y="0" type="line"/>
			<point x="-1303" y="153" type="line"/>
			<point x="-1082" y="153" type="line"/>
			<point x="-1097" y="0" type="line"/>
			<point x="-970" y="0" type="line"/>
			<point x="-956" y="153" type="line"/>
			<point x="-854" y="153" type="line"/>
			<point x="-868" y="0" type="line"/>
			<point x="-743" y="0" type="line"/>
			<point x="-729" y="153" type="line"/>
			<point x="-506" y="153" type="line"/>
			<point x="-521" y="0" type="line"/>
			<point x="-394" y="0" type="line"/>
			<point x="-380" y="153" type="line"/>
			<point x="-278" y="153" type="line"/>
			<point x="-292" y="0" type="line"/>
			<point x="-167" y="0" type="line"/>
			<point x="-153" y="153" type="line"/>
			<point x="68" y="153" type="line"/>
			<point x="54" y="0" type="line"/>
			<point x="180" y="0" type="line"/>
			<point x="194" y="153" type="line"/>
			<point x="296" y="153" type="line"/>
			<point x="282" y="0" type="line"/>
			<point x="407" y="0" type="line"/>
			<point x="421" y="153" type="line"/>
			<point x="522" y="153" type="line"/>
			<point x="522" y="276" type="line"/>
			<point x="433" y="276" type="line"/>
			<point x="446" y="413" type="line"/>
			<point x="545" y="413" type="line"/>
			<point x="545" y="537" type="line"/>
			<point x="458" y="537" type="line"/>
			<point x="472" y="684" type="line"/>
			<point x="347" y="684" type="line"/>
			<point x="333" y="537" type="line"/>
			<point x="230" y="537" type="line"/>
			<point x="244" y="684" type="line"/>
			<point x="119" y="684" type="line"/>
			<point x="105" y="537" type="line"/>
			<point x="-116" y="537" type="line"/>
			<point x="-102" y="684" type="line"/>
			<point x="-227" y="684" type="line"/>
			<point x="-241" y="537" type="line"/>
			<point x="-344" y="537" type="line"/>
			<point x="-330" y="684" type="line"/>
			<point x="-455" y="684" type="line"/>
			<point x="-469" y="537" type="line"/>
			<point x="-692" y="537" type="line"/>
			<point x="-678" y="684" type="line"/>
			<point x="-803" y="684" type="line"/>
			<point x="-817" y="537" type="line"/>
			<point x="-920" y="537" type="line"/>
			<point x="-906" y="684" type="line"/>
			<point x="-1031" y="684" type="line"/>
			<point x="-1045" y="537" type="line"/>
			<point x="-1266" y="537" type="line"/>
			<point x="-1252" y="684" type="line"/>
			<point x="-1378" y="684" type="line"/>
			<point x="-1391" y="537" type="line"/>
			<point x="-1494" y="537" type="line"/>
			<point x="-1480" y="684" type="line"/>
			<point x="-1605" y="684" type="line"/>
			<point x="-1619" y="537" type="line"/>
			<point x="-1720" y="537" type="line"/>
			<point x="-1720" y="413" type="line"/>
			<point x="-1631" y="413" type="line"/>
			<point x="-1644" y="276" type="line"/>
		</contour>
		<contour>
			<point x="80" y="276" type="line"/>
			<point x="-141" y="276" type="line"/>
			<point x="-128" y="413" type="line"/>
			<point x="93" y="413" type="line"/>
		</contour>
		<contour>
			<point x="-494" y="276" type="line"/>
			<point x="-717" y="276" type="line"/>
			<point x="-704" y="413" type="line"/>
			<point x="-481" y="413" type="line"/>
		</contour>
		<contour>
			<point x="-1070" y="276" type="line"/>
			<point x="-1291" y="276" type="line"/>
			<point x="-1278" y="413" type="line"/>
			<point x="-1057" y="413" type="line"/>
		</contour>
		<contour>
			<point x="-1519" y="276" type="line"/>
			<point x="-1506" y="413" type="line"/>
			<point x="-1403" y="413" type="line"/>
			<point x="-1416" y="276" type="line"/>
		</contour>
		<contour>
			<point x="206" y="276" type="line"/>
			<point x="218" y="413" type="line"/>
			<point x="321" y="413" type="line"/>
			<point x="308" y="276" type="line"/>
		</contour>
		<contour>
			<point x="-944" y="276" type="line"/>
			<point x="-932" y="413" type="line"/>
			<point x="-829" y="413" type="line"/>
			<point x="-842" y="276" type="line"/>
		</contour>
		<contour>
			<point x="-368" y="276" type="line"/>
			<point x="-356" y="413" type="line"/>
			<point x="-253" y="413" type="line"/>
			<point x="-266" y="276" type="line"/>
		</contour>
	</outline>
</glyph>
<glyph name="numbersign_question.cLig" format="2">
	<advance width="600"/>
	<outline>
		<contour>
			<point x="208" y="241" type="curve"/>
			<point x="356" y="241" type="line"/>
			<point x="356" y="263" type="line" smooth="yes"/>
			<point x="357" y="339"/>
			<point x="532" y="363"/>
			<point x="532" y="526" type="curve" smooth="yes"/>
			<point x="532" y="621"/>
			<point x="461" y="698"/>
			<point x="312" y="698" type="curve" smooth="yes"/>
			<point x="220" y="698"/>
			<point x="145" y="668"/>
			<point x="102" y="643" type="curve"/>
			<point x="102" y="500" type="line"/>
			<point x="144" y="527"/>
			<point x="205" y="555"/>
			<point x="272" y="555" type="curve" smooth="yes"/>
			<point x="338" y="555"/>
			<point x="364" y="526"/>
			<point x="364" y="495" type="curve" smooth="yes"/>
			<point x="364" y="414"/>
			<point x="202" y="403"/>
			<point x="202" y="277" type="curve" smooth="yes"/>
			<point x="202" y="263"/>
			<point x="204" y="254"/>
		</contour>
		<contour>
			<point x="-517" y="276" type="line"/>
			<point x="-517" y="153" type="line"/>
			<point x="-428" y="153" type="line"/>
			<point x="-443" y="0" type="line"/>
			<point x="-317" y="0" type="line"/>
			<point x="-303" y="153" type="line"/>
			<point x="-200" y="153" type="line"/>
			<point x="-215" y="0" type="line"/>
			<point x="-90" y="0" type="line"/>
			<point x="-75" y="153" type="line"/>
			<point x="25" y="153" type="line"/>
			<point x="25" y="276" type="line"/>
			<point x="-64" y="276" type="line"/>
			<point x="-51" y="413" type="line"/>
			<point x="30" y="413" type="line"/>
			<point x="30" y="537" type="line"/>
			<point x="-39" y="537" type="line"/>
			<point x="-25" y="684" type="line"/>
			<point x="-150" y="684" type="line"/>
			<point x="-164" y="537" type="line"/>
			<point x="-267" y="537" type="line"/>
			<point x="-253" y="684" type="line"/>
			<point x="-378" y="684" type="line"/>
			<point x="-392" y="537" type="line"/>
			<point x="-493" y="537" type="line"/>
			<point x="-493" y="413" type="line"/>
			<point x="-404" y="413" type="line"/>
			<point x="-417" y="276" type="line"/>
		</contour>
		<contour>
			<point x="-291" y="276" type="line"/>
			<point x="-278" y="413" type="line"/>
			<point x="-176" y="413" type="line"/>
			<point x="-188" y="276" type="line"/>
		</contour>
		<contour>
			<point x="281" y="-12" type="curve" smooth="yes"/>
			<point x="349" y="-12"/>
			<point x="384" y="13"/>
			<point x="384" y="81" type="curve" smooth="yes"/>
			<point x="384" y="146"/>
			<point x="350" y="173"/>
			<point x="281" y="173" type="curve" smooth="yes"/>
			<point x="211" y="173"/>
			<point x="177" y="146"/>
			<point x="177" y="81" type="curve" smooth="yes"/>
			<point x="177" y="13"/>
			<point x="212" y="-12"/>
		</contour>
	</outline>
</glyph>
<glyph name="numbersign_underscore.cLig" format="2">
	<advance width="600"/>
	<outline>
		<contour>
			<point x="-517" y="276" type="line"/>
			<point x="-517" y="153" type="line"/>
			<point x="-428" y="153" type="line"/>
			<point x="-443" y="0" type="line"/>
			<point x="-317" y="0" type="line"/>
			<point x="-303" y="153" type="line"/>
			<point x="-200" y="153" type="line"/>
			<point x="-233" y="-188" type="line"/>
			<point x="518" y="-188" type="line"/>
			<point x="518" y="-65" type="line"/>
			<point x="-96" y="-65" type="line"/>
			<point x="-76" y="153" type="line"/>
			<point x="25" y="153" type="line"/>
			<point x="25" y="276" type="line"/>
			<point x="-64" y="276" type="line"/>
			<point x="-51" y="413" type="line"/>
			<point x="48" y="413" type="line"/>
			<point x="48" y="537" type="line"/>
			<point x="-39" y="537" type="line"/>
			<point x="-25" y="684" type="line"/>
			<point x="-150" y="684" type="line"/>
			<point x="-164" y="537" type="line"/>
			<point x="-267" y="537" type="line"/>
			<point x="-253" y="684" type="line"/>
			<point x="-378" y="684" type="line"/>
			<point x="-392" y="537" type="line"/>
			<point x="-493" y="537" type="line"/>
			<point x="-493" y="413" type="line"/>
			<point x="-404" y="413" type="line"/>
			<point x="-417" y="276" type="line"/>
		</contour>
		<contour>
			<point x="-291" y="276" type="line"/>
			<point x="-278" y="413" type="line"/>
			<point x="-176" y="413" type="line"/>
			<point x="-189" y="276" type="line"/>
		</contour>
	</outline>
</glyph>
<glyph name="parenleft.den" format="2">
	<advance width="600"/>
	<outline>
		<contour>
			<point x="399" y="-55" type="curve"/>
			<point x="441" y="34" type="line"/>
			<point x="330" y="76"/>
			<point x="295" y="134"/>
			<point x="295" y="219" type="curve" smooth="yes"/>
			<point x="295" y="303"/>
			<point x="330" y="367"/>
			<point x="441" y="403" type="curve"/>
			<point x="399" y="492" type="line"/>
			<point x="249" y="439"/>
			<point x="185" y="349"/>
			<point x="185" y="219" type="curve" smooth="yes"/>
			<point x="185" y="89"/>
			<point x="249" y="-2"/>
		</contour>
	</outline>
</glyph>
